%TF.GenerationSoftware,KiCad,Pcbnew,(6.0.5-0)*%
%TF.CreationDate,2023-05-23T22:47:04+01:00*%
%TF.ProjectId,control,636f6e74-726f-46c2-9e6b-696361645f70,rev?*%
%TF.SameCoordinates,Original*%
%TF.FileFunction,Legend,Top*%
%TF.FilePolarity,Positive*%
%FSLAX46Y46*%
G04 Gerber Fmt 4.6, Leading zero omitted, Abs format (unit mm)*
G04 Created by KiCad (PCBNEW (6.0.5-0)) date 2023-05-23 22:47:04*
%MOMM*%
%LPD*%
G01*
G04 APERTURE LIST*
%ADD10C,0.150000*%
%ADD11C,0.100000*%
%ADD12C,0.200000*%
%ADD13C,0.120000*%
%ADD14C,0.010000*%
G04 APERTURE END LIST*
D10*
X101500000Y-73000000D02*
X104500000Y-73000000D01*
X104500000Y-73000000D02*
X104500000Y-86500000D01*
X104500000Y-86500000D02*
X101500000Y-86500000D01*
X101500000Y-86500000D02*
X101500000Y-73000000D01*
X48000000Y-94500000D02*
X61750000Y-94500000D01*
X61750000Y-94500000D02*
X61750000Y-97500000D01*
X61750000Y-97500000D02*
X48000000Y-97500000D01*
X48000000Y-97500000D02*
X48000000Y-94500000D01*
X105500000Y-73000000D02*
X108500000Y-73000000D01*
X108500000Y-73000000D02*
X108500000Y-90000000D01*
X108500000Y-90000000D02*
X105500000Y-90000000D01*
X105500000Y-90000000D02*
X105500000Y-73000000D01*
D11*
X48000000Y-85500000D02*
X54500000Y-85500000D01*
X54500000Y-85500000D02*
X54500000Y-88500000D01*
X54500000Y-88500000D02*
X48000000Y-88500000D01*
X48000000Y-88500000D02*
X48000000Y-85500000D01*
D10*
X48000000Y-88500000D02*
X61750000Y-88500000D01*
X61750000Y-88500000D02*
X61750000Y-91500000D01*
X61750000Y-91500000D02*
X48000000Y-91500000D01*
X48000000Y-91500000D02*
X48000000Y-88500000D01*
X96250000Y-46750000D02*
X100750000Y-46750000D01*
X100750000Y-46750000D02*
X100750000Y-57000000D01*
X100750000Y-57000000D02*
X96250000Y-57000000D01*
X96250000Y-57000000D02*
X96250000Y-46750000D01*
X48000000Y-91500000D02*
X61750000Y-91500000D01*
X61750000Y-91500000D02*
X61750000Y-94500000D01*
X61750000Y-94500000D02*
X48000000Y-94500000D01*
X48000000Y-94500000D02*
X48000000Y-91500000D01*
D11*
X57231666Y-53253166D02*
X57231666Y-52553166D01*
X57398333Y-52553166D01*
X57498333Y-52586500D01*
X57565000Y-52653166D01*
X57598333Y-52719833D01*
X57631666Y-52853166D01*
X57631666Y-52953166D01*
X57598333Y-53086500D01*
X57565000Y-53153166D01*
X57498333Y-53219833D01*
X57398333Y-53253166D01*
X57231666Y-53253166D01*
X58031666Y-53253166D02*
X57965000Y-53219833D01*
X57931666Y-53186500D01*
X57898333Y-53119833D01*
X57898333Y-52919833D01*
X57931666Y-52853166D01*
X57965000Y-52819833D01*
X58031666Y-52786500D01*
X58131666Y-52786500D01*
X58198333Y-52819833D01*
X58231666Y-52853166D01*
X58265000Y-52919833D01*
X58265000Y-53119833D01*
X58231666Y-53186500D01*
X58198333Y-53219833D01*
X58131666Y-53253166D01*
X58031666Y-53253166D01*
X58565000Y-52786500D02*
X58565000Y-53253166D01*
X58565000Y-52853166D02*
X58598333Y-52819833D01*
X58665000Y-52786500D01*
X58765000Y-52786500D01*
X58831666Y-52819833D01*
X58865000Y-52886500D01*
X58865000Y-53253166D01*
X59198333Y-53253166D02*
X59198333Y-52786500D01*
X59198333Y-52553166D02*
X59165000Y-52586500D01*
X59198333Y-52619833D01*
X59231666Y-52586500D01*
X59198333Y-52553166D01*
X59198333Y-52619833D01*
X59798333Y-53219833D02*
X59731666Y-53253166D01*
X59598333Y-53253166D01*
X59531666Y-53219833D01*
X59498333Y-53153166D01*
X59498333Y-52886500D01*
X59531666Y-52819833D01*
X59598333Y-52786500D01*
X59731666Y-52786500D01*
X59798333Y-52819833D01*
X59831666Y-52886500D01*
X59831666Y-52953166D01*
X59498333Y-53019833D01*
X60665000Y-53253166D02*
X60665000Y-52553166D01*
X61065000Y-53253166D02*
X60765000Y-52853166D01*
X61065000Y-52553166D02*
X60665000Y-52953166D01*
X61631666Y-53219833D02*
X61565000Y-53253166D01*
X61431666Y-53253166D01*
X61365000Y-53219833D01*
X61331666Y-53153166D01*
X61331666Y-52886500D01*
X61365000Y-52819833D01*
X61431666Y-52786500D01*
X61565000Y-52786500D01*
X61631666Y-52819833D01*
X61665000Y-52886500D01*
X61665000Y-52953166D01*
X61331666Y-53019833D01*
X62065000Y-53253166D02*
X61998333Y-53219833D01*
X61965000Y-53153166D01*
X61965000Y-52553166D01*
X62431666Y-53253166D02*
X62365000Y-53219833D01*
X62331666Y-53153166D01*
X62331666Y-52553166D01*
X62631666Y-52786500D02*
X62798333Y-53253166D01*
X62965000Y-52786500D02*
X62798333Y-53253166D01*
X62731666Y-53419833D01*
X62698333Y-53453166D01*
X62631666Y-53486500D01*
X57798333Y-53846833D02*
X57731666Y-53813500D01*
X57598333Y-53813500D01*
X57531666Y-53846833D01*
X57465000Y-53913500D01*
X57431666Y-53980166D01*
X57431666Y-54113500D01*
X57465000Y-54180166D01*
X57531666Y-54246833D01*
X57598333Y-54280166D01*
X57731666Y-54280166D01*
X57798333Y-54246833D01*
X57665000Y-53580166D02*
X57498333Y-53613500D01*
X57331666Y-53713500D01*
X57231666Y-53880166D01*
X57198333Y-54046833D01*
X57231666Y-54213500D01*
X57331666Y-54380166D01*
X57498333Y-54480166D01*
X57665000Y-54513500D01*
X57831666Y-54480166D01*
X57998333Y-54380166D01*
X58098333Y-54213500D01*
X58131666Y-54046833D01*
X58098333Y-53880166D01*
X57998333Y-53713500D01*
X57831666Y-53613500D01*
X57665000Y-53580166D01*
X58931666Y-53746833D02*
X58965000Y-53713500D01*
X59031666Y-53680166D01*
X59198333Y-53680166D01*
X59265000Y-53713500D01*
X59298333Y-53746833D01*
X59331666Y-53813500D01*
X59331666Y-53880166D01*
X59298333Y-53980166D01*
X58898333Y-54380166D01*
X59331666Y-54380166D01*
X59765000Y-53680166D02*
X59831666Y-53680166D01*
X59898333Y-53713500D01*
X59931666Y-53746833D01*
X59965000Y-53813500D01*
X59998333Y-53946833D01*
X59998333Y-54113500D01*
X59965000Y-54246833D01*
X59931666Y-54313500D01*
X59898333Y-54346833D01*
X59831666Y-54380166D01*
X59765000Y-54380166D01*
X59698333Y-54346833D01*
X59665000Y-54313500D01*
X59631666Y-54246833D01*
X59598333Y-54113500D01*
X59598333Y-53946833D01*
X59631666Y-53813500D01*
X59665000Y-53746833D01*
X59698333Y-53713500D01*
X59765000Y-53680166D01*
X60265000Y-53746833D02*
X60298333Y-53713500D01*
X60365000Y-53680166D01*
X60531666Y-53680166D01*
X60598333Y-53713500D01*
X60631666Y-53746833D01*
X60665000Y-53813500D01*
X60665000Y-53880166D01*
X60631666Y-53980166D01*
X60231666Y-54380166D01*
X60665000Y-54380166D01*
X60898333Y-53680166D02*
X61331666Y-53680166D01*
X61098333Y-53946833D01*
X61198333Y-53946833D01*
X61265000Y-53980166D01*
X61298333Y-54013500D01*
X61331666Y-54080166D01*
X61331666Y-54246833D01*
X61298333Y-54313500D01*
X61265000Y-54346833D01*
X61198333Y-54380166D01*
X60998333Y-54380166D01*
X60931666Y-54346833D01*
X60898333Y-54313500D01*
X62098333Y-53913500D02*
X62265000Y-54380166D01*
X62431666Y-53913500D01*
X62665000Y-53746833D02*
X62698333Y-53713500D01*
X62765000Y-53680166D01*
X62931666Y-53680166D01*
X62998333Y-53713500D01*
X63031666Y-53746833D01*
X63065000Y-53813500D01*
X63065000Y-53880166D01*
X63031666Y-53980166D01*
X62631666Y-54380166D01*
X63065000Y-54380166D01*
X63365000Y-54313500D02*
X63398333Y-54346833D01*
X63365000Y-54380166D01*
X63331666Y-54346833D01*
X63365000Y-54313500D01*
X63365000Y-54380166D01*
X63831666Y-53680166D02*
X63898333Y-53680166D01*
X63965000Y-53713500D01*
X63998333Y-53746833D01*
X64031666Y-53813500D01*
X64065000Y-53946833D01*
X64065000Y-54113500D01*
X64031666Y-54246833D01*
X63998333Y-54313500D01*
X63965000Y-54346833D01*
X63898333Y-54380166D01*
X63831666Y-54380166D01*
X63765000Y-54346833D01*
X63731666Y-54313500D01*
X63698333Y-54246833D01*
X63665000Y-54113500D01*
X63665000Y-53946833D01*
X63698333Y-53813500D01*
X63731666Y-53746833D01*
X63765000Y-53713500D01*
X63831666Y-53680166D01*
D10*
%TO.C,U5*%
X66216666Y-95866666D02*
X66216666Y-96433333D01*
X66250000Y-96500000D01*
X66283333Y-96533333D01*
X66350000Y-96566666D01*
X66483333Y-96566666D01*
X66550000Y-96533333D01*
X66583333Y-96500000D01*
X66616666Y-96433333D01*
X66616666Y-95866666D01*
X67283333Y-95866666D02*
X66950000Y-95866666D01*
X66916666Y-96200000D01*
X66950000Y-96166666D01*
X67016666Y-96133333D01*
X67183333Y-96133333D01*
X67250000Y-96166666D01*
X67283333Y-96200000D01*
X67316666Y-96266666D01*
X67316666Y-96433333D01*
X67283333Y-96500000D01*
X67250000Y-96533333D01*
X67183333Y-96566666D01*
X67016666Y-96566666D01*
X66950000Y-96533333D01*
X66916666Y-96500000D01*
%TO.C,U2*%
X90053571Y-47089285D02*
X90053571Y-47696428D01*
X90089285Y-47767857D01*
X90125000Y-47803571D01*
X90196428Y-47839285D01*
X90339285Y-47839285D01*
X90410714Y-47803571D01*
X90446428Y-47767857D01*
X90482142Y-47696428D01*
X90482142Y-47089285D01*
X90803571Y-47160714D02*
X90839285Y-47125000D01*
X90910714Y-47089285D01*
X91089285Y-47089285D01*
X91160714Y-47125000D01*
X91196428Y-47160714D01*
X91232142Y-47232142D01*
X91232142Y-47303571D01*
X91196428Y-47410714D01*
X90767857Y-47839285D01*
X91232142Y-47839285D01*
%TO.C,F1*%
X93250000Y-56376428D02*
X93000000Y-56376428D01*
X93000000Y-56769285D02*
X93000000Y-56019285D01*
X93357142Y-56019285D01*
X94035714Y-56769285D02*
X93607142Y-56769285D01*
X93821428Y-56769285D02*
X93821428Y-56019285D01*
X93750000Y-56126428D01*
X93678571Y-56197857D01*
X93607142Y-56233571D01*
%TO.C,U3*%
X79183082Y-88449285D02*
X79183082Y-89056428D01*
X79218796Y-89127857D01*
X79254511Y-89163571D01*
X79325939Y-89199285D01*
X79468796Y-89199285D01*
X79540225Y-89163571D01*
X79575939Y-89127857D01*
X79611653Y-89056428D01*
X79611653Y-88449285D01*
X79897368Y-88449285D02*
X80361653Y-88449285D01*
X80111653Y-88735000D01*
X80218796Y-88735000D01*
X80290225Y-88770714D01*
X80325939Y-88806428D01*
X80361653Y-88877857D01*
X80361653Y-89056428D01*
X80325939Y-89127857D01*
X80290225Y-89163571D01*
X80218796Y-89199285D01*
X80004511Y-89199285D01*
X79933082Y-89163571D01*
X79897368Y-89127857D01*
%TO.C,R1*%
X66375000Y-57839285D02*
X66125000Y-57482142D01*
X65946428Y-57839285D02*
X65946428Y-57089285D01*
X66232142Y-57089285D01*
X66303571Y-57125000D01*
X66339285Y-57160714D01*
X66375000Y-57232142D01*
X66375000Y-57339285D01*
X66339285Y-57410714D01*
X66303571Y-57446428D01*
X66232142Y-57482142D01*
X65946428Y-57482142D01*
X67089285Y-57839285D02*
X66660714Y-57839285D01*
X66875000Y-57839285D02*
X66875000Y-57089285D01*
X66803571Y-57196428D01*
X66732142Y-57267857D01*
X66660714Y-57303571D01*
%TO.C,J8*%
X47000000Y-89589285D02*
X47000000Y-90125000D01*
X46964285Y-90232142D01*
X46892857Y-90303571D01*
X46785714Y-90339285D01*
X46714285Y-90339285D01*
X47464285Y-89910714D02*
X47392857Y-89875000D01*
X47357142Y-89839285D01*
X47321428Y-89767857D01*
X47321428Y-89732142D01*
X47357142Y-89660714D01*
X47392857Y-89625000D01*
X47464285Y-89589285D01*
X47607142Y-89589285D01*
X47678571Y-89625000D01*
X47714285Y-89660714D01*
X47750000Y-89732142D01*
X47750000Y-89767857D01*
X47714285Y-89839285D01*
X47678571Y-89875000D01*
X47607142Y-89910714D01*
X47464285Y-89910714D01*
X47392857Y-89946428D01*
X47357142Y-89982142D01*
X47321428Y-90053571D01*
X47321428Y-90196428D01*
X47357142Y-90267857D01*
X47392857Y-90303571D01*
X47464285Y-90339285D01*
X47607142Y-90339285D01*
X47678571Y-90303571D01*
X47714285Y-90267857D01*
X47750000Y-90196428D01*
X47750000Y-90053571D01*
X47714285Y-89982142D01*
X47678571Y-89946428D01*
X47607142Y-89910714D01*
%TO.C,J6*%
X105589285Y-91250000D02*
X106125000Y-91250000D01*
X106232142Y-91285714D01*
X106303571Y-91357142D01*
X106339285Y-91464285D01*
X106339285Y-91535714D01*
X105589285Y-90571428D02*
X105589285Y-90714285D01*
X105625000Y-90785714D01*
X105660714Y-90821428D01*
X105767857Y-90892857D01*
X105910714Y-90928571D01*
X106196428Y-90928571D01*
X106267857Y-90892857D01*
X106303571Y-90857142D01*
X106339285Y-90785714D01*
X106339285Y-90642857D01*
X106303571Y-90571428D01*
X106267857Y-90535714D01*
X106196428Y-90500000D01*
X106017857Y-90500000D01*
X105946428Y-90535714D01*
X105910714Y-90571428D01*
X105875000Y-90642857D01*
X105875000Y-90785714D01*
X105910714Y-90857142D01*
X105946428Y-90892857D01*
X106017857Y-90928571D01*
%TO.C,U1*%
X73089285Y-72071428D02*
X73696428Y-72071428D01*
X73767857Y-72035714D01*
X73803571Y-72000000D01*
X73839285Y-71928571D01*
X73839285Y-71785714D01*
X73803571Y-71714285D01*
X73767857Y-71678571D01*
X73696428Y-71642857D01*
X73089285Y-71642857D01*
X73839285Y-70892857D02*
X73839285Y-71321428D01*
X73839285Y-71107142D02*
X73089285Y-71107142D01*
X73196428Y-71178571D01*
X73267857Y-71250000D01*
X73303571Y-71321428D01*
X89823809Y-74309523D02*
X89861904Y-74195238D01*
X89861904Y-74004761D01*
X89823809Y-73928571D01*
X89785714Y-73890476D01*
X89709523Y-73852380D01*
X89633333Y-73852380D01*
X89557142Y-73890476D01*
X89519047Y-73928571D01*
X89480952Y-74004761D01*
X89442857Y-74157142D01*
X89404761Y-74233333D01*
X89366666Y-74271428D01*
X89290476Y-74309523D01*
X89214285Y-74309523D01*
X89138095Y-74271428D01*
X89100000Y-74233333D01*
X89061904Y-74157142D01*
X89061904Y-73966666D01*
X89100000Y-73852380D01*
X89061904Y-73585714D02*
X89861904Y-73395238D01*
X89290476Y-73242857D01*
X89861904Y-73090476D01*
X89061904Y-72900000D01*
X89785714Y-72138095D02*
X89823809Y-72176190D01*
X89861904Y-72290476D01*
X89861904Y-72366666D01*
X89823809Y-72480952D01*
X89747619Y-72557142D01*
X89671428Y-72595238D01*
X89519047Y-72633333D01*
X89404761Y-72633333D01*
X89252380Y-72595238D01*
X89176190Y-72557142D01*
X89100000Y-72480952D01*
X89061904Y-72366666D01*
X89061904Y-72290476D01*
X89100000Y-72176190D01*
X89138095Y-72138095D01*
X89861904Y-71414285D02*
X89861904Y-71795238D01*
X89061904Y-71795238D01*
X89861904Y-71147619D02*
X89061904Y-71147619D01*
X89861904Y-70690476D02*
X89404761Y-71033333D01*
X89061904Y-70690476D02*
X89519047Y-71147619D01*
%TO.C,D1*%
X65446428Y-50339285D02*
X65446428Y-49589285D01*
X65625000Y-49589285D01*
X65732142Y-49625000D01*
X65803571Y-49696428D01*
X65839285Y-49767857D01*
X65875000Y-49910714D01*
X65875000Y-50017857D01*
X65839285Y-50160714D01*
X65803571Y-50232142D01*
X65732142Y-50303571D01*
X65625000Y-50339285D01*
X65446428Y-50339285D01*
X66589285Y-50339285D02*
X66160714Y-50339285D01*
X66375000Y-50339285D02*
X66375000Y-49589285D01*
X66303571Y-49696428D01*
X66232142Y-49767857D01*
X66160714Y-49803571D01*
%TO.C,C1*%
X80629511Y-96877857D02*
X80593796Y-96913571D01*
X80486653Y-96949285D01*
X80415225Y-96949285D01*
X80308082Y-96913571D01*
X80236653Y-96842142D01*
X80200939Y-96770714D01*
X80165225Y-96627857D01*
X80165225Y-96520714D01*
X80200939Y-96377857D01*
X80236653Y-96306428D01*
X80308082Y-96235000D01*
X80415225Y-96199285D01*
X80486653Y-96199285D01*
X80593796Y-96235000D01*
X80629511Y-96270714D01*
X81343796Y-96949285D02*
X80915225Y-96949285D01*
X81129511Y-96949285D02*
X81129511Y-96199285D01*
X81058082Y-96306428D01*
X80986653Y-96377857D01*
X80915225Y-96413571D01*
%TO.C,J9*%
X47000000Y-92589285D02*
X47000000Y-93125000D01*
X46964285Y-93232142D01*
X46892857Y-93303571D01*
X46785714Y-93339285D01*
X46714285Y-93339285D01*
X47392857Y-93339285D02*
X47535714Y-93339285D01*
X47607142Y-93303571D01*
X47642857Y-93267857D01*
X47714285Y-93160714D01*
X47750000Y-93017857D01*
X47750000Y-92732142D01*
X47714285Y-92660714D01*
X47678571Y-92625000D01*
X47607142Y-92589285D01*
X47464285Y-92589285D01*
X47392857Y-92625000D01*
X47357142Y-92660714D01*
X47321428Y-92732142D01*
X47321428Y-92910714D01*
X47357142Y-92982142D01*
X47392857Y-93017857D01*
X47464285Y-93053571D01*
X47607142Y-93053571D01*
X47678571Y-93017857D01*
X47714285Y-92982142D01*
X47750000Y-92910714D01*
%TO.C,R2*%
X66375000Y-54839285D02*
X66125000Y-54482142D01*
X65946428Y-54839285D02*
X65946428Y-54089285D01*
X66232142Y-54089285D01*
X66303571Y-54125000D01*
X66339285Y-54160714D01*
X66375000Y-54232142D01*
X66375000Y-54339285D01*
X66339285Y-54410714D01*
X66303571Y-54446428D01*
X66232142Y-54482142D01*
X65946428Y-54482142D01*
X66660714Y-54160714D02*
X66696428Y-54125000D01*
X66767857Y-54089285D01*
X66946428Y-54089285D01*
X67017857Y-54125000D01*
X67053571Y-54160714D01*
X67089285Y-54232142D01*
X67089285Y-54303571D01*
X67053571Y-54410714D01*
X66625000Y-54839285D01*
X67089285Y-54839285D01*
%TO.C,R4*%
X75625000Y-88339285D02*
X75375000Y-87982142D01*
X75196428Y-88339285D02*
X75196428Y-87589285D01*
X75482142Y-87589285D01*
X75553571Y-87625000D01*
X75589285Y-87660714D01*
X75625000Y-87732142D01*
X75625000Y-87839285D01*
X75589285Y-87910714D01*
X75553571Y-87946428D01*
X75482142Y-87982142D01*
X75196428Y-87982142D01*
X76267857Y-87839285D02*
X76267857Y-88339285D01*
X76089285Y-87553571D02*
X75910714Y-88089285D01*
X76375000Y-88089285D01*
%TO.C,J4*%
X100127380Y-68583333D02*
X100841666Y-68583333D01*
X100984523Y-68630952D01*
X101079761Y-68726190D01*
X101127380Y-68869047D01*
X101127380Y-68964285D01*
X100460714Y-67678571D02*
X101127380Y-67678571D01*
X100079761Y-67916666D02*
X100794047Y-68154761D01*
X100794047Y-67535714D01*
%TO.C,Q1*%
X66428571Y-91160714D02*
X66357142Y-91125000D01*
X66285714Y-91053571D01*
X66178571Y-90946428D01*
X66107142Y-90910714D01*
X66035714Y-90910714D01*
X66071428Y-91089285D02*
X66000000Y-91053571D01*
X65928571Y-90982142D01*
X65892857Y-90839285D01*
X65892857Y-90589285D01*
X65928571Y-90446428D01*
X66000000Y-90375000D01*
X66071428Y-90339285D01*
X66214285Y-90339285D01*
X66285714Y-90375000D01*
X66357142Y-90446428D01*
X66392857Y-90589285D01*
X66392857Y-90839285D01*
X66357142Y-90982142D01*
X66285714Y-91053571D01*
X66214285Y-91089285D01*
X66071428Y-91089285D01*
X67107142Y-91089285D02*
X66678571Y-91089285D01*
X66892857Y-91089285D02*
X66892857Y-90339285D01*
X66821428Y-90446428D01*
X66750000Y-90517857D01*
X66678571Y-90553571D01*
%TO.C,J10*%
X46142857Y-95589285D02*
X46142857Y-96125000D01*
X46107142Y-96232142D01*
X46035714Y-96303571D01*
X45928571Y-96339285D01*
X45857142Y-96339285D01*
X46892857Y-96339285D02*
X46464285Y-96339285D01*
X46678571Y-96339285D02*
X46678571Y-95589285D01*
X46607142Y-95696428D01*
X46535714Y-95767857D01*
X46464285Y-95803571D01*
X47357142Y-95589285D02*
X47428571Y-95589285D01*
X47500000Y-95625000D01*
X47535714Y-95660714D01*
X47571428Y-95732142D01*
X47607142Y-95875000D01*
X47607142Y-96053571D01*
X47571428Y-96196428D01*
X47535714Y-96267857D01*
X47500000Y-96303571D01*
X47428571Y-96339285D01*
X47357142Y-96339285D01*
X47285714Y-96303571D01*
X47250000Y-96267857D01*
X47214285Y-96196428D01*
X47178571Y-96053571D01*
X47178571Y-95875000D01*
X47214285Y-95732142D01*
X47250000Y-95660714D01*
X47285714Y-95625000D01*
X47357142Y-95589285D01*
%TO.C,U4*%
X79183082Y-93699285D02*
X79183082Y-94306428D01*
X79218796Y-94377857D01*
X79254511Y-94413571D01*
X79325939Y-94449285D01*
X79468796Y-94449285D01*
X79540225Y-94413571D01*
X79575939Y-94377857D01*
X79611653Y-94306428D01*
X79611653Y-93699285D01*
X80290225Y-93949285D02*
X80290225Y-94449285D01*
X80111653Y-93663571D02*
X79933082Y-94199285D01*
X80397368Y-94199285D01*
%TO.C,J5*%
X101589285Y-87750000D02*
X102125000Y-87750000D01*
X102232142Y-87785714D01*
X102303571Y-87857142D01*
X102339285Y-87964285D01*
X102339285Y-88035714D01*
X101589285Y-87035714D02*
X101589285Y-87392857D01*
X101946428Y-87428571D01*
X101910714Y-87392857D01*
X101875000Y-87321428D01*
X101875000Y-87142857D01*
X101910714Y-87071428D01*
X101946428Y-87035714D01*
X102017857Y-87000000D01*
X102196428Y-87000000D01*
X102267857Y-87035714D01*
X102303571Y-87071428D01*
X102339285Y-87142857D01*
X102339285Y-87321428D01*
X102303571Y-87392857D01*
X102267857Y-87428571D01*
%TO.C,J1*%
X94952380Y-52583333D02*
X95666666Y-52583333D01*
X95809523Y-52630952D01*
X95904761Y-52726190D01*
X95952380Y-52869047D01*
X95952380Y-52964285D01*
X95952380Y-51583333D02*
X95952380Y-52154761D01*
X95952380Y-51869047D02*
X94952380Y-51869047D01*
X95095238Y-51964285D01*
X95190476Y-52059523D01*
X95238095Y-52154761D01*
%TO.C,C2*%
X80629511Y-86627857D02*
X80593796Y-86663571D01*
X80486653Y-86699285D01*
X80415225Y-86699285D01*
X80308082Y-86663571D01*
X80236653Y-86592142D01*
X80200939Y-86520714D01*
X80165225Y-86377857D01*
X80165225Y-86270714D01*
X80200939Y-86127857D01*
X80236653Y-86056428D01*
X80308082Y-85985000D01*
X80415225Y-85949285D01*
X80486653Y-85949285D01*
X80593796Y-85985000D01*
X80629511Y-86020714D01*
X80915225Y-86020714D02*
X80950939Y-85985000D01*
X81022368Y-85949285D01*
X81200939Y-85949285D01*
X81272368Y-85985000D01*
X81308082Y-86020714D01*
X81343796Y-86092142D01*
X81343796Y-86163571D01*
X81308082Y-86270714D01*
X80879511Y-86699285D01*
X81343796Y-86699285D01*
%TO.C,R3*%
X72083333Y-84382380D02*
X71750000Y-83906190D01*
X71511904Y-84382380D02*
X71511904Y-83382380D01*
X71892857Y-83382380D01*
X71988095Y-83430000D01*
X72035714Y-83477619D01*
X72083333Y-83572857D01*
X72083333Y-83715714D01*
X72035714Y-83810952D01*
X71988095Y-83858571D01*
X71892857Y-83906190D01*
X71511904Y-83906190D01*
X72416666Y-83382380D02*
X73035714Y-83382380D01*
X72702380Y-83763333D01*
X72845238Y-83763333D01*
X72940476Y-83810952D01*
X72988095Y-83858571D01*
X73035714Y-83953809D01*
X73035714Y-84191904D01*
X72988095Y-84287142D01*
X72940476Y-84334761D01*
X72845238Y-84382380D01*
X72559523Y-84382380D01*
X72464285Y-84334761D01*
X72416666Y-84287142D01*
%TO.C,J7*%
X47000000Y-86589285D02*
X47000000Y-87125000D01*
X46964285Y-87232142D01*
X46892857Y-87303571D01*
X46785714Y-87339285D01*
X46714285Y-87339285D01*
X47285714Y-86589285D02*
X47785714Y-86589285D01*
X47464285Y-87339285D01*
%TO.C,J3*%
X100127380Y-59833333D02*
X100841666Y-59833333D01*
X100984523Y-59880952D01*
X101079761Y-59976190D01*
X101127380Y-60119047D01*
X101127380Y-60214285D01*
X100127380Y-59452380D02*
X100127380Y-58833333D01*
X100508333Y-59166666D01*
X100508333Y-59023809D01*
X100555952Y-58928571D01*
X100603571Y-58880952D01*
X100698809Y-58833333D01*
X100936904Y-58833333D01*
X101032142Y-58880952D01*
X101079761Y-58928571D01*
X101127380Y-59023809D01*
X101127380Y-59309523D01*
X101079761Y-59404761D01*
X101032142Y-59452380D01*
D12*
%TO.C,U5*%
X69950000Y-89650000D02*
X74550000Y-89650000D01*
X67800000Y-89750000D02*
X69600000Y-89750000D01*
X74550000Y-96850000D02*
X69950000Y-96850000D01*
X74550000Y-89650000D02*
X74550000Y-96850000D01*
X69950000Y-96850000D02*
X69950000Y-89650000D01*
D13*
%TO.C,U2*%
X84450000Y-47300000D02*
X84450000Y-49110000D01*
X82950000Y-57700000D02*
X84450000Y-57700000D01*
X84450000Y-55890000D02*
X89575000Y-55890000D01*
X82950000Y-47300000D02*
X84450000Y-47300000D01*
X84450000Y-49110000D02*
X85550000Y-49110000D01*
X84450000Y-57700000D02*
X84450000Y-55890000D01*
%TO.C,F1*%
X93754724Y-55522500D02*
X93245276Y-55522500D01*
X93754724Y-54477500D02*
X93245276Y-54477500D01*
%TO.C,U3*%
X84154511Y-92250000D02*
X82354511Y-92250000D01*
X82354511Y-95470000D02*
X84804511Y-95470000D01*
%TO.C,R1*%
X69754724Y-56977500D02*
X69245276Y-56977500D01*
X69754724Y-58022500D02*
X69245276Y-58022500D01*
%TO.C,U1*%
X99000000Y-73000000D02*
X99000000Y-72600000D01*
X63100000Y-61000000D02*
X63500000Y-61000000D01*
X80900000Y-82000000D02*
X81300000Y-82000000D01*
X93600000Y-61000000D02*
X94000000Y-61000000D01*
X50667000Y-78993000D02*
X48000000Y-78993000D01*
X96200000Y-61000000D02*
X96600000Y-61000000D01*
X58100000Y-82000000D02*
X58500000Y-82000000D01*
X68200000Y-61000000D02*
X68600000Y-61000000D01*
X91100000Y-82000000D02*
X91500000Y-82000000D01*
X99000000Y-61000000D02*
X99000000Y-67800000D01*
X75800000Y-61000000D02*
X76200000Y-61000000D01*
X80900000Y-61000000D02*
X81300000Y-61000000D01*
X99000000Y-75200000D02*
X99000000Y-82000000D01*
X78400000Y-82000000D02*
X78800000Y-82000000D01*
X65700000Y-61000000D02*
X66100000Y-61000000D01*
X78400000Y-61000000D02*
X78800000Y-61000000D01*
X93600000Y-82000000D02*
X94000000Y-82000000D01*
X68200000Y-82000000D02*
X68600000Y-82000000D01*
X60600000Y-61000000D02*
X61000000Y-61000000D01*
X58100000Y-61000000D02*
X58500000Y-61000000D01*
X50400000Y-82000000D02*
X50800000Y-82000000D01*
X73300000Y-61000000D02*
X73700000Y-61000000D01*
X75800000Y-82000000D02*
X76200000Y-82000000D01*
X83500000Y-61000000D02*
X83900000Y-61000000D01*
X53000000Y-61000000D02*
X53400000Y-61000000D01*
X70800000Y-61000000D02*
X71200000Y-61000000D01*
X50667000Y-82000000D02*
X50667000Y-78993000D01*
X55500000Y-61000000D02*
X55900000Y-61000000D01*
X91100000Y-61000000D02*
X91500000Y-61000000D01*
X53000000Y-82000000D02*
X53400000Y-82000000D01*
X73300000Y-82000000D02*
X73700000Y-82000000D01*
X50400000Y-61000000D02*
X50800000Y-61000000D01*
X48000000Y-61000000D02*
X48300000Y-61000000D01*
X70800000Y-82000000D02*
X71200000Y-82000000D01*
X99000000Y-70400000D02*
X99000000Y-70000000D01*
X48000000Y-82000000D02*
X48300000Y-82000000D01*
X86000000Y-61000000D02*
X86400000Y-61000000D01*
X83500000Y-82000000D02*
X83900000Y-82000000D01*
X60600000Y-82000000D02*
X61000000Y-82000000D01*
X86000000Y-82000000D02*
X86400000Y-82000000D01*
X88600000Y-82000000D02*
X89000000Y-82000000D01*
X96200000Y-82000000D02*
X96600000Y-82000000D01*
X55500000Y-82000000D02*
X55900000Y-82000000D01*
X88600000Y-61000000D02*
X89000000Y-61000000D01*
X63100000Y-82000000D02*
X63500000Y-82000000D01*
X65700000Y-82000000D02*
X66100000Y-82000000D01*
X48000000Y-82000000D02*
X48000000Y-61000000D01*
%TO.C,D1*%
X70800000Y-50825000D02*
X70250000Y-50825000D01*
X70800000Y-48625000D02*
X70800000Y-48675000D01*
X70800000Y-50775000D02*
X70800000Y-50825000D01*
X70800000Y-48675000D02*
X71400000Y-48675000D01*
X71400000Y-50775000D02*
X70800000Y-50775000D01*
X70250000Y-48625000D02*
X70800000Y-48625000D01*
%TO.C,C1*%
X83395091Y-97120000D02*
X83113931Y-97120000D01*
X83395091Y-96100000D02*
X83113931Y-96100000D01*
%TO.C,G1*%
G36*
X61431883Y-51252439D02*
G01*
X61522683Y-51260341D01*
X61562811Y-51277119D01*
X61565982Y-51305727D01*
X61563719Y-51312273D01*
X61542672Y-51385503D01*
X61540000Y-51408101D01*
X61504446Y-51427583D01*
X61411852Y-51444379D01*
X61299930Y-51453751D01*
X61059860Y-51465385D01*
X61011521Y-51629617D01*
X60986565Y-51733913D01*
X60980592Y-51803327D01*
X60984565Y-51815232D01*
X61032543Y-51827116D01*
X61133127Y-51834880D01*
X61218540Y-51836616D01*
X61340736Y-51840128D01*
X61400141Y-51853978D01*
X61411935Y-51883131D01*
X61407412Y-51898427D01*
X61386525Y-51966632D01*
X61383693Y-51986350D01*
X61348583Y-52002942D01*
X61258123Y-52011413D01*
X61134615Y-52012467D01*
X61000364Y-52006809D01*
X60877673Y-51995144D01*
X60788844Y-51978176D01*
X60762340Y-51966719D01*
X60731172Y-51935903D01*
X60720533Y-51891005D01*
X60730852Y-51812677D01*
X60762553Y-51681571D01*
X60769188Y-51656124D01*
X60821591Y-51475524D01*
X60876593Y-51358216D01*
X60951130Y-51290662D01*
X61062136Y-51259325D01*
X61226547Y-51250669D01*
X61276699Y-51250462D01*
X61431883Y-51252439D01*
G37*
D14*
X61431883Y-51252439D02*
X61522683Y-51260341D01*
X61562811Y-51277119D01*
X61565982Y-51305727D01*
X61563719Y-51312273D01*
X61542672Y-51385503D01*
X61540000Y-51408101D01*
X61504446Y-51427583D01*
X61411852Y-51444379D01*
X61299930Y-51453751D01*
X61059860Y-51465385D01*
X61011521Y-51629617D01*
X60986565Y-51733913D01*
X60980592Y-51803327D01*
X60984565Y-51815232D01*
X61032543Y-51827116D01*
X61133127Y-51834880D01*
X61218540Y-51836616D01*
X61340736Y-51840128D01*
X61400141Y-51853978D01*
X61411935Y-51883131D01*
X61407412Y-51898427D01*
X61386525Y-51966632D01*
X61383693Y-51986350D01*
X61348583Y-52002942D01*
X61258123Y-52011413D01*
X61134615Y-52012467D01*
X61000364Y-52006809D01*
X60877673Y-51995144D01*
X60788844Y-51978176D01*
X60762340Y-51966719D01*
X60731172Y-51935903D01*
X60720533Y-51891005D01*
X60730852Y-51812677D01*
X60762553Y-51681571D01*
X60769188Y-51656124D01*
X60821591Y-51475524D01*
X60876593Y-51358216D01*
X60951130Y-51290662D01*
X61062136Y-51259325D01*
X61226547Y-51250669D01*
X61276699Y-51250462D01*
X61431883Y-51252439D01*
G36*
X55609907Y-48561677D02*
G01*
X55666141Y-48568188D01*
X55657179Y-48579409D01*
X55610318Y-48592247D01*
X55459316Y-48649025D01*
X55380926Y-48733060D01*
X55373003Y-48848808D01*
X55423151Y-48981467D01*
X55527219Y-49122518D01*
X55701579Y-49282942D01*
X55941664Y-49459656D01*
X56242908Y-49649574D01*
X56600745Y-49849614D01*
X57010609Y-50056693D01*
X57026901Y-50064540D01*
X57195709Y-50146897D01*
X57335552Y-50217378D01*
X57433166Y-50269131D01*
X57475287Y-50295303D01*
X57476000Y-50296554D01*
X57476360Y-50305467D01*
X57468623Y-50308250D01*
X57439566Y-50300712D01*
X57375968Y-50278660D01*
X57264605Y-50237904D01*
X57104769Y-50178871D01*
X56924473Y-50110837D01*
X56747495Y-50041580D01*
X56603441Y-49982763D01*
X56564222Y-49965899D01*
X56442972Y-49913259D01*
X56376750Y-49889959D01*
X56348917Y-49894157D01*
X56342837Y-49924011D01*
X56342769Y-49941385D01*
X56331549Y-49985834D01*
X56289311Y-49994617D01*
X56203186Y-49966344D01*
X56089815Y-49914060D01*
X55978151Y-49850792D01*
X55924539Y-49791363D01*
X55911846Y-49728445D01*
X55895831Y-49663052D01*
X55840718Y-49595758D01*
X55733667Y-49512735D01*
X55674089Y-49472462D01*
X55489973Y-49336989D01*
X55324338Y-49189375D01*
X55188756Y-49042384D01*
X55094800Y-48908781D01*
X55054042Y-48801330D01*
X55053231Y-48787683D01*
X55079084Y-48677163D01*
X55160618Y-48604322D01*
X55303792Y-48565969D01*
X55482003Y-48558154D01*
X55609907Y-48561677D01*
G37*
X55609907Y-48561677D02*
X55666141Y-48568188D01*
X55657179Y-48579409D01*
X55610318Y-48592247D01*
X55459316Y-48649025D01*
X55380926Y-48733060D01*
X55373003Y-48848808D01*
X55423151Y-48981467D01*
X55527219Y-49122518D01*
X55701579Y-49282942D01*
X55941664Y-49459656D01*
X56242908Y-49649574D01*
X56600745Y-49849614D01*
X57010609Y-50056693D01*
X57026901Y-50064540D01*
X57195709Y-50146897D01*
X57335552Y-50217378D01*
X57433166Y-50269131D01*
X57475287Y-50295303D01*
X57476000Y-50296554D01*
X57476360Y-50305467D01*
X57468623Y-50308250D01*
X57439566Y-50300712D01*
X57375968Y-50278660D01*
X57264605Y-50237904D01*
X57104769Y-50178871D01*
X56924473Y-50110837D01*
X56747495Y-50041580D01*
X56603441Y-49982763D01*
X56564222Y-49965899D01*
X56442972Y-49913259D01*
X56376750Y-49889959D01*
X56348917Y-49894157D01*
X56342837Y-49924011D01*
X56342769Y-49941385D01*
X56331549Y-49985834D01*
X56289311Y-49994617D01*
X56203186Y-49966344D01*
X56089815Y-49914060D01*
X55978151Y-49850792D01*
X55924539Y-49791363D01*
X55911846Y-49728445D01*
X55895831Y-49663052D01*
X55840718Y-49595758D01*
X55733667Y-49512735D01*
X55674089Y-49472462D01*
X55489973Y-49336989D01*
X55324338Y-49189375D01*
X55188756Y-49042384D01*
X55094800Y-48908781D01*
X55054042Y-48801330D01*
X55053231Y-48787683D01*
X55079084Y-48677163D01*
X55160618Y-48604322D01*
X55303792Y-48565969D01*
X55482003Y-48558154D01*
X55609907Y-48561677D01*
G36*
X60990328Y-49248597D02*
G01*
X61047275Y-49074775D01*
X61102835Y-48944255D01*
X61161327Y-48845860D01*
X61227074Y-48768416D01*
X61251612Y-48745087D01*
X61345449Y-48672298D01*
X61451340Y-48619969D01*
X61583594Y-48585069D01*
X61756525Y-48564568D01*
X61984442Y-48555436D01*
X62153464Y-48554154D01*
X62416275Y-48558341D01*
X62612767Y-48572769D01*
X62754420Y-48600237D01*
X62852714Y-48643546D01*
X62919128Y-48705497D01*
X62945611Y-48747374D01*
X62977084Y-48862390D01*
X62983412Y-49025310D01*
X62964726Y-49210085D01*
X62942761Y-49315886D01*
X62931726Y-49365737D01*
X62921576Y-49405599D01*
X62904315Y-49439423D01*
X62871948Y-49471161D01*
X62816481Y-49504766D01*
X62729917Y-49544188D01*
X62604263Y-49593379D01*
X62431523Y-49656292D01*
X62203702Y-49736878D01*
X61912805Y-49839089D01*
X61813539Y-49874032D01*
X61606852Y-49947427D01*
X61462709Y-50001582D01*
X61369845Y-50042958D01*
X61316994Y-50078012D01*
X61292893Y-50113204D01*
X61286275Y-50154990D01*
X61286000Y-50176493D01*
X61286000Y-50293077D01*
X61979616Y-50303748D01*
X62202657Y-50309057D01*
X62395914Y-50317244D01*
X62546968Y-50327486D01*
X62643402Y-50338964D01*
X62673231Y-50349613D01*
X62665010Y-50405286D01*
X62643988Y-50509106D01*
X62627443Y-50583173D01*
X62581654Y-50781539D01*
X61816596Y-50780963D01*
X61502809Y-50778498D01*
X61262597Y-50771465D01*
X61091503Y-50759610D01*
X60985068Y-50742678D01*
X60953846Y-50731808D01*
X60874365Y-50665841D01*
X60798386Y-50562358D01*
X60782417Y-50532534D01*
X60708681Y-50381837D01*
X60854988Y-49770842D01*
X60904546Y-49570420D01*
X61414022Y-49570420D01*
X61947366Y-49384672D01*
X62158461Y-49309827D01*
X62305667Y-49253475D01*
X62399529Y-49210286D01*
X62450592Y-49174931D01*
X62469400Y-49142080D01*
X62469509Y-49120770D01*
X62457052Y-49083398D01*
X62422504Y-49059282D01*
X62350648Y-49044713D01*
X62226269Y-49035983D01*
X62103032Y-49031462D01*
X61874631Y-49029522D01*
X61710645Y-49045577D01*
X61597993Y-49087480D01*
X61523596Y-49163086D01*
X61474376Y-49280251D01*
X61440487Y-49429346D01*
X61414022Y-49570420D01*
X60904546Y-49570420D01*
X60927673Y-49476894D01*
X60990328Y-49248597D01*
G37*
X60990328Y-49248597D02*
X61047275Y-49074775D01*
X61102835Y-48944255D01*
X61161327Y-48845860D01*
X61227074Y-48768416D01*
X61251612Y-48745087D01*
X61345449Y-48672298D01*
X61451340Y-48619969D01*
X61583594Y-48585069D01*
X61756525Y-48564568D01*
X61984442Y-48555436D01*
X62153464Y-48554154D01*
X62416275Y-48558341D01*
X62612767Y-48572769D01*
X62754420Y-48600237D01*
X62852714Y-48643546D01*
X62919128Y-48705497D01*
X62945611Y-48747374D01*
X62977084Y-48862390D01*
X62983412Y-49025310D01*
X62964726Y-49210085D01*
X62942761Y-49315886D01*
X62931726Y-49365737D01*
X62921576Y-49405599D01*
X62904315Y-49439423D01*
X62871948Y-49471161D01*
X62816481Y-49504766D01*
X62729917Y-49544188D01*
X62604263Y-49593379D01*
X62431523Y-49656292D01*
X62203702Y-49736878D01*
X61912805Y-49839089D01*
X61813539Y-49874032D01*
X61606852Y-49947427D01*
X61462709Y-50001582D01*
X61369845Y-50042958D01*
X61316994Y-50078012D01*
X61292893Y-50113204D01*
X61286275Y-50154990D01*
X61286000Y-50176493D01*
X61286000Y-50293077D01*
X61979616Y-50303748D01*
X62202657Y-50309057D01*
X62395914Y-50317244D01*
X62546968Y-50327486D01*
X62643402Y-50338964D01*
X62673231Y-50349613D01*
X62665010Y-50405286D01*
X62643988Y-50509106D01*
X62627443Y-50583173D01*
X62581654Y-50781539D01*
X61816596Y-50780963D01*
X61502809Y-50778498D01*
X61262597Y-50771465D01*
X61091503Y-50759610D01*
X60985068Y-50742678D01*
X60953846Y-50731808D01*
X60874365Y-50665841D01*
X60798386Y-50562358D01*
X60782417Y-50532534D01*
X60708681Y-50381837D01*
X60854988Y-49770842D01*
X60904546Y-49570420D01*
X61414022Y-49570420D01*
X61947366Y-49384672D01*
X62158461Y-49309827D01*
X62305667Y-49253475D01*
X62399529Y-49210286D01*
X62450592Y-49174931D01*
X62469400Y-49142080D01*
X62469509Y-49120770D01*
X62457052Y-49083398D01*
X62422504Y-49059282D01*
X62350648Y-49044713D01*
X62226269Y-49035983D01*
X62103032Y-49031462D01*
X61874631Y-49029522D01*
X61710645Y-49045577D01*
X61597993Y-49087480D01*
X61523596Y-49163086D01*
X61474376Y-49280251D01*
X61440487Y-49429346D01*
X61414022Y-49570420D01*
X60904546Y-49570420D01*
X60927673Y-49476894D01*
X60990328Y-49248597D01*
G36*
X57430738Y-48183820D02*
G01*
X57628490Y-48208380D01*
X57744432Y-48222937D01*
X58003184Y-48258614D01*
X58197761Y-48295471D01*
X58342072Y-48337986D01*
X58450026Y-48390638D01*
X58535532Y-48457905D01*
X58563648Y-48486726D01*
X58625668Y-48567862D01*
X58668300Y-48661642D01*
X58690906Y-48776392D01*
X58692849Y-48920440D01*
X58673490Y-49102112D01*
X58632190Y-49329734D01*
X58568313Y-49611632D01*
X58481220Y-49956134D01*
X58438700Y-50117231D01*
X58384050Y-50318306D01*
X58342621Y-50455755D01*
X58308885Y-50541821D01*
X58277312Y-50588749D01*
X58242371Y-50608784D01*
X58214696Y-50613228D01*
X58125558Y-50613801D01*
X58081693Y-50606877D01*
X58016263Y-50588507D01*
X57939674Y-50570424D01*
X57836732Y-50547857D01*
X58007888Y-49892929D01*
X58081060Y-49606066D01*
X58132507Y-49383677D01*
X58163017Y-49215396D01*
X58173376Y-49090854D01*
X58164368Y-48999685D01*
X58136781Y-48931520D01*
X58091401Y-48875993D01*
X58085424Y-48870275D01*
X58026714Y-48827706D01*
X57943282Y-48794055D01*
X57819464Y-48765057D01*
X57639594Y-48736447D01*
X57548894Y-48724216D01*
X57373120Y-48700715D01*
X57229006Y-48680406D01*
X57132270Y-48665574D01*
X57098634Y-48658737D01*
X57097875Y-48619083D01*
X57103526Y-48523328D01*
X57113053Y-48407215D01*
X57120787Y-48308853D01*
X57131082Y-48239474D01*
X57155581Y-48195680D01*
X57205927Y-48174072D01*
X57293765Y-48171251D01*
X57430738Y-48183820D01*
G37*
X57430738Y-48183820D02*
X57628490Y-48208380D01*
X57744432Y-48222937D01*
X58003184Y-48258614D01*
X58197761Y-48295471D01*
X58342072Y-48337986D01*
X58450026Y-48390638D01*
X58535532Y-48457905D01*
X58563648Y-48486726D01*
X58625668Y-48567862D01*
X58668300Y-48661642D01*
X58690906Y-48776392D01*
X58692849Y-48920440D01*
X58673490Y-49102112D01*
X58632190Y-49329734D01*
X58568313Y-49611632D01*
X58481220Y-49956134D01*
X58438700Y-50117231D01*
X58384050Y-50318306D01*
X58342621Y-50455755D01*
X58308885Y-50541821D01*
X58277312Y-50588749D01*
X58242371Y-50608784D01*
X58214696Y-50613228D01*
X58125558Y-50613801D01*
X58081693Y-50606877D01*
X58016263Y-50588507D01*
X57939674Y-50570424D01*
X57836732Y-50547857D01*
X58007888Y-49892929D01*
X58081060Y-49606066D01*
X58132507Y-49383677D01*
X58163017Y-49215396D01*
X58173376Y-49090854D01*
X58164368Y-48999685D01*
X58136781Y-48931520D01*
X58091401Y-48875993D01*
X58085424Y-48870275D01*
X58026714Y-48827706D01*
X57943282Y-48794055D01*
X57819464Y-48765057D01*
X57639594Y-48736447D01*
X57548894Y-48724216D01*
X57373120Y-48700715D01*
X57229006Y-48680406D01*
X57132270Y-48665574D01*
X57098634Y-48658737D01*
X57097875Y-48619083D01*
X57103526Y-48523328D01*
X57113053Y-48407215D01*
X57120787Y-48308853D01*
X57131082Y-48239474D01*
X57155581Y-48195680D01*
X57205927Y-48174072D01*
X57293765Y-48171251D01*
X57430738Y-48183820D01*
G36*
X57365795Y-48877888D02*
G01*
X57476000Y-48905847D01*
X57525521Y-48925256D01*
X57512236Y-48935587D01*
X57429073Y-48940479D01*
X57407616Y-48941028D01*
X57306248Y-48935228D01*
X57247467Y-48916039D01*
X57241539Y-48905847D01*
X57274685Y-48874958D01*
X57365795Y-48877888D01*
G37*
X57365795Y-48877888D02*
X57476000Y-48905847D01*
X57525521Y-48925256D01*
X57512236Y-48935587D01*
X57429073Y-48940479D01*
X57407616Y-48941028D01*
X57306248Y-48935228D01*
X57247467Y-48916039D01*
X57241539Y-48905847D01*
X57274685Y-48874958D01*
X57365795Y-48877888D01*
G36*
X59034933Y-51459775D02*
G01*
X59103489Y-51344132D01*
X59200868Y-51279848D01*
X59343178Y-51253563D01*
X59448929Y-51250462D01*
X59617446Y-51257897D01*
X59719236Y-51288871D01*
X59765016Y-51356386D01*
X59765499Y-51473447D01*
X59741697Y-51605756D01*
X59694104Y-51788632D01*
X59634944Y-51907851D01*
X59549896Y-51977862D01*
X59424634Y-52013115D01*
X59327726Y-52023341D01*
X59181146Y-52027754D01*
X59084493Y-52011757D01*
X59011134Y-51970650D01*
X59005981Y-51966547D01*
X58915210Y-51893045D01*
X58961915Y-51708134D01*
X59198870Y-51708134D01*
X59202049Y-51791320D01*
X59251050Y-51829946D01*
X59313583Y-51836616D01*
X59412256Y-51817069D01*
X59463882Y-51749466D01*
X59464169Y-51748693D01*
X59498931Y-51640658D01*
X59522561Y-51553308D01*
X59533634Y-51480984D01*
X59505634Y-51451530D01*
X59419425Y-51445849D01*
X59414875Y-51445847D01*
X59317854Y-51457068D01*
X59264787Y-51505960D01*
X59238284Y-51568909D01*
X59198870Y-51708134D01*
X58961915Y-51708134D01*
X58979090Y-51640138D01*
X59034933Y-51459775D01*
G37*
X59034933Y-51459775D02*
X59103489Y-51344132D01*
X59200868Y-51279848D01*
X59343178Y-51253563D01*
X59448929Y-51250462D01*
X59617446Y-51257897D01*
X59719236Y-51288871D01*
X59765016Y-51356386D01*
X59765499Y-51473447D01*
X59741697Y-51605756D01*
X59694104Y-51788632D01*
X59634944Y-51907851D01*
X59549896Y-51977862D01*
X59424634Y-52013115D01*
X59327726Y-52023341D01*
X59181146Y-52027754D01*
X59084493Y-52011757D01*
X59011134Y-51970650D01*
X59005981Y-51966547D01*
X58915210Y-51893045D01*
X58961915Y-51708134D01*
X59198870Y-51708134D01*
X59202049Y-51791320D01*
X59251050Y-51829946D01*
X59313583Y-51836616D01*
X59412256Y-51817069D01*
X59463882Y-51749466D01*
X59464169Y-51748693D01*
X59498931Y-51640658D01*
X59522561Y-51553308D01*
X59533634Y-51480984D01*
X59505634Y-51451530D01*
X59419425Y-51445849D01*
X59414875Y-51445847D01*
X59317854Y-51457068D01*
X59264787Y-51505960D01*
X59238284Y-51568909D01*
X59198870Y-51708134D01*
X58961915Y-51708134D01*
X58979090Y-51640138D01*
X59034933Y-51459775D01*
G36*
X56352315Y-48059483D02*
G01*
X56381227Y-48107432D01*
X56381846Y-48121112D01*
X56364144Y-48241874D01*
X56303352Y-48303800D01*
X56201075Y-48319693D01*
X56112506Y-48314470D01*
X56082787Y-48286024D01*
X56092722Y-48215192D01*
X56093428Y-48212231D01*
X56123025Y-48108528D01*
X56160338Y-48060433D01*
X56227516Y-48046745D01*
X56266922Y-48046154D01*
X56352315Y-48059483D01*
G37*
X56352315Y-48059483D02*
X56381227Y-48107432D01*
X56381846Y-48121112D01*
X56364144Y-48241874D01*
X56303352Y-48303800D01*
X56201075Y-48319693D01*
X56112506Y-48314470D01*
X56082787Y-48286024D01*
X56092722Y-48215192D01*
X56093428Y-48212231D01*
X56123025Y-48108528D01*
X56160338Y-48060433D01*
X56227516Y-48046745D01*
X56266922Y-48046154D01*
X56352315Y-48059483D01*
G36*
X56723701Y-47740945D02*
G01*
X56819188Y-47754260D01*
X56857705Y-47785992D01*
X56860414Y-47856352D01*
X56859152Y-47870308D01*
X56841028Y-47993918D01*
X56805141Y-48058279D01*
X56733676Y-48082297D01*
X56656611Y-48085231D01*
X56553472Y-48078550D01*
X56507767Y-48052089D01*
X56499077Y-48009621D01*
X56512927Y-47915526D01*
X56538085Y-47831412D01*
X56575097Y-47763689D01*
X56634242Y-47738920D01*
X56723701Y-47740945D01*
G37*
X56723701Y-47740945D02*
X56819188Y-47754260D01*
X56857705Y-47785992D01*
X56860414Y-47856352D01*
X56859152Y-47870308D01*
X56841028Y-47993918D01*
X56805141Y-48058279D01*
X56733676Y-48082297D01*
X56656611Y-48085231D01*
X56553472Y-48078550D01*
X56507767Y-48052089D01*
X56499077Y-48009621D01*
X56512927Y-47915526D01*
X56538085Y-47831412D01*
X56575097Y-47763689D01*
X56634242Y-47738920D01*
X56723701Y-47740945D01*
G36*
X56912075Y-48444448D02*
G01*
X56893294Y-48565422D01*
X56874637Y-48653340D01*
X56865658Y-48678909D01*
X56819169Y-48695651D01*
X56718267Y-48707092D01*
X56610567Y-48710462D01*
X56374977Y-48710462D01*
X56400805Y-48544385D01*
X56425808Y-48393176D01*
X56453138Y-48303123D01*
X56498552Y-48258389D01*
X56577805Y-48243140D01*
X56702129Y-48241539D01*
X56938992Y-48241539D01*
X56912075Y-48444448D01*
G37*
X56912075Y-48444448D02*
X56893294Y-48565422D01*
X56874637Y-48653340D01*
X56865658Y-48678909D01*
X56819169Y-48695651D01*
X56718267Y-48707092D01*
X56610567Y-48710462D01*
X56374977Y-48710462D01*
X56400805Y-48544385D01*
X56425808Y-48393176D01*
X56453138Y-48303123D01*
X56498552Y-48258389D01*
X56577805Y-48243140D01*
X56702129Y-48241539D01*
X56938992Y-48241539D01*
X56912075Y-48444448D01*
G36*
X56238024Y-48802874D02*
G01*
X56321805Y-48881466D01*
X56449560Y-48913217D01*
X56550137Y-48931348D01*
X56584736Y-48967024D01*
X56583528Y-48984000D01*
X56553449Y-49111241D01*
X56516937Y-49257359D01*
X56479293Y-49402232D01*
X56445819Y-49525735D01*
X56421814Y-49607748D01*
X56413420Y-49629760D01*
X56377713Y-49615798D01*
X56298373Y-49566343D01*
X56215301Y-49508371D01*
X56114333Y-49423852D01*
X56048287Y-49346720D01*
X56032407Y-49306005D01*
X56043056Y-49235272D01*
X56068814Y-49115151D01*
X56104108Y-48971622D01*
X56104179Y-48971350D01*
X56173698Y-48704700D01*
X56238024Y-48802874D01*
G37*
X56238024Y-48802874D02*
X56321805Y-48881466D01*
X56449560Y-48913217D01*
X56550137Y-48931348D01*
X56584736Y-48967024D01*
X56583528Y-48984000D01*
X56553449Y-49111241D01*
X56516937Y-49257359D01*
X56479293Y-49402232D01*
X56445819Y-49525735D01*
X56421814Y-49607748D01*
X56413420Y-49629760D01*
X56377713Y-49615798D01*
X56298373Y-49566343D01*
X56215301Y-49508371D01*
X56114333Y-49423852D01*
X56048287Y-49346720D01*
X56032407Y-49306005D01*
X56043056Y-49235272D01*
X56068814Y-49115151D01*
X56104108Y-48971622D01*
X56104179Y-48971350D01*
X56173698Y-48704700D01*
X56238024Y-48802874D01*
G36*
X60690437Y-51265785D02*
G01*
X60719385Y-51299432D01*
X60707097Y-51381501D01*
X60675405Y-51505953D01*
X60632071Y-51648682D01*
X60584854Y-51785579D01*
X60541515Y-51892538D01*
X60512084Y-51943433D01*
X60442511Y-51974039D01*
X60321774Y-51994858D01*
X60176371Y-52004866D01*
X60032800Y-52003040D01*
X59917558Y-51988357D01*
X59865794Y-51968392D01*
X59837166Y-51939536D01*
X59825883Y-51895827D01*
X59832660Y-51820257D01*
X59858214Y-51695814D01*
X59881457Y-51596494D01*
X59920239Y-51438756D01*
X59950806Y-51341581D01*
X59982536Y-51289385D01*
X60024808Y-51266583D01*
X60085300Y-51257755D01*
X60171204Y-51252748D01*
X60211043Y-51257001D01*
X60211385Y-51257880D01*
X60201441Y-51298670D01*
X60175216Y-51394775D01*
X60138118Y-51526425D01*
X60133231Y-51543539D01*
X60095200Y-51678084D01*
X60067397Y-51779417D01*
X60055230Y-51827781D01*
X60055077Y-51829081D01*
X60089484Y-51834100D01*
X60174824Y-51831209D01*
X60201477Y-51829205D01*
X60276588Y-51820384D01*
X60325289Y-51798205D01*
X60360122Y-51746110D01*
X60393631Y-51647542D01*
X60425271Y-51533770D01*
X60466905Y-51389031D01*
X60500394Y-51304290D01*
X60536174Y-51263631D01*
X60584679Y-51251138D01*
X60611025Y-51250462D01*
X60690437Y-51265785D01*
G37*
X60690437Y-51265785D02*
X60719385Y-51299432D01*
X60707097Y-51381501D01*
X60675405Y-51505953D01*
X60632071Y-51648682D01*
X60584854Y-51785579D01*
X60541515Y-51892538D01*
X60512084Y-51943433D01*
X60442511Y-51974039D01*
X60321774Y-51994858D01*
X60176371Y-52004866D01*
X60032800Y-52003040D01*
X59917558Y-51988357D01*
X59865794Y-51968392D01*
X59837166Y-51939536D01*
X59825883Y-51895827D01*
X59832660Y-51820257D01*
X59858214Y-51695814D01*
X59881457Y-51596494D01*
X59920239Y-51438756D01*
X59950806Y-51341581D01*
X59982536Y-51289385D01*
X60024808Y-51266583D01*
X60085300Y-51257755D01*
X60171204Y-51252748D01*
X60211043Y-51257001D01*
X60211385Y-51257880D01*
X60201441Y-51298670D01*
X60175216Y-51394775D01*
X60138118Y-51526425D01*
X60133231Y-51543539D01*
X60095200Y-51678084D01*
X60067397Y-51779417D01*
X60055230Y-51827781D01*
X60055077Y-51829081D01*
X60089484Y-51834100D01*
X60174824Y-51831209D01*
X60201477Y-51829205D01*
X60276588Y-51820384D01*
X60325289Y-51798205D01*
X60360122Y-51746110D01*
X60393631Y-51647542D01*
X60425271Y-51533770D01*
X60466905Y-51389031D01*
X60500394Y-51304290D01*
X60536174Y-51263631D01*
X60584679Y-51251138D01*
X60611025Y-51250462D01*
X60690437Y-51265785D01*
G36*
X56417539Y-47704092D02*
G01*
X56436549Y-47747810D01*
X56430487Y-47792154D01*
X56398646Y-47865023D01*
X56325194Y-47889132D01*
X56299137Y-47889847D01*
X56218802Y-47879063D01*
X56186462Y-47853966D01*
X56216379Y-47749231D01*
X56301101Y-47698200D01*
X56341531Y-47694462D01*
X56417539Y-47704092D01*
G37*
X56417539Y-47704092D02*
X56436549Y-47747810D01*
X56430487Y-47792154D01*
X56398646Y-47865023D01*
X56325194Y-47889132D01*
X56299137Y-47889847D01*
X56218802Y-47879063D01*
X56186462Y-47853966D01*
X56216379Y-47749231D01*
X56301101Y-47698200D01*
X56341531Y-47694462D01*
X56417539Y-47704092D01*
G36*
X58818157Y-51251346D02*
G01*
X58921554Y-51256469D01*
X58975634Y-51269539D01*
X58994815Y-51294262D01*
X58993514Y-51334347D01*
X58992949Y-51338385D01*
X58961978Y-51405637D01*
X58880702Y-51435474D01*
X58857031Y-51438287D01*
X58792599Y-51449016D01*
X58749166Y-51477108D01*
X58715361Y-51539340D01*
X58679813Y-51652487D01*
X58658376Y-51731364D01*
X58618042Y-51875296D01*
X58585072Y-51960231D01*
X58547786Y-52002967D01*
X58494503Y-52020304D01*
X58454140Y-52025101D01*
X58367715Y-52026567D01*
X58342178Y-52002732D01*
X58347785Y-51978699D01*
X58371302Y-51905472D01*
X58402939Y-51793123D01*
X58414008Y-51751137D01*
X58445526Y-51631061D01*
X58471647Y-51534628D01*
X58477421Y-51514231D01*
X58474294Y-51462722D01*
X58412697Y-51446101D01*
X58396941Y-51445847D01*
X58321249Y-51430670D01*
X58297247Y-51370183D01*
X58296616Y-51348154D01*
X58299384Y-51302050D01*
X58317675Y-51273359D01*
X58366472Y-51257952D01*
X58460757Y-51251698D01*
X58615511Y-51250468D01*
X58651026Y-51250462D01*
X58818157Y-51251346D01*
G37*
X58818157Y-51251346D02*
X58921554Y-51256469D01*
X58975634Y-51269539D01*
X58994815Y-51294262D01*
X58993514Y-51334347D01*
X58992949Y-51338385D01*
X58961978Y-51405637D01*
X58880702Y-51435474D01*
X58857031Y-51438287D01*
X58792599Y-51449016D01*
X58749166Y-51477108D01*
X58715361Y-51539340D01*
X58679813Y-51652487D01*
X58658376Y-51731364D01*
X58618042Y-51875296D01*
X58585072Y-51960231D01*
X58547786Y-52002967D01*
X58494503Y-52020304D01*
X58454140Y-52025101D01*
X58367715Y-52026567D01*
X58342178Y-52002732D01*
X58347785Y-51978699D01*
X58371302Y-51905472D01*
X58402939Y-51793123D01*
X58414008Y-51751137D01*
X58445526Y-51631061D01*
X58471647Y-51534628D01*
X58477421Y-51514231D01*
X58474294Y-51462722D01*
X58412697Y-51446101D01*
X58396941Y-51445847D01*
X58321249Y-51430670D01*
X58297247Y-51370183D01*
X58296616Y-51348154D01*
X58299384Y-51302050D01*
X58317675Y-51273359D01*
X58366472Y-51257952D01*
X58460757Y-51251698D01*
X58615511Y-51250468D01*
X58651026Y-51250462D01*
X58818157Y-51251346D01*
G36*
X56885513Y-51024043D02*
G01*
X57023354Y-51043560D01*
X57117820Y-51071489D01*
X57152693Y-51104340D01*
X57151850Y-51109275D01*
X57130834Y-51139534D01*
X57082861Y-51153859D01*
X56991932Y-51153565D01*
X56842044Y-51139968D01*
X56814727Y-51136999D01*
X56685124Y-51113427D01*
X56605556Y-51081597D01*
X56582270Y-51049503D01*
X56621514Y-51025140D01*
X56720513Y-51016430D01*
X56885513Y-51024043D01*
G37*
X56885513Y-51024043D02*
X57023354Y-51043560D01*
X57117820Y-51071489D01*
X57152693Y-51104340D01*
X57151850Y-51109275D01*
X57130834Y-51139534D01*
X57082861Y-51153859D01*
X56991932Y-51153565D01*
X56842044Y-51139968D01*
X56814727Y-51136999D01*
X56685124Y-51113427D01*
X56605556Y-51081597D01*
X56582270Y-51049503D01*
X56621514Y-51025140D01*
X56720513Y-51016430D01*
X56885513Y-51024043D01*
G36*
X55642011Y-50799947D02*
G01*
X55706031Y-50532612D01*
X55851820Y-49951532D01*
X55735833Y-49857432D01*
X55731800Y-49843670D01*
X55789346Y-49861142D01*
X55900024Y-49906376D01*
X56055387Y-49975901D01*
X56246988Y-50066245D01*
X56264616Y-50074744D01*
X56655221Y-50254012D01*
X57054933Y-50420240D01*
X57446377Y-50567044D01*
X57812180Y-50688037D01*
X58134968Y-50776835D01*
X58236860Y-50799601D01*
X58565775Y-50849507D01*
X58841918Y-50853205D01*
X59062231Y-50811202D01*
X59223651Y-50724004D01*
X59308262Y-50622169D01*
X59341273Y-50544460D01*
X59335623Y-50472413D01*
X59300052Y-50387707D01*
X59235996Y-50254000D01*
X59371998Y-50407049D01*
X59480199Y-50567850D01*
X59513694Y-50719718D01*
X59472336Y-50858085D01*
X59389619Y-50952356D01*
X59260346Y-51034328D01*
X59103336Y-51078888D01*
X58902352Y-51088988D01*
X58711834Y-51075606D01*
X58506348Y-51054060D01*
X58364810Y-51042822D01*
X58273249Y-51046164D01*
X58217694Y-51068355D01*
X58184173Y-51113668D01*
X58158715Y-51186373D01*
X58139836Y-51250462D01*
X58063591Y-51470636D01*
X57980041Y-51635242D01*
X57876458Y-51766681D01*
X57811218Y-51828683D01*
X57711300Y-51907453D01*
X57608531Y-51964731D01*
X57491206Y-52001678D01*
X57347624Y-52019457D01*
X57166079Y-52019228D01*
X56934869Y-52002155D01*
X56642289Y-51969398D01*
X56532440Y-51955621D01*
X56249631Y-51914345D01*
X56033715Y-51869237D01*
X55873433Y-51815856D01*
X55757527Y-51749759D01*
X55674738Y-51666502D01*
X55633196Y-51600791D01*
X55590125Y-51496640D01*
X55568668Y-51376258D01*
X55569628Y-51227866D01*
X55588712Y-51079341D01*
X56087635Y-51079341D01*
X56105766Y-51215788D01*
X56169373Y-51310708D01*
X56284417Y-51374630D01*
X56456859Y-51418087D01*
X56618291Y-51442407D01*
X56931510Y-51474661D01*
X57175653Y-51480893D01*
X57355414Y-51460891D01*
X57475486Y-51414447D01*
X57491050Y-51403319D01*
X57630959Y-51243995D01*
X57716909Y-51030011D01*
X57728440Y-50975573D01*
X57753118Y-50840154D01*
X57448482Y-50727574D01*
X57283538Y-50661730D01*
X57079023Y-50572953D01*
X56864674Y-50474430D01*
X56721603Y-50405190D01*
X56557520Y-50324184D01*
X56420866Y-50257709D01*
X56325681Y-50212527D01*
X56286004Y-50195395D01*
X56285848Y-50195385D01*
X56271899Y-50230926D01*
X56244002Y-50327621D01*
X56206240Y-50470579D01*
X56163960Y-50639741D01*
X56109020Y-50890836D01*
X56087635Y-51079341D01*
X55588712Y-51079341D01*
X55593808Y-51039689D01*
X55642011Y-50799947D01*
G37*
X55642011Y-50799947D02*
X55706031Y-50532612D01*
X55851820Y-49951532D01*
X55735833Y-49857432D01*
X55731800Y-49843670D01*
X55789346Y-49861142D01*
X55900024Y-49906376D01*
X56055387Y-49975901D01*
X56246988Y-50066245D01*
X56264616Y-50074744D01*
X56655221Y-50254012D01*
X57054933Y-50420240D01*
X57446377Y-50567044D01*
X57812180Y-50688037D01*
X58134968Y-50776835D01*
X58236860Y-50799601D01*
X58565775Y-50849507D01*
X58841918Y-50853205D01*
X59062231Y-50811202D01*
X59223651Y-50724004D01*
X59308262Y-50622169D01*
X59341273Y-50544460D01*
X59335623Y-50472413D01*
X59300052Y-50387707D01*
X59235996Y-50254000D01*
X59371998Y-50407049D01*
X59480199Y-50567850D01*
X59513694Y-50719718D01*
X59472336Y-50858085D01*
X59389619Y-50952356D01*
X59260346Y-51034328D01*
X59103336Y-51078888D01*
X58902352Y-51088988D01*
X58711834Y-51075606D01*
X58506348Y-51054060D01*
X58364810Y-51042822D01*
X58273249Y-51046164D01*
X58217694Y-51068355D01*
X58184173Y-51113668D01*
X58158715Y-51186373D01*
X58139836Y-51250462D01*
X58063591Y-51470636D01*
X57980041Y-51635242D01*
X57876458Y-51766681D01*
X57811218Y-51828683D01*
X57711300Y-51907453D01*
X57608531Y-51964731D01*
X57491206Y-52001678D01*
X57347624Y-52019457D01*
X57166079Y-52019228D01*
X56934869Y-52002155D01*
X56642289Y-51969398D01*
X56532440Y-51955621D01*
X56249631Y-51914345D01*
X56033715Y-51869237D01*
X55873433Y-51815856D01*
X55757527Y-51749759D01*
X55674738Y-51666502D01*
X55633196Y-51600791D01*
X55590125Y-51496640D01*
X55568668Y-51376258D01*
X55569628Y-51227866D01*
X55588712Y-51079341D01*
X56087635Y-51079341D01*
X56105766Y-51215788D01*
X56169373Y-51310708D01*
X56284417Y-51374630D01*
X56456859Y-51418087D01*
X56618291Y-51442407D01*
X56931510Y-51474661D01*
X57175653Y-51480893D01*
X57355414Y-51460891D01*
X57475486Y-51414447D01*
X57491050Y-51403319D01*
X57630959Y-51243995D01*
X57716909Y-51030011D01*
X57728440Y-50975573D01*
X57753118Y-50840154D01*
X57448482Y-50727574D01*
X57283538Y-50661730D01*
X57079023Y-50572953D01*
X56864674Y-50474430D01*
X56721603Y-50405190D01*
X56557520Y-50324184D01*
X56420866Y-50257709D01*
X56325681Y-50212527D01*
X56286004Y-50195395D01*
X56285848Y-50195385D01*
X56271899Y-50230926D01*
X56244002Y-50327621D01*
X56206240Y-50470579D01*
X56163960Y-50639741D01*
X56109020Y-50890836D01*
X56087635Y-51079341D01*
X55588712Y-51079341D01*
X55593808Y-51039689D01*
X55642011Y-50799947D01*
G36*
X60253283Y-48557243D02*
G01*
X60455514Y-48571209D01*
X60610811Y-48603104D01*
X60722341Y-48659979D01*
X60793273Y-48748884D01*
X60826776Y-48876871D01*
X60826020Y-49050991D01*
X60794173Y-49278294D01*
X60734404Y-49565831D01*
X60649882Y-49920654D01*
X60637585Y-49970693D01*
X60437956Y-50781539D01*
X60185268Y-50781539D01*
X60049181Y-50779137D01*
X59975744Y-50768899D01*
X59949518Y-50746281D01*
X59953048Y-50713154D01*
X59986584Y-50593316D01*
X60029745Y-50427808D01*
X60078923Y-50231782D01*
X60130511Y-50020389D01*
X60180901Y-49808779D01*
X60226486Y-49612104D01*
X60263659Y-49445514D01*
X60288813Y-49324161D01*
X60298340Y-49263196D01*
X60298345Y-49262864D01*
X60287519Y-49191335D01*
X60244981Y-49144171D01*
X60158303Y-49116683D01*
X60015060Y-49104181D01*
X59871641Y-49101830D01*
X59703901Y-49104852D01*
X59576756Y-49121352D01*
X59480985Y-49161408D01*
X59407369Y-49235099D01*
X59346688Y-49352501D01*
X59289721Y-49523694D01*
X59227249Y-49758755D01*
X59210822Y-49824154D01*
X59158271Y-50033802D01*
X59109219Y-50228551D01*
X59068361Y-50389825D01*
X59040392Y-50499044D01*
X59035509Y-50517770D01*
X58996988Y-50664308D01*
X58764032Y-50664308D01*
X58629238Y-50659970D01*
X58556932Y-50644317D01*
X58531798Y-50613391D01*
X58531077Y-50604116D01*
X58541376Y-50530631D01*
X58569606Y-50397235D01*
X58611766Y-50219029D01*
X58663855Y-50011117D01*
X58721873Y-49788602D01*
X58781819Y-49566584D01*
X58839691Y-49360167D01*
X58891490Y-49184453D01*
X58933214Y-49054544D01*
X58958894Y-48989176D01*
X59074926Y-48817605D01*
X59222376Y-48676995D01*
X59364006Y-48595717D01*
X59443555Y-48580178D01*
X59582756Y-48567282D01*
X59763122Y-48558235D01*
X59966163Y-48554243D01*
X60000946Y-48554154D01*
X60253283Y-48557243D01*
G37*
X60253283Y-48557243D02*
X60455514Y-48571209D01*
X60610811Y-48603104D01*
X60722341Y-48659979D01*
X60793273Y-48748884D01*
X60826776Y-48876871D01*
X60826020Y-49050991D01*
X60794173Y-49278294D01*
X60734404Y-49565831D01*
X60649882Y-49920654D01*
X60637585Y-49970693D01*
X60437956Y-50781539D01*
X60185268Y-50781539D01*
X60049181Y-50779137D01*
X59975744Y-50768899D01*
X59949518Y-50746281D01*
X59953048Y-50713154D01*
X59986584Y-50593316D01*
X60029745Y-50427808D01*
X60078923Y-50231782D01*
X60130511Y-50020389D01*
X60180901Y-49808779D01*
X60226486Y-49612104D01*
X60263659Y-49445514D01*
X60288813Y-49324161D01*
X60298340Y-49263196D01*
X60298345Y-49262864D01*
X60287519Y-49191335D01*
X60244981Y-49144171D01*
X60158303Y-49116683D01*
X60015060Y-49104181D01*
X59871641Y-49101830D01*
X59703901Y-49104852D01*
X59576756Y-49121352D01*
X59480985Y-49161408D01*
X59407369Y-49235099D01*
X59346688Y-49352501D01*
X59289721Y-49523694D01*
X59227249Y-49758755D01*
X59210822Y-49824154D01*
X59158271Y-50033802D01*
X59109219Y-50228551D01*
X59068361Y-50389825D01*
X59040392Y-50499044D01*
X59035509Y-50517770D01*
X58996988Y-50664308D01*
X58764032Y-50664308D01*
X58629238Y-50659970D01*
X58556932Y-50644317D01*
X58531798Y-50613391D01*
X58531077Y-50604116D01*
X58541376Y-50530631D01*
X58569606Y-50397235D01*
X58611766Y-50219029D01*
X58663855Y-50011117D01*
X58721873Y-49788602D01*
X58781819Y-49566584D01*
X58839691Y-49360167D01*
X58891490Y-49184453D01*
X58933214Y-49054544D01*
X58958894Y-48989176D01*
X59074926Y-48817605D01*
X59222376Y-48676995D01*
X59364006Y-48595717D01*
X59443555Y-48580178D01*
X59582756Y-48567282D01*
X59763122Y-48558235D01*
X59966163Y-48554243D01*
X60000946Y-48554154D01*
X60253283Y-48557243D01*
G36*
X62445785Y-51259278D02*
G01*
X62478867Y-51279770D01*
X62470140Y-51328446D01*
X62445937Y-51433791D01*
X62410688Y-51576899D01*
X62392639Y-51647668D01*
X62350036Y-51808610D01*
X62317123Y-51909069D01*
X62284504Y-51964349D01*
X62242784Y-51989754D01*
X62182568Y-52000590D01*
X62175471Y-52001426D01*
X62087874Y-52004231D01*
X62062122Y-51980737D01*
X62066481Y-51962051D01*
X62092204Y-51882215D01*
X62111684Y-51810796D01*
X62121435Y-51748768D01*
X62095588Y-51724073D01*
X62015405Y-51724166D01*
X61985757Y-51726503D01*
X61883319Y-51743640D01*
X61829743Y-51787002D01*
X61799356Y-51865924D01*
X61761564Y-51955336D01*
X61701589Y-51989467D01*
X61651578Y-51992924D01*
X61592595Y-51989841D01*
X61558446Y-51971859D01*
X61548452Y-51925879D01*
X61561931Y-51838799D01*
X61598203Y-51697519D01*
X61630249Y-51582616D01*
X61674935Y-51429256D01*
X61709845Y-51335693D01*
X61745242Y-51286181D01*
X61791390Y-51264975D01*
X61841930Y-51257909D01*
X61924032Y-51253977D01*
X61949766Y-51278817D01*
X61934793Y-51353542D01*
X61928708Y-51374882D01*
X61903882Y-51464048D01*
X61891893Y-51512230D01*
X61891693Y-51513973D01*
X61926381Y-51520285D01*
X62012912Y-51523764D01*
X62046229Y-51524000D01*
X62147126Y-51518367D01*
X62196660Y-51487977D01*
X62221492Y-51412595D01*
X62226425Y-51387231D01*
X62252746Y-51294392D01*
X62299243Y-51256584D01*
X62364964Y-51250462D01*
X62445785Y-51259278D01*
G37*
X62445785Y-51259278D02*
X62478867Y-51279770D01*
X62470140Y-51328446D01*
X62445937Y-51433791D01*
X62410688Y-51576899D01*
X62392639Y-51647668D01*
X62350036Y-51808610D01*
X62317123Y-51909069D01*
X62284504Y-51964349D01*
X62242784Y-51989754D01*
X62182568Y-52000590D01*
X62175471Y-52001426D01*
X62087874Y-52004231D01*
X62062122Y-51980737D01*
X62066481Y-51962051D01*
X62092204Y-51882215D01*
X62111684Y-51810796D01*
X62121435Y-51748768D01*
X62095588Y-51724073D01*
X62015405Y-51724166D01*
X61985757Y-51726503D01*
X61883319Y-51743640D01*
X61829743Y-51787002D01*
X61799356Y-51865924D01*
X61761564Y-51955336D01*
X61701589Y-51989467D01*
X61651578Y-51992924D01*
X61592595Y-51989841D01*
X61558446Y-51971859D01*
X61548452Y-51925879D01*
X61561931Y-51838799D01*
X61598203Y-51697519D01*
X61630249Y-51582616D01*
X61674935Y-51429256D01*
X61709845Y-51335693D01*
X61745242Y-51286181D01*
X61791390Y-51264975D01*
X61841930Y-51257909D01*
X61924032Y-51253977D01*
X61949766Y-51278817D01*
X61934793Y-51353542D01*
X61928708Y-51374882D01*
X61903882Y-51464048D01*
X61891893Y-51512230D01*
X61891693Y-51513973D01*
X61926381Y-51520285D01*
X62012912Y-51523764D01*
X62046229Y-51524000D01*
X62147126Y-51518367D01*
X62196660Y-51487977D01*
X62221492Y-51412595D01*
X62226425Y-51387231D01*
X62252746Y-51294392D01*
X62299243Y-51256584D01*
X62364964Y-51250462D01*
X62445785Y-51259278D01*
D13*
%TO.C,R2*%
X69245276Y-53977500D02*
X69754724Y-53977500D01*
X69245276Y-55022500D02*
X69754724Y-55022500D01*
%TO.C,R4*%
X72977064Y-88910000D02*
X71522936Y-88910000D01*
X72977064Y-87090000D02*
X71522936Y-87090000D01*
%TO.C,J4*%
X101475000Y-71100000D02*
X101475000Y-72350000D01*
X101765000Y-64440000D02*
X101765000Y-72060000D01*
X101775000Y-64450000D02*
X101775000Y-66250000D01*
X102525000Y-66250000D02*
X102525000Y-64450000D01*
X101775000Y-66250000D02*
X102525000Y-66250000D01*
X106975000Y-68250000D02*
X106975000Y-70240000D01*
X107735000Y-64440000D02*
X101765000Y-64440000D01*
X104025000Y-72050000D02*
X104025000Y-71300000D01*
X104025000Y-71300000D02*
X105365000Y-71300000D01*
X104025000Y-64450000D02*
X104025000Y-65200000D01*
X102525000Y-68750000D02*
X102525000Y-67750000D01*
X104025000Y-65200000D02*
X106975000Y-65200000D01*
X101775000Y-67750000D02*
X101775000Y-68750000D01*
X102525000Y-67750000D02*
X101775000Y-67750000D01*
X101775000Y-70250000D02*
X101775000Y-72050000D01*
X102525000Y-64450000D02*
X101775000Y-64450000D01*
X102525000Y-72050000D02*
X102525000Y-70250000D01*
X101765000Y-72060000D02*
X107735000Y-72060000D01*
X101475000Y-72350000D02*
X102725000Y-72350000D01*
X107735000Y-72060000D02*
X107735000Y-64440000D01*
X101775000Y-72050000D02*
X102525000Y-72050000D01*
X106975000Y-65200000D02*
X106975000Y-68250000D01*
X101775000Y-68750000D02*
X102525000Y-68750000D01*
X102525000Y-70250000D02*
X101775000Y-70250000D01*
%TO.C,Q1*%
X63300000Y-90910000D02*
X64700000Y-90910000D01*
X64700000Y-88590000D02*
X62800000Y-88590000D01*
%TO.C,U4*%
X84154511Y-87500000D02*
X82354511Y-87500000D01*
X82354511Y-90720000D02*
X84804511Y-90720000D01*
%TO.C,C2*%
X83113931Y-85850000D02*
X83395091Y-85850000D01*
X83113931Y-86870000D02*
X83395091Y-86870000D01*
%TO.C,R3*%
X71522936Y-84840000D02*
X72977064Y-84840000D01*
X71522936Y-86660000D02*
X72977064Y-86660000D01*
%TO.C,J3*%
X101775000Y-57500000D02*
X102525000Y-57500000D01*
X102525000Y-63300000D02*
X102525000Y-61500000D01*
X101775000Y-63300000D02*
X102525000Y-63300000D01*
X102525000Y-59000000D02*
X101775000Y-59000000D01*
X104025000Y-56450000D02*
X106975000Y-56450000D01*
X101765000Y-55690000D02*
X101765000Y-63310000D01*
X104025000Y-62550000D02*
X105365000Y-62550000D01*
X101775000Y-59000000D02*
X101775000Y-60000000D01*
X101775000Y-61500000D02*
X101775000Y-63300000D01*
X102525000Y-57500000D02*
X102525000Y-55700000D01*
X107735000Y-63310000D02*
X107735000Y-55690000D01*
X101475000Y-63600000D02*
X102725000Y-63600000D01*
X102525000Y-61500000D02*
X101775000Y-61500000D01*
X106975000Y-56450000D02*
X106975000Y-59500000D01*
X106975000Y-59500000D02*
X106975000Y-61490000D01*
X107735000Y-55690000D02*
X101765000Y-55690000D01*
X102525000Y-55700000D02*
X101775000Y-55700000D01*
X102525000Y-60000000D02*
X102525000Y-59000000D01*
X101775000Y-60000000D02*
X102525000Y-60000000D01*
X104025000Y-63300000D02*
X104025000Y-62550000D01*
X104025000Y-55700000D02*
X104025000Y-56450000D01*
X101475000Y-62350000D02*
X101475000Y-63600000D01*
X101775000Y-55700000D02*
X101775000Y-57500000D01*
X101765000Y-63310000D02*
X107735000Y-63310000D01*
%TD*%
M02*
