M48
; DRILL file {KiCad (6.0.5-0)} date Tuesday 23 May 2023 at 22:47:07
; FORMAT={-:-/ absolute / metric / decimal}
; #@! TF.CreationDate,2023-05-23T22:47:07+01:00
; #@! TF.GenerationSoftware,Kicad,Pcbnew,(6.0.5-0)
; #@! TF.FileFunction,Plated,1,2,PTH
FMAT,2
METRIC
; #@! TA.AperFunction,Plated,PTH,ViaDrill
T1C0.400
; #@! TA.AperFunction,Plated,PTH,ComponentDrill
T2C0.600
; #@! TA.AperFunction,Plated,PTH,ComponentDrill
T3C1.000
; #@! TA.AperFunction,Plated,PTH,ComponentDrill
T4C1.020
; #@! TA.AperFunction,Plated,PTH,ComponentDrill
T5C1.750
%
G90
G05
T1
X47.75Y-88.5
X47.75Y-91.5
X47.75Y-94.5
X51.75Y-89.0
X54.5Y-65.25
X54.5Y-76.5
X56.0Y-69.0
X57.0Y-86.6
X64.0Y-88.0
X64.0Y-93.0
X65.5Y-92.25
X66.5Y-97.0
X67.25Y-69.0
X67.25Y-76.5
X67.25Y-88.0
X69.5Y-88.0
X72.25Y-92.25
X73.25Y-91.0
X73.25Y-92.25
X73.712Y-88.0
X74.75Y-69.25
X74.75Y-76.5
X78.75Y-91.75
X78.75Y-93.0
X78.75Y-97.75
X79.75Y-69.25
X79.75Y-76.5
X79.75Y-94.75
X79.75Y-99.0
X80.25Y-85.5
X81.25Y-85.5
X82.0Y-91.5
X83.0Y-93.75
X84.389Y-77.586
X86.5Y-76.5
X86.5Y-90.25
X86.5Y-95.5
X87.25Y-57.5
X87.75Y-69.25
X87.75Y-73.0
X91.25Y-99.0
X93.75Y-69.25
X93.75Y-73.0
X97.5Y-99.0
X103.0Y-92.25
T2
X49.5Y-87.0
X49.5Y-90.0
X49.5Y-93.0
X49.5Y-96.0
X53.1Y-87.0
X53.1Y-90.0
X53.1Y-93.0
X53.1Y-96.0
X56.7Y-90.0
X56.7Y-93.0
X56.7Y-96.0
X60.3Y-90.0
X60.3Y-93.0
X60.3Y-96.0
X103.0Y-74.4
X103.0Y-78.0
X103.0Y-81.6
X103.0Y-85.2
X107.0Y-74.3
X107.0Y-77.9
X107.0Y-81.5
X107.0Y-85.1
X107.0Y-88.7
T3
X104.225Y-58.25
X104.225Y-60.75
X104.225Y-67.0
X104.225Y-69.5
T4
X49.37Y-62.61
X49.37Y-80.39
X51.91Y-62.61
X51.91Y-80.39
X54.45Y-62.61
X54.45Y-80.39
X56.99Y-62.61
X56.99Y-80.39
X59.53Y-62.61
X59.53Y-80.39
X62.07Y-62.61
X62.07Y-80.39
X64.61Y-62.61
X64.61Y-80.39
X67.15Y-62.61
X67.15Y-80.39
X69.69Y-62.61
X69.69Y-80.39
X72.23Y-62.61
X72.23Y-80.39
X74.77Y-62.61
X74.77Y-80.39
X77.31Y-62.61
X77.31Y-80.39
X79.85Y-62.61
X79.85Y-80.39
X82.39Y-62.61
X82.39Y-80.39
X84.93Y-62.61
X84.93Y-80.39
X87.47Y-62.61
X87.47Y-80.39
X90.01Y-62.61
X90.01Y-80.39
X92.55Y-62.61
X92.55Y-80.39
X95.09Y-62.61
X95.09Y-80.39
X97.4Y-68.96
X97.4Y-71.5
X97.4Y-74.04
X97.63Y-62.61
X97.63Y-80.39
T5
X98.25Y-49.55
X98.25Y-54.95
T0
M30
