M48
; DRILL file {KiCad (6.0.5-0)} date Friday 08 July 2022 at 00:30:50
; FORMAT={-:-/ absolute / metric / decimal}
; #@! TF.CreationDate,2022-07-08T00:30:50+01:00
; #@! TF.GenerationSoftware,Kicad,Pcbnew,(6.0.5-0)
; #@! TF.FileFunction,Plated,1,2,PTH
FMAT,2
METRIC
; #@! TA.AperFunction,Plated,PTH,ViaDrill
T1C0.400
; #@! TA.AperFunction,Plated,PTH,ComponentDrill
T2C0.950
; #@! TA.AperFunction,Plated,PTH,ComponentDrill
T3C1.000
; #@! TA.AperFunction,Plated,PTH,ComponentDrill
T4C1.020
; #@! TA.AperFunction,Plated,PTH,ComponentDrill
T5C1.550
%
G90
G05
T1
X107.061Y-80.645
X107.061Y-81.661
T2
X94.989Y-104.394
X97.489Y-104.394
X99.989Y-104.394
X102.489Y-104.394
X110.49Y-59.182
X110.49Y-61.682
X110.49Y-64.182
X110.49Y-66.682
X110.49Y-69.182
X110.49Y-75.605
X110.49Y-78.105
X110.49Y-80.605
X110.49Y-83.105
X122.0Y-59.0
X122.0Y-61.5
X122.0Y-64.0
X122.0Y-66.5
X122.0Y-69.0
X122.0Y-86.5
X122.0Y-89.0
X122.0Y-91.5
X122.0Y-94.0
X122.0Y-113.0
X122.0Y-115.5
X122.0Y-118.0
X122.0Y-120.5
T3
X66.294Y-58.928
X66.294Y-61.428
X66.311Y-86.4
X66.311Y-88.9
X66.311Y-95.798
X66.311Y-98.298
X110.49Y-89.702
X110.49Y-92.202
T4
X79.502Y-48.26
X79.502Y-50.8
X79.502Y-53.34
X79.502Y-55.88
X79.502Y-58.42
X79.502Y-60.96
X79.502Y-63.5
X79.502Y-66.04
X79.502Y-68.58
X79.502Y-71.12
X79.502Y-73.66
X79.502Y-76.2
X79.502Y-78.74
X79.502Y-81.28
X79.502Y-83.82
X79.502Y-86.36
X79.502Y-88.9
X79.502Y-91.44
X79.502Y-93.98
X79.502Y-96.52
X85.852Y-96.29
X88.392Y-96.29
X90.932Y-96.29
X97.282Y-48.26
X97.282Y-50.8
X97.282Y-53.34
X97.282Y-55.88
X97.282Y-58.42
X97.282Y-60.96
X97.282Y-63.5
X97.282Y-66.04
X97.282Y-68.58
X97.282Y-71.12
X97.282Y-73.66
X97.282Y-76.2
X97.282Y-78.74
X97.282Y-81.28
X97.282Y-83.82
X97.282Y-86.36
X97.282Y-88.9
X97.282Y-91.44
X97.282Y-93.98
X97.282Y-96.52
T5
X130.0Y-53.0
X130.0Y-67.0
X130.0Y-83.0
X130.0Y-97.0
X130.0Y-113.0
X130.0Y-127.0
X144.0Y-53.0
X144.0Y-67.0
X144.0Y-83.0
X144.0Y-97.0
X144.0Y-113.0
X144.0Y-127.0
X151.0Y-76.0
X151.0Y-83.0
X151.0Y-90.0
X151.0Y-97.0
X151.0Y-104.0
T0
M30
