%TF.GenerationSoftware,KiCad,Pcbnew,(6.0.5-0)*%
%TF.CreationDate,2023-05-19T22:22:55+01:00*%
%TF.ProjectId,control,636f6e74-726f-46c2-9e6b-696361645f70,rev?*%
%TF.SameCoordinates,Original*%
%TF.FileFunction,Soldermask,Top*%
%TF.FilePolarity,Negative*%
%FSLAX46Y46*%
G04 Gerber Fmt 4.6, Leading zero omitted, Abs format (unit mm)*
G04 Created by KiCad (PCBNEW (6.0.5-0)) date 2023-05-19 22:22:55*
%MOMM*%
%LPD*%
G01*
G04 APERTURE LIST*
G04 Aperture macros list*
%AMRoundRect*
0 Rectangle with rounded corners*
0 $1 Rounding radius*
0 $2 $3 $4 $5 $6 $7 $8 $9 X,Y pos of 4 corners*
0 Add a 4 corners polygon primitive as box body*
4,1,4,$2,$3,$4,$5,$6,$7,$8,$9,$2,$3,0*
0 Add four circle primitives for the rounded corners*
1,1,$1+$1,$2,$3*
1,1,$1+$1,$4,$5*
1,1,$1+$1,$6,$7*
1,1,$1+$1,$8,$9*
0 Add four rect primitives between the rounded corners*
20,1,$1+$1,$2,$3,$4,$5,0*
20,1,$1+$1,$4,$5,$6,$7,0*
20,1,$1+$1,$6,$7,$8,$9,0*
20,1,$1+$1,$8,$9,$2,$3,0*%
G04 Aperture macros list end*
%ADD10R,1.800000X0.450000*%
%ADD11R,4.600000X1.100000*%
%ADD12R,9.400000X10.800000*%
%ADD13RoundRect,0.237500X0.250000X0.237500X-0.250000X0.237500X-0.250000X-0.237500X0.250000X-0.237500X0*%
%ADD14R,1.560000X0.650000*%
%ADD15RoundRect,0.250000X-0.550000X-0.550000X0.550000X-0.550000X0.550000X0.550000X-0.550000X0.550000X0*%
%ADD16C,1.600000*%
%ADD17RoundRect,0.250000X0.550000X-0.550000X0.550000X0.550000X-0.550000X0.550000X-0.550000X-0.550000X0*%
%ADD18O,1.500000X1.500000*%
%ADD19O,1.800000X1.800000*%
%ADD20O,1.700000X1.700000*%
%ADD21R,1.700000X3.500000*%
%ADD22R,1.700000X1.700000*%
%ADD23R,3.500000X1.700000*%
%ADD24R,2.900000X2.600000*%
%ADD25R,0.800000X1.500000*%
%ADD26RoundRect,0.225000X0.225000X0.250000X-0.225000X0.250000X-0.225000X-0.250000X0.225000X-0.250000X0*%
%ADD27RoundRect,0.237500X-0.250000X-0.237500X0.250000X-0.237500X0.250000X0.237500X-0.250000X0.237500X0*%
%ADD28RoundRect,0.250000X0.312500X0.625000X-0.312500X0.625000X-0.312500X-0.625000X0.312500X-0.625000X0*%
%ADD29C,1.200000*%
%ADD30RoundRect,0.250000X0.750000X-0.600000X0.750000X0.600000X-0.750000X0.600000X-0.750000X-0.600000X0*%
%ADD31O,2.000000X1.700000*%
%ADD32R,0.650000X0.400000*%
%ADD33C,2.100000*%
%ADD34RoundRect,0.250000X1.125000X-1.125000X1.125000X1.125000X-1.125000X1.125000X-1.125000X-1.125000X0*%
%ADD35C,2.750000*%
%ADD36RoundRect,0.225000X-0.225000X-0.250000X0.225000X-0.250000X0.225000X0.250000X-0.225000X0.250000X0*%
%ADD37RoundRect,0.250000X-0.312500X-0.625000X0.312500X-0.625000X0.312500X0.625000X-0.312500X0.625000X0*%
G04 APERTURE END LIST*
D10*
%TO.C,U5*%
X68700000Y-90325000D03*
X68700000Y-90975000D03*
X68700000Y-91625000D03*
X68700000Y-92275000D03*
X68700000Y-92925000D03*
X68700000Y-93575000D03*
X68700000Y-94225000D03*
X68700000Y-94875000D03*
X68700000Y-95525000D03*
X68700000Y-96175000D03*
X75800000Y-96175000D03*
X75800000Y-95525000D03*
X75800000Y-94875000D03*
X75800000Y-94225000D03*
X75800000Y-93575000D03*
X75800000Y-92925000D03*
X75800000Y-92275000D03*
X75800000Y-91625000D03*
X75800000Y-90975000D03*
X75800000Y-90325000D03*
%TD*%
D11*
%TO.C,U2*%
X87275000Y-55040000D03*
D12*
X78125000Y-52500000D03*
D11*
X87275000Y-49960000D03*
%TD*%
D13*
%TO.C,F1*%
X94412500Y-55000000D03*
X92587500Y-55000000D03*
%TD*%
D14*
%TO.C,U3*%
X84604511Y-94810000D03*
X84604511Y-93860000D03*
X84604511Y-92910000D03*
X81904511Y-92910000D03*
X81904511Y-94810000D03*
%TD*%
D13*
%TO.C,R1*%
X70412500Y-57500000D03*
X68587500Y-57500000D03*
%TD*%
D15*
%TO.C,J8*%
X49500000Y-90000000D03*
D16*
X53100000Y-90000000D03*
X56700000Y-90000000D03*
X60300000Y-90000000D03*
%TD*%
D17*
%TO.C,J6*%
X107000000Y-88700000D03*
D16*
X107000000Y-85100000D03*
X107000000Y-81500000D03*
X107000000Y-77900000D03*
X107000000Y-74300000D03*
%TD*%
D18*
%TO.C,U1*%
X52530000Y-73925000D03*
X52530000Y-69075000D03*
D19*
X49500000Y-74225000D03*
X49500000Y-68775000D03*
D20*
X49370000Y-80390000D03*
D21*
X49370000Y-81290000D03*
X51910000Y-81290000D03*
D20*
X51910000Y-80390000D03*
D22*
X54450000Y-80390000D03*
D21*
X54450000Y-81290000D03*
X56990000Y-81290000D03*
D20*
X56990000Y-80390000D03*
D21*
X59530000Y-81290000D03*
D20*
X59530000Y-80390000D03*
D21*
X62070000Y-81290000D03*
D20*
X62070000Y-80390000D03*
D21*
X64610000Y-81290000D03*
D20*
X64610000Y-80390000D03*
D21*
X67150000Y-81290000D03*
D22*
X67150000Y-80390000D03*
D21*
X69690000Y-81290000D03*
D20*
X69690000Y-80390000D03*
D21*
X72230000Y-81290000D03*
D20*
X72230000Y-80390000D03*
X74770000Y-80390000D03*
D21*
X74770000Y-81290000D03*
D20*
X77310000Y-80390000D03*
D21*
X77310000Y-81290000D03*
X79850000Y-81290000D03*
D22*
X79850000Y-80390000D03*
D21*
X82390000Y-81290000D03*
D20*
X82390000Y-80390000D03*
X84930000Y-80390000D03*
D21*
X84930000Y-81290000D03*
X87470000Y-81290000D03*
D20*
X87470000Y-80390000D03*
D21*
X90010000Y-81290000D03*
D20*
X90010000Y-80390000D03*
D22*
X92550000Y-80390000D03*
D21*
X92550000Y-81290000D03*
D20*
X95090000Y-80390000D03*
D21*
X95090000Y-81290000D03*
X97630000Y-81290000D03*
D20*
X97630000Y-80390000D03*
X97630000Y-62610000D03*
D21*
X97630000Y-61710000D03*
X95090000Y-61710000D03*
D20*
X95090000Y-62610000D03*
D22*
X92550000Y-62610000D03*
D21*
X92550000Y-61710000D03*
D20*
X90010000Y-62610000D03*
D21*
X90010000Y-61710000D03*
X87470000Y-61710000D03*
D20*
X87470000Y-62610000D03*
X84930000Y-62610000D03*
D21*
X84930000Y-61710000D03*
X82390000Y-61710000D03*
D20*
X82390000Y-62610000D03*
D21*
X79850000Y-61710000D03*
D22*
X79850000Y-62610000D03*
D20*
X77310000Y-62610000D03*
D21*
X77310000Y-61710000D03*
D20*
X74770000Y-62610000D03*
D21*
X74770000Y-61710000D03*
D20*
X72230000Y-62610000D03*
D21*
X72230000Y-61710000D03*
D20*
X69690000Y-62610000D03*
D21*
X69690000Y-61710000D03*
X67150000Y-61710000D03*
D22*
X67150000Y-62610000D03*
D21*
X64610000Y-61710000D03*
D20*
X64610000Y-62610000D03*
X62070000Y-62610000D03*
D21*
X62070000Y-61710000D03*
D20*
X59530000Y-62610000D03*
D21*
X59530000Y-61710000D03*
D20*
X56990000Y-62610000D03*
D21*
X56990000Y-61710000D03*
X54450000Y-61710000D03*
D22*
X54450000Y-62610000D03*
D21*
X51910000Y-61710000D03*
D20*
X51910000Y-62610000D03*
X49370000Y-62610000D03*
D21*
X49370000Y-61710000D03*
D20*
X97400000Y-74040000D03*
D23*
X98300000Y-74040000D03*
X98300000Y-71500000D03*
D22*
X97400000Y-71500000D03*
D23*
X98300000Y-68960000D03*
D20*
X97400000Y-68960000D03*
%TD*%
D24*
%TO.C,D1*%
X68500000Y-49725000D03*
D25*
X71000000Y-49725000D03*
%TD*%
D26*
%TO.C,C1*%
X84029511Y-96610000D03*
X82479511Y-96610000D03*
%TD*%
D15*
%TO.C,J9*%
X49500000Y-93000000D03*
D16*
X53100000Y-93000000D03*
X56700000Y-93000000D03*
X60300000Y-93000000D03*
%TD*%
D27*
%TO.C,R2*%
X68587500Y-54500000D03*
X70412500Y-54500000D03*
%TD*%
D28*
%TO.C,R4*%
X73712500Y-88000000D03*
X70787500Y-88000000D03*
%TD*%
D29*
%TO.C,J4*%
X106225000Y-71100000D03*
D30*
X104225000Y-69500000D03*
D31*
X104225000Y-67000000D03*
%TD*%
D32*
%TO.C,Q1*%
X63050000Y-89100000D03*
X63050000Y-89750000D03*
X63050000Y-90400000D03*
X64950000Y-90400000D03*
X64950000Y-89750000D03*
X64950000Y-89100000D03*
%TD*%
D33*
%TO.C,H3*%
X105000000Y-95000000D03*
%TD*%
D15*
%TO.C,J10*%
X49500000Y-96000000D03*
D16*
X53100000Y-96000000D03*
X56700000Y-96000000D03*
X60300000Y-96000000D03*
%TD*%
D14*
%TO.C,U4*%
X84604511Y-90060000D03*
X84604511Y-89110000D03*
X84604511Y-88160000D03*
X81904511Y-88160000D03*
X81904511Y-90060000D03*
%TD*%
D17*
%TO.C,J5*%
X103000000Y-85200000D03*
D16*
X103000000Y-81600000D03*
X103000000Y-78000000D03*
X103000000Y-74400000D03*
%TD*%
D34*
%TO.C,J1*%
X98250000Y-54950000D03*
D35*
X98250000Y-49550000D03*
%TD*%
D33*
%TO.C,H2*%
X105000000Y-50000000D03*
%TD*%
D36*
%TO.C,C2*%
X82479511Y-86360000D03*
X84029511Y-86360000D03*
%TD*%
D37*
%TO.C,R3*%
X70787500Y-85750000D03*
X73712500Y-85750000D03*
%TD*%
D15*
%TO.C,J7*%
X49500000Y-87000000D03*
D16*
X53100000Y-87000000D03*
%TD*%
D29*
%TO.C,J3*%
X106225000Y-62350000D03*
D30*
X104225000Y-60750000D03*
D31*
X104225000Y-58250000D03*
%TD*%
D33*
%TO.C,H1*%
X50000000Y-50000000D03*
%TD*%
M02*
