%TF.GenerationSoftware,KiCad,Pcbnew,(6.0.5-0)*%
%TF.CreationDate,2022-07-08T00:30:47+01:00*%
%TF.ProjectId,control,636f6e74-726f-46c2-9e6b-696361645f70,rev?*%
%TF.SameCoordinates,Original*%
%TF.FileFunction,Soldermask,Top*%
%TF.FilePolarity,Negative*%
%FSLAX46Y46*%
G04 Gerber Fmt 4.6, Leading zero omitted, Abs format (unit mm)*
G04 Created by KiCad (PCBNEW (6.0.5-0)) date 2022-07-08 00:30:47*
%MOMM*%
%LPD*%
G01*
G04 APERTURE LIST*
G04 Aperture macros list*
%AMRoundRect*
0 Rectangle with rounded corners*
0 $1 Rounding radius*
0 $2 $3 $4 $5 $6 $7 $8 $9 X,Y pos of 4 corners*
0 Add a 4 corners polygon primitive as box body*
4,1,4,$2,$3,$4,$5,$6,$7,$8,$9,$2,$3,0*
0 Add four circle primitives for the rounded corners*
1,1,$1+$1,$2,$3*
1,1,$1+$1,$4,$5*
1,1,$1+$1,$6,$7*
1,1,$1+$1,$8,$9*
0 Add four rect primitives between the rounded corners*
20,1,$1+$1,$2,$3,$4,$5,0*
20,1,$1+$1,$4,$5,$6,$7,0*
20,1,$1+$1,$6,$7,$8,$9,0*
20,1,$1+$1,$8,$9,$2,$3,0*%
G04 Aperture macros list end*
%ADD10C,3.200000*%
%ADD11C,12.700000*%
%ADD12C,1.200000*%
%ADD13RoundRect,0.250000X0.725000X-0.600000X0.725000X0.600000X-0.725000X0.600000X-0.725000X-0.600000X0*%
%ADD14O,1.950000X1.700000*%
%ADD15C,3.500000*%
%ADD16RoundRect,0.250002X1.499998X-1.499998X1.499998X1.499998X-1.499998X1.499998X-1.499998X-1.499998X0*%
%ADD17RoundRect,0.249999X-1.025001X-1.025001X1.025001X-1.025001X1.025001X1.025001X-1.025001X1.025001X0*%
%ADD18R,3.000000X1.600000*%
%ADD19R,6.700000X6.700000*%
%ADD20O,1.800000X1.800000*%
%ADD21O,1.500000X1.500000*%
%ADD22O,1.700000X1.700000*%
%ADD23R,3.500000X1.700000*%
%ADD24R,1.700000X1.700000*%
%ADD25R,1.700000X3.500000*%
%ADD26R,1.100000X4.600000*%
%ADD27R,10.800000X9.400000*%
%ADD28R,2.600000X2.900000*%
%ADD29R,1.500000X0.800000*%
%ADD30R,0.650000X0.400000*%
%ADD31RoundRect,0.250000X0.750000X-0.600000X0.750000X0.600000X-0.750000X0.600000X-0.750000X-0.600000X0*%
%ADD32O,2.000000X1.700000*%
%ADD33RoundRect,0.250000X-0.750000X0.600000X-0.750000X-0.600000X0.750000X-0.600000X0.750000X0.600000X0*%
%ADD34RoundRect,0.250000X-0.600000X-0.725000X0.600000X-0.725000X0.600000X0.725000X-0.600000X0.725000X0*%
%ADD35O,1.700000X1.950000*%
G04 APERTURE END LIST*
D10*
%TO.C,H13*%
X122000000Y-128000000D03*
%TD*%
%TO.C,H12*%
X150000000Y-111000000D03*
%TD*%
%TO.C,H11*%
X122000000Y-76000000D03*
%TD*%
%TO.C,H10*%
X150000000Y-69000000D03*
%TD*%
%TO.C,H9*%
X122000000Y-52000000D03*
%TD*%
%TO.C,H8*%
X122000000Y-104000000D03*
%TD*%
D11*
%TO.C,H7*%
X137000000Y-120000000D03*
%TD*%
%TO.C,H6*%
X137000000Y-90000000D03*
%TD*%
%TO.C,H5*%
X137000000Y-60000000D03*
%TD*%
D12*
%TO.C,J26*%
X124000000Y-122100000D03*
D13*
X122000000Y-120500000D03*
D14*
X122000000Y-118000000D03*
X122000000Y-115500000D03*
X122000000Y-113000000D03*
%TD*%
D12*
%TO.C,J25*%
X124000000Y-95600000D03*
D13*
X122000000Y-94000000D03*
D14*
X122000000Y-91500000D03*
X122000000Y-89000000D03*
X122000000Y-86500000D03*
%TD*%
D12*
%TO.C,J24*%
X124000000Y-70600000D03*
D13*
X122000000Y-69000000D03*
D14*
X122000000Y-66500000D03*
X122000000Y-64000000D03*
X122000000Y-61500000D03*
X122000000Y-59000000D03*
%TD*%
D15*
%TO.C,J23*%
X151000000Y-76000000D03*
X151000000Y-83000000D03*
X151000000Y-90000000D03*
X151000000Y-97000000D03*
D16*
X151000000Y-104000000D03*
%TD*%
D17*
%TO.C,J22*%
X144000000Y-113000000D03*
%TD*%
%TO.C,J21*%
X144000000Y-83000000D03*
%TD*%
%TO.C,J20*%
X144000000Y-53000000D03*
%TD*%
%TO.C,J19*%
X144000000Y-127000000D03*
%TD*%
%TO.C,J18*%
X144000000Y-97000000D03*
%TD*%
%TO.C,J17*%
X144000000Y-67000000D03*
%TD*%
%TO.C,J16*%
X130000000Y-127000000D03*
%TD*%
%TO.C,J15*%
X130000000Y-97000000D03*
%TD*%
%TO.C,J14*%
X130000000Y-67000000D03*
%TD*%
%TO.C,J13*%
X130000000Y-113000000D03*
%TD*%
%TO.C,J11*%
X130000000Y-83000000D03*
%TD*%
%TO.C,J10*%
X130000000Y-53000000D03*
%TD*%
D18*
%TO.C,T1*%
X79545000Y-102729000D03*
D19*
X86245000Y-105029000D03*
D18*
X79545000Y-107329000D03*
%TD*%
D20*
%TO.C,U2*%
X91117000Y-48390000D03*
D21*
X90817000Y-51420000D03*
X85967000Y-51420000D03*
D20*
X85667000Y-48390000D03*
D22*
X79502000Y-48260000D03*
D23*
X78602000Y-48260000D03*
D22*
X79502000Y-50800000D03*
D23*
X78602000Y-50800000D03*
X78602000Y-53340000D03*
D24*
X79502000Y-53340000D03*
D23*
X78602000Y-55880000D03*
D22*
X79502000Y-55880000D03*
X79502000Y-58420000D03*
D23*
X78602000Y-58420000D03*
X78602000Y-60960000D03*
D22*
X79502000Y-60960000D03*
X79502000Y-63500000D03*
D23*
X78602000Y-63500000D03*
D24*
X79502000Y-66040000D03*
D23*
X78602000Y-66040000D03*
X78602000Y-68580000D03*
D22*
X79502000Y-68580000D03*
X79502000Y-71120000D03*
D23*
X78602000Y-71120000D03*
X78602000Y-73660000D03*
D22*
X79502000Y-73660000D03*
X79502000Y-76200000D03*
D23*
X78602000Y-76200000D03*
D24*
X79502000Y-78740000D03*
D23*
X78602000Y-78740000D03*
D22*
X79502000Y-81280000D03*
D23*
X78602000Y-81280000D03*
D22*
X79502000Y-83820000D03*
D23*
X78602000Y-83820000D03*
D22*
X79502000Y-86360000D03*
D23*
X78602000Y-86360000D03*
D22*
X79502000Y-88900000D03*
D23*
X78602000Y-88900000D03*
D24*
X79502000Y-91440000D03*
D23*
X78602000Y-91440000D03*
X78602000Y-93980000D03*
D22*
X79502000Y-93980000D03*
X79502000Y-96520000D03*
D23*
X78602000Y-96520000D03*
D22*
X97282000Y-96520000D03*
D23*
X98182000Y-96520000D03*
D22*
X97282000Y-93980000D03*
D23*
X98182000Y-93980000D03*
X98182000Y-91440000D03*
D24*
X97282000Y-91440000D03*
D23*
X98182000Y-88900000D03*
D22*
X97282000Y-88900000D03*
X97282000Y-86360000D03*
D23*
X98182000Y-86360000D03*
D22*
X97282000Y-83820000D03*
D23*
X98182000Y-83820000D03*
X98182000Y-81280000D03*
D22*
X97282000Y-81280000D03*
D24*
X97282000Y-78740000D03*
D23*
X98182000Y-78740000D03*
D22*
X97282000Y-76200000D03*
D23*
X98182000Y-76200000D03*
X98182000Y-73660000D03*
D22*
X97282000Y-73660000D03*
D23*
X98182000Y-71120000D03*
D22*
X97282000Y-71120000D03*
D23*
X98182000Y-68580000D03*
D22*
X97282000Y-68580000D03*
D24*
X97282000Y-66040000D03*
D23*
X98182000Y-66040000D03*
X98182000Y-63500000D03*
D22*
X97282000Y-63500000D03*
X97282000Y-60960000D03*
D23*
X98182000Y-60960000D03*
X98182000Y-58420000D03*
D22*
X97282000Y-58420000D03*
X97282000Y-55880000D03*
D23*
X98182000Y-55880000D03*
X98182000Y-53340000D03*
D24*
X97282000Y-53340000D03*
D23*
X98182000Y-50800000D03*
D22*
X97282000Y-50800000D03*
D23*
X98182000Y-48260000D03*
D22*
X97282000Y-48260000D03*
D25*
X85852000Y-97190000D03*
D22*
X85852000Y-96290000D03*
D25*
X88392000Y-97190000D03*
D24*
X88392000Y-96290000D03*
D22*
X90932000Y-96290000D03*
D25*
X90932000Y-97190000D03*
%TD*%
D12*
%TO.C,J6*%
X112490000Y-70782000D03*
D13*
X110490000Y-69182000D03*
D14*
X110490000Y-66682000D03*
X110490000Y-64182000D03*
X110490000Y-61682000D03*
X110490000Y-59182000D03*
%TD*%
D26*
%TO.C,U1*%
X69596000Y-68393000D03*
D27*
X67056000Y-77543000D03*
D26*
X64516000Y-68393000D03*
%TD*%
D28*
%TO.C,D1*%
X72136000Y-61222000D03*
D29*
X72136000Y-63722000D03*
%TD*%
D10*
%TO.C,H3*%
X111000000Y-105410000D03*
%TD*%
D30*
%TO.C,Q1*%
X103632000Y-78232000D03*
X103632000Y-78882000D03*
X103632000Y-79532000D03*
X105532000Y-79532000D03*
X105532000Y-78882000D03*
X105532000Y-78232000D03*
%TD*%
%TO.C,Q2*%
X103632000Y-82662000D03*
X103632000Y-83312000D03*
X103632000Y-83962000D03*
X105532000Y-83962000D03*
X105532000Y-83312000D03*
X105532000Y-82662000D03*
%TD*%
D10*
%TO.C,H4*%
X65000000Y-105410000D03*
%TD*%
%TO.C,H1*%
X111000000Y-50000000D03*
%TD*%
D31*
%TO.C,J5*%
X110490000Y-92202000D03*
D32*
X110490000Y-89702000D03*
%TD*%
D12*
%TO.C,J1*%
X64294000Y-57328000D03*
D33*
X66294000Y-58928000D03*
D32*
X66294000Y-61428000D03*
%TD*%
D12*
%TO.C,J2*%
X64311000Y-84800000D03*
D33*
X66311000Y-86400000D03*
D32*
X66311000Y-88900000D03*
%TD*%
D12*
%TO.C,J7*%
X112490000Y-84705000D03*
D13*
X110490000Y-83105000D03*
D14*
X110490000Y-80605000D03*
X110490000Y-78105000D03*
X110490000Y-75605000D03*
%TD*%
D10*
%TO.C,H2*%
X65000000Y-50000000D03*
%TD*%
D12*
%TO.C,J4*%
X93389000Y-106394000D03*
D34*
X94989000Y-104394000D03*
D35*
X97489000Y-104394000D03*
X99989000Y-104394000D03*
X102489000Y-104394000D03*
%TD*%
D12*
%TO.C,J3*%
X64311000Y-94198000D03*
D33*
X66311000Y-95798000D03*
D32*
X66311000Y-98298000D03*
%TD*%
M02*
