%TF.GenerationSoftware,KiCad,Pcbnew,(6.0.5-0)*%
%TF.CreationDate,2022-07-08T00:30:46+01:00*%
%TF.ProjectId,control,636f6e74-726f-46c2-9e6b-696361645f70,rev?*%
%TF.SameCoordinates,Original*%
%TF.FileFunction,Legend,Top*%
%TF.FilePolarity,Positive*%
%FSLAX46Y46*%
G04 Gerber Fmt 4.6, Leading zero omitted, Abs format (unit mm)*
G04 Created by KiCad (PCBNEW (6.0.5-0)) date 2022-07-08 00:30:46*
%MOMM*%
%LPD*%
G01*
G04 APERTURE LIST*
%ADD10C,0.100000*%
%ADD11C,0.150000*%
%ADD12C,0.010000*%
%ADD13C,0.120000*%
%ADD14C,0.254000*%
G04 APERTURE END LIST*
D10*
X129481666Y-76753166D02*
X129481666Y-76053166D01*
X129648333Y-76053166D01*
X129748333Y-76086500D01*
X129815000Y-76153166D01*
X129848333Y-76219833D01*
X129881666Y-76353166D01*
X129881666Y-76453166D01*
X129848333Y-76586500D01*
X129815000Y-76653166D01*
X129748333Y-76719833D01*
X129648333Y-76753166D01*
X129481666Y-76753166D01*
X130281666Y-76753166D02*
X130215000Y-76719833D01*
X130181666Y-76686500D01*
X130148333Y-76619833D01*
X130148333Y-76419833D01*
X130181666Y-76353166D01*
X130215000Y-76319833D01*
X130281666Y-76286500D01*
X130381666Y-76286500D01*
X130448333Y-76319833D01*
X130481666Y-76353166D01*
X130515000Y-76419833D01*
X130515000Y-76619833D01*
X130481666Y-76686500D01*
X130448333Y-76719833D01*
X130381666Y-76753166D01*
X130281666Y-76753166D01*
X130815000Y-76286500D02*
X130815000Y-76753166D01*
X130815000Y-76353166D02*
X130848333Y-76319833D01*
X130915000Y-76286500D01*
X131015000Y-76286500D01*
X131081666Y-76319833D01*
X131115000Y-76386500D01*
X131115000Y-76753166D01*
X131448333Y-76753166D02*
X131448333Y-76286500D01*
X131448333Y-76053166D02*
X131415000Y-76086500D01*
X131448333Y-76119833D01*
X131481666Y-76086500D01*
X131448333Y-76053166D01*
X131448333Y-76119833D01*
X132048333Y-76719833D02*
X131981666Y-76753166D01*
X131848333Y-76753166D01*
X131781666Y-76719833D01*
X131748333Y-76653166D01*
X131748333Y-76386500D01*
X131781666Y-76319833D01*
X131848333Y-76286500D01*
X131981666Y-76286500D01*
X132048333Y-76319833D01*
X132081666Y-76386500D01*
X132081666Y-76453166D01*
X131748333Y-76519833D01*
X132915000Y-76753166D02*
X132915000Y-76053166D01*
X133315000Y-76753166D02*
X133015000Y-76353166D01*
X133315000Y-76053166D02*
X132915000Y-76453166D01*
X133881666Y-76719833D02*
X133815000Y-76753166D01*
X133681666Y-76753166D01*
X133615000Y-76719833D01*
X133581666Y-76653166D01*
X133581666Y-76386500D01*
X133615000Y-76319833D01*
X133681666Y-76286500D01*
X133815000Y-76286500D01*
X133881666Y-76319833D01*
X133915000Y-76386500D01*
X133915000Y-76453166D01*
X133581666Y-76519833D01*
X134315000Y-76753166D02*
X134248333Y-76719833D01*
X134215000Y-76653166D01*
X134215000Y-76053166D01*
X134681666Y-76753166D02*
X134615000Y-76719833D01*
X134581666Y-76653166D01*
X134581666Y-76053166D01*
X134881666Y-76286500D02*
X135048333Y-76753166D01*
X135215000Y-76286500D02*
X135048333Y-76753166D01*
X134981666Y-76919833D01*
X134948333Y-76953166D01*
X134881666Y-76986500D01*
X130048333Y-77346833D02*
X129981666Y-77313500D01*
X129848333Y-77313500D01*
X129781666Y-77346833D01*
X129715000Y-77413500D01*
X129681666Y-77480166D01*
X129681666Y-77613500D01*
X129715000Y-77680166D01*
X129781666Y-77746833D01*
X129848333Y-77780166D01*
X129981666Y-77780166D01*
X130048333Y-77746833D01*
X129915000Y-77080166D02*
X129748333Y-77113500D01*
X129581666Y-77213500D01*
X129481666Y-77380166D01*
X129448333Y-77546833D01*
X129481666Y-77713500D01*
X129581666Y-77880166D01*
X129748333Y-77980166D01*
X129915000Y-78013500D01*
X130081666Y-77980166D01*
X130248333Y-77880166D01*
X130348333Y-77713500D01*
X130381666Y-77546833D01*
X130348333Y-77380166D01*
X130248333Y-77213500D01*
X130081666Y-77113500D01*
X129915000Y-77080166D01*
X131181666Y-77246833D02*
X131215000Y-77213500D01*
X131281666Y-77180166D01*
X131448333Y-77180166D01*
X131515000Y-77213500D01*
X131548333Y-77246833D01*
X131581666Y-77313500D01*
X131581666Y-77380166D01*
X131548333Y-77480166D01*
X131148333Y-77880166D01*
X131581666Y-77880166D01*
X132015000Y-77180166D02*
X132081666Y-77180166D01*
X132148333Y-77213500D01*
X132181666Y-77246833D01*
X132215000Y-77313500D01*
X132248333Y-77446833D01*
X132248333Y-77613500D01*
X132215000Y-77746833D01*
X132181666Y-77813500D01*
X132148333Y-77846833D01*
X132081666Y-77880166D01*
X132015000Y-77880166D01*
X131948333Y-77846833D01*
X131915000Y-77813500D01*
X131881666Y-77746833D01*
X131848333Y-77613500D01*
X131848333Y-77446833D01*
X131881666Y-77313500D01*
X131915000Y-77246833D01*
X131948333Y-77213500D01*
X132015000Y-77180166D01*
X132515000Y-77246833D02*
X132548333Y-77213500D01*
X132615000Y-77180166D01*
X132781666Y-77180166D01*
X132848333Y-77213500D01*
X132881666Y-77246833D01*
X132915000Y-77313500D01*
X132915000Y-77380166D01*
X132881666Y-77480166D01*
X132481666Y-77880166D01*
X132915000Y-77880166D01*
X133181666Y-77246833D02*
X133215000Y-77213500D01*
X133281666Y-77180166D01*
X133448333Y-77180166D01*
X133515000Y-77213500D01*
X133548333Y-77246833D01*
X133581666Y-77313500D01*
X133581666Y-77380166D01*
X133548333Y-77480166D01*
X133148333Y-77880166D01*
X133581666Y-77880166D01*
X69446666Y-107957166D02*
X69446666Y-107257166D01*
X69613333Y-107257166D01*
X69713333Y-107290500D01*
X69780000Y-107357166D01*
X69813333Y-107423833D01*
X69846666Y-107557166D01*
X69846666Y-107657166D01*
X69813333Y-107790500D01*
X69780000Y-107857166D01*
X69713333Y-107923833D01*
X69613333Y-107957166D01*
X69446666Y-107957166D01*
X70246666Y-107957166D02*
X70180000Y-107923833D01*
X70146666Y-107890500D01*
X70113333Y-107823833D01*
X70113333Y-107623833D01*
X70146666Y-107557166D01*
X70180000Y-107523833D01*
X70246666Y-107490500D01*
X70346666Y-107490500D01*
X70413333Y-107523833D01*
X70446666Y-107557166D01*
X70480000Y-107623833D01*
X70480000Y-107823833D01*
X70446666Y-107890500D01*
X70413333Y-107923833D01*
X70346666Y-107957166D01*
X70246666Y-107957166D01*
X70780000Y-107490500D02*
X70780000Y-107957166D01*
X70780000Y-107557166D02*
X70813333Y-107523833D01*
X70880000Y-107490500D01*
X70980000Y-107490500D01*
X71046666Y-107523833D01*
X71080000Y-107590500D01*
X71080000Y-107957166D01*
X71413333Y-107957166D02*
X71413333Y-107490500D01*
X71413333Y-107257166D02*
X71380000Y-107290500D01*
X71413333Y-107323833D01*
X71446666Y-107290500D01*
X71413333Y-107257166D01*
X71413333Y-107323833D01*
X72013333Y-107923833D02*
X71946666Y-107957166D01*
X71813333Y-107957166D01*
X71746666Y-107923833D01*
X71713333Y-107857166D01*
X71713333Y-107590500D01*
X71746666Y-107523833D01*
X71813333Y-107490500D01*
X71946666Y-107490500D01*
X72013333Y-107523833D01*
X72046666Y-107590500D01*
X72046666Y-107657166D01*
X71713333Y-107723833D01*
X72880000Y-107957166D02*
X72880000Y-107257166D01*
X73280000Y-107957166D02*
X72980000Y-107557166D01*
X73280000Y-107257166D02*
X72880000Y-107657166D01*
X73846666Y-107923833D02*
X73780000Y-107957166D01*
X73646666Y-107957166D01*
X73580000Y-107923833D01*
X73546666Y-107857166D01*
X73546666Y-107590500D01*
X73580000Y-107523833D01*
X73646666Y-107490500D01*
X73780000Y-107490500D01*
X73846666Y-107523833D01*
X73880000Y-107590500D01*
X73880000Y-107657166D01*
X73546666Y-107723833D01*
X74280000Y-107957166D02*
X74213333Y-107923833D01*
X74180000Y-107857166D01*
X74180000Y-107257166D01*
X74646666Y-107957166D02*
X74580000Y-107923833D01*
X74546666Y-107857166D01*
X74546666Y-107257166D01*
X74846666Y-107490500D02*
X75013333Y-107957166D01*
X75180000Y-107490500D02*
X75013333Y-107957166D01*
X74946666Y-108123833D01*
X74913333Y-108157166D01*
X74846666Y-108190500D01*
X70013333Y-108550833D02*
X69946666Y-108517500D01*
X69813333Y-108517500D01*
X69746666Y-108550833D01*
X69680000Y-108617500D01*
X69646666Y-108684166D01*
X69646666Y-108817500D01*
X69680000Y-108884166D01*
X69746666Y-108950833D01*
X69813333Y-108984166D01*
X69946666Y-108984166D01*
X70013333Y-108950833D01*
X69880000Y-108284166D02*
X69713333Y-108317500D01*
X69546666Y-108417500D01*
X69446666Y-108584166D01*
X69413333Y-108750833D01*
X69446666Y-108917500D01*
X69546666Y-109084166D01*
X69713333Y-109184166D01*
X69880000Y-109217500D01*
X70046666Y-109184166D01*
X70213333Y-109084166D01*
X70313333Y-108917500D01*
X70346666Y-108750833D01*
X70313333Y-108584166D01*
X70213333Y-108417500D01*
X70046666Y-108317500D01*
X69880000Y-108284166D01*
X71146666Y-108450833D02*
X71180000Y-108417500D01*
X71246666Y-108384166D01*
X71413333Y-108384166D01*
X71480000Y-108417500D01*
X71513333Y-108450833D01*
X71546666Y-108517500D01*
X71546666Y-108584166D01*
X71513333Y-108684166D01*
X71113333Y-109084166D01*
X71546666Y-109084166D01*
X71980000Y-108384166D02*
X72046666Y-108384166D01*
X72113333Y-108417500D01*
X72146666Y-108450833D01*
X72180000Y-108517500D01*
X72213333Y-108650833D01*
X72213333Y-108817500D01*
X72180000Y-108950833D01*
X72146666Y-109017500D01*
X72113333Y-109050833D01*
X72046666Y-109084166D01*
X71980000Y-109084166D01*
X71913333Y-109050833D01*
X71880000Y-109017500D01*
X71846666Y-108950833D01*
X71813333Y-108817500D01*
X71813333Y-108650833D01*
X71846666Y-108517500D01*
X71880000Y-108450833D01*
X71913333Y-108417500D01*
X71980000Y-108384166D01*
X72480000Y-108450833D02*
X72513333Y-108417500D01*
X72580000Y-108384166D01*
X72746666Y-108384166D01*
X72813333Y-108417500D01*
X72846666Y-108450833D01*
X72880000Y-108517500D01*
X72880000Y-108584166D01*
X72846666Y-108684166D01*
X72446666Y-109084166D01*
X72880000Y-109084166D01*
X73146666Y-108450833D02*
X73180000Y-108417500D01*
X73246666Y-108384166D01*
X73413333Y-108384166D01*
X73480000Y-108417500D01*
X73513333Y-108450833D01*
X73546666Y-108517500D01*
X73546666Y-108584166D01*
X73513333Y-108684166D01*
X73113333Y-109084166D01*
X73546666Y-109084166D01*
D11*
%TO.C,H6*%
X136238095Y-87252380D02*
X136238095Y-86252380D01*
X136238095Y-86728571D02*
X136809523Y-86728571D01*
X136809523Y-87252380D02*
X136809523Y-86252380D01*
X137714285Y-86252380D02*
X137523809Y-86252380D01*
X137428571Y-86300000D01*
X137380952Y-86347619D01*
X137285714Y-86490476D01*
X137238095Y-86680952D01*
X137238095Y-87061904D01*
X137285714Y-87157142D01*
X137333333Y-87204761D01*
X137428571Y-87252380D01*
X137619047Y-87252380D01*
X137714285Y-87204761D01*
X137761904Y-87157142D01*
X137809523Y-87061904D01*
X137809523Y-86823809D01*
X137761904Y-86728571D01*
X137714285Y-86680952D01*
X137619047Y-86633333D01*
X137428571Y-86633333D01*
X137333333Y-86680952D01*
X137285714Y-86728571D01*
X137238095Y-86823809D01*
%TO.C,H5*%
X136238095Y-57252380D02*
X136238095Y-56252380D01*
X136238095Y-56728571D02*
X136809523Y-56728571D01*
X136809523Y-57252380D02*
X136809523Y-56252380D01*
X137761904Y-56252380D02*
X137285714Y-56252380D01*
X137238095Y-56728571D01*
X137285714Y-56680952D01*
X137380952Y-56633333D01*
X137619047Y-56633333D01*
X137714285Y-56680952D01*
X137761904Y-56728571D01*
X137809523Y-56823809D01*
X137809523Y-57061904D01*
X137761904Y-57157142D01*
X137714285Y-57204761D01*
X137619047Y-57252380D01*
X137380952Y-57252380D01*
X137285714Y-57204761D01*
X137238095Y-57157142D01*
%TO.C,J26*%
X124190476Y-108452380D02*
X124190476Y-109166666D01*
X124142857Y-109309523D01*
X124047619Y-109404761D01*
X123904761Y-109452380D01*
X123809523Y-109452380D01*
X124619047Y-108547619D02*
X124666666Y-108500000D01*
X124761904Y-108452380D01*
X125000000Y-108452380D01*
X125095238Y-108500000D01*
X125142857Y-108547619D01*
X125190476Y-108642857D01*
X125190476Y-108738095D01*
X125142857Y-108880952D01*
X124571428Y-109452380D01*
X125190476Y-109452380D01*
X126047619Y-108452380D02*
X125857142Y-108452380D01*
X125761904Y-108500000D01*
X125714285Y-108547619D01*
X125619047Y-108690476D01*
X125571428Y-108880952D01*
X125571428Y-109261904D01*
X125619047Y-109357142D01*
X125666666Y-109404761D01*
X125761904Y-109452380D01*
X125952380Y-109452380D01*
X126047619Y-109404761D01*
X126095238Y-109357142D01*
X126142857Y-109261904D01*
X126142857Y-109023809D01*
X126095238Y-108928571D01*
X126047619Y-108880952D01*
X125952380Y-108833333D01*
X125761904Y-108833333D01*
X125666666Y-108880952D01*
X125619047Y-108928571D01*
X125571428Y-109023809D01*
X117842857Y-112185714D02*
X118742857Y-112185714D01*
X118742857Y-112528571D01*
X118700000Y-112614285D01*
X118657142Y-112657142D01*
X118571428Y-112700000D01*
X118442857Y-112700000D01*
X118357142Y-112657142D01*
X118314285Y-112614285D01*
X118271428Y-112528571D01*
X118271428Y-112185714D01*
X117842857Y-113471428D02*
X118314285Y-113471428D01*
X118400000Y-113428571D01*
X118442857Y-113342857D01*
X118442857Y-113171428D01*
X118400000Y-113085714D01*
X117885714Y-113471428D02*
X117842857Y-113385714D01*
X117842857Y-113171428D01*
X117885714Y-113085714D01*
X117971428Y-113042857D01*
X118057142Y-113042857D01*
X118142857Y-113085714D01*
X118185714Y-113171428D01*
X118185714Y-113385714D01*
X118228571Y-113471428D01*
X118442857Y-113900000D02*
X117842857Y-113900000D01*
X118357142Y-113900000D02*
X118400000Y-113942857D01*
X118442857Y-114028571D01*
X118442857Y-114157142D01*
X118400000Y-114242857D01*
X118314285Y-114285714D01*
X117842857Y-114285714D01*
X117885714Y-115057142D02*
X117842857Y-114971428D01*
X117842857Y-114800000D01*
X117885714Y-114714285D01*
X117971428Y-114671428D01*
X118314285Y-114671428D01*
X118400000Y-114714285D01*
X118442857Y-114800000D01*
X118442857Y-114971428D01*
X118400000Y-115057142D01*
X118314285Y-115100000D01*
X118228571Y-115100000D01*
X118142857Y-114671428D01*
X117842857Y-115614285D02*
X117885714Y-115528571D01*
X117971428Y-115485714D01*
X118742857Y-115485714D01*
X118314285Y-116942857D02*
X118271428Y-117071428D01*
X118228571Y-117114285D01*
X118142857Y-117157142D01*
X118014285Y-117157142D01*
X117928571Y-117114285D01*
X117885714Y-117071428D01*
X117842857Y-116985714D01*
X117842857Y-116642857D01*
X118742857Y-116642857D01*
X118742857Y-116942857D01*
X118700000Y-117028571D01*
X118657142Y-117071428D01*
X118571428Y-117114285D01*
X118485714Y-117114285D01*
X118400000Y-117071428D01*
X118357142Y-117028571D01*
X118314285Y-116942857D01*
X118314285Y-116642857D01*
X118442857Y-117928571D02*
X117842857Y-117928571D01*
X118442857Y-117542857D02*
X117971428Y-117542857D01*
X117885714Y-117585714D01*
X117842857Y-117671428D01*
X117842857Y-117800000D01*
X117885714Y-117885714D01*
X117928571Y-117928571D01*
X118442857Y-118228571D02*
X118442857Y-118571428D01*
X118742857Y-118357142D02*
X117971428Y-118357142D01*
X117885714Y-118400000D01*
X117842857Y-118485714D01*
X117842857Y-118571428D01*
X118442857Y-118742857D02*
X118442857Y-119085714D01*
X118742857Y-118871428D02*
X117971428Y-118871428D01*
X117885714Y-118914285D01*
X117842857Y-119000000D01*
X117842857Y-119085714D01*
X117842857Y-119514285D02*
X117885714Y-119428571D01*
X117928571Y-119385714D01*
X118014285Y-119342857D01*
X118271428Y-119342857D01*
X118357142Y-119385714D01*
X118400000Y-119428571D01*
X118442857Y-119514285D01*
X118442857Y-119642857D01*
X118400000Y-119728571D01*
X118357142Y-119771428D01*
X118271428Y-119814285D01*
X118014285Y-119814285D01*
X117928571Y-119771428D01*
X117885714Y-119728571D01*
X117842857Y-119642857D01*
X117842857Y-119514285D01*
X118442857Y-120200000D02*
X117842857Y-120200000D01*
X118357142Y-120200000D02*
X118400000Y-120242857D01*
X118442857Y-120328571D01*
X118442857Y-120457142D01*
X118400000Y-120542857D01*
X118314285Y-120585714D01*
X117842857Y-120585714D01*
X117885714Y-120971428D02*
X117842857Y-121057142D01*
X117842857Y-121228571D01*
X117885714Y-121314285D01*
X117971428Y-121357142D01*
X118014285Y-121357142D01*
X118100000Y-121314285D01*
X118142857Y-121228571D01*
X118142857Y-121100000D01*
X118185714Y-121014285D01*
X118271428Y-120971428D01*
X118314285Y-120971428D01*
X118400000Y-121014285D01*
X118442857Y-121100000D01*
X118442857Y-121228571D01*
X118400000Y-121314285D01*
%TO.C,J25*%
X124190476Y-81452380D02*
X124190476Y-82166666D01*
X124142857Y-82309523D01*
X124047619Y-82404761D01*
X123904761Y-82452380D01*
X123809523Y-82452380D01*
X124619047Y-81547619D02*
X124666666Y-81500000D01*
X124761904Y-81452380D01*
X125000000Y-81452380D01*
X125095238Y-81500000D01*
X125142857Y-81547619D01*
X125190476Y-81642857D01*
X125190476Y-81738095D01*
X125142857Y-81880952D01*
X124571428Y-82452380D01*
X125190476Y-82452380D01*
X126095238Y-81452380D02*
X125619047Y-81452380D01*
X125571428Y-81928571D01*
X125619047Y-81880952D01*
X125714285Y-81833333D01*
X125952380Y-81833333D01*
X126047619Y-81880952D01*
X126095238Y-81928571D01*
X126142857Y-82023809D01*
X126142857Y-82261904D01*
X126095238Y-82357142D01*
X126047619Y-82404761D01*
X125952380Y-82452380D01*
X125714285Y-82452380D01*
X125619047Y-82404761D01*
X125571428Y-82357142D01*
X117842857Y-86221428D02*
X118742857Y-86221428D01*
X118742857Y-86564285D01*
X118700000Y-86650000D01*
X118657142Y-86692857D01*
X118571428Y-86735714D01*
X118442857Y-86735714D01*
X118357142Y-86692857D01*
X118314285Y-86650000D01*
X118271428Y-86564285D01*
X118271428Y-86221428D01*
X117842857Y-87507142D02*
X118314285Y-87507142D01*
X118400000Y-87464285D01*
X118442857Y-87378571D01*
X118442857Y-87207142D01*
X118400000Y-87121428D01*
X117885714Y-87507142D02*
X117842857Y-87421428D01*
X117842857Y-87207142D01*
X117885714Y-87121428D01*
X117971428Y-87078571D01*
X118057142Y-87078571D01*
X118142857Y-87121428D01*
X118185714Y-87207142D01*
X118185714Y-87421428D01*
X118228571Y-87507142D01*
X118442857Y-87935714D02*
X117842857Y-87935714D01*
X118357142Y-87935714D02*
X118400000Y-87978571D01*
X118442857Y-88064285D01*
X118442857Y-88192857D01*
X118400000Y-88278571D01*
X118314285Y-88321428D01*
X117842857Y-88321428D01*
X117885714Y-89092857D02*
X117842857Y-89007142D01*
X117842857Y-88835714D01*
X117885714Y-88750000D01*
X117971428Y-88707142D01*
X118314285Y-88707142D01*
X118400000Y-88750000D01*
X118442857Y-88835714D01*
X118442857Y-89007142D01*
X118400000Y-89092857D01*
X118314285Y-89135714D01*
X118228571Y-89135714D01*
X118142857Y-88707142D01*
X117842857Y-89650000D02*
X117885714Y-89564285D01*
X117971428Y-89521428D01*
X118742857Y-89521428D01*
X117842857Y-91107142D02*
X117842857Y-90678571D01*
X118742857Y-90678571D01*
X117842857Y-91407142D02*
X118442857Y-91407142D01*
X118742857Y-91407142D02*
X118700000Y-91364285D01*
X118657142Y-91407142D01*
X118700000Y-91450000D01*
X118742857Y-91407142D01*
X118657142Y-91407142D01*
X118442857Y-92221428D02*
X117714285Y-92221428D01*
X117628571Y-92178571D01*
X117585714Y-92135714D01*
X117542857Y-92050000D01*
X117542857Y-91921428D01*
X117585714Y-91835714D01*
X117885714Y-92221428D02*
X117842857Y-92135714D01*
X117842857Y-91964285D01*
X117885714Y-91878571D01*
X117928571Y-91835714D01*
X118014285Y-91792857D01*
X118271428Y-91792857D01*
X118357142Y-91835714D01*
X118400000Y-91878571D01*
X118442857Y-91964285D01*
X118442857Y-92135714D01*
X118400000Y-92221428D01*
X117842857Y-92650000D02*
X118742857Y-92650000D01*
X117842857Y-93035714D02*
X118314285Y-93035714D01*
X118400000Y-92992857D01*
X118442857Y-92907142D01*
X118442857Y-92778571D01*
X118400000Y-92692857D01*
X118357142Y-92650000D01*
X118442857Y-93335714D02*
X118442857Y-93678571D01*
X118742857Y-93464285D02*
X117971428Y-93464285D01*
X117885714Y-93507142D01*
X117842857Y-93592857D01*
X117842857Y-93678571D01*
X117885714Y-93935714D02*
X117842857Y-94021428D01*
X117842857Y-94192857D01*
X117885714Y-94278571D01*
X117971428Y-94321428D01*
X118014285Y-94321428D01*
X118100000Y-94278571D01*
X118142857Y-94192857D01*
X118142857Y-94064285D01*
X118185714Y-93978571D01*
X118271428Y-93935714D01*
X118314285Y-93935714D01*
X118400000Y-93978571D01*
X118442857Y-94064285D01*
X118442857Y-94192857D01*
X118400000Y-94278571D01*
%TO.C,J24*%
X125190476Y-54452380D02*
X125190476Y-55166666D01*
X125142857Y-55309523D01*
X125047619Y-55404761D01*
X124904761Y-55452380D01*
X124809523Y-55452380D01*
X125619047Y-54547619D02*
X125666666Y-54500000D01*
X125761904Y-54452380D01*
X126000000Y-54452380D01*
X126095238Y-54500000D01*
X126142857Y-54547619D01*
X126190476Y-54642857D01*
X126190476Y-54738095D01*
X126142857Y-54880952D01*
X125571428Y-55452380D01*
X126190476Y-55452380D01*
X127047619Y-54785714D02*
X127047619Y-55452380D01*
X126809523Y-54404761D02*
X126571428Y-55119047D01*
X127190476Y-55119047D01*
X118742857Y-61792857D02*
X118100000Y-61792857D01*
X117971428Y-61750000D01*
X117885714Y-61664285D01*
X117842857Y-61535714D01*
X117842857Y-61450000D01*
X117842857Y-62350000D02*
X117885714Y-62264285D01*
X117928571Y-62221428D01*
X118014285Y-62178571D01*
X118271428Y-62178571D01*
X118357142Y-62221428D01*
X118400000Y-62264285D01*
X118442857Y-62350000D01*
X118442857Y-62478571D01*
X118400000Y-62564285D01*
X118357142Y-62607142D01*
X118271428Y-62650000D01*
X118014285Y-62650000D01*
X117928571Y-62607142D01*
X117885714Y-62564285D01*
X117842857Y-62478571D01*
X117842857Y-62350000D01*
X118442857Y-62950000D02*
X117842857Y-63164285D01*
X118442857Y-63378571D02*
X117842857Y-63164285D01*
X117628571Y-63078571D01*
X117585714Y-63035714D01*
X117542857Y-62950000D01*
X117885714Y-63678571D02*
X117842857Y-63764285D01*
X117842857Y-63935714D01*
X117885714Y-64021428D01*
X117971428Y-64064285D01*
X118014285Y-64064285D01*
X118100000Y-64021428D01*
X118142857Y-63935714D01*
X118142857Y-63807142D01*
X118185714Y-63721428D01*
X118271428Y-63678571D01*
X118314285Y-63678571D01*
X118400000Y-63721428D01*
X118442857Y-63807142D01*
X118442857Y-63935714D01*
X118400000Y-64021428D01*
X118442857Y-64321428D02*
X118442857Y-64664285D01*
X118742857Y-64450000D02*
X117971428Y-64450000D01*
X117885714Y-64492857D01*
X117842857Y-64578571D01*
X117842857Y-64664285D01*
X117842857Y-64964285D02*
X118442857Y-64964285D01*
X118742857Y-64964285D02*
X118700000Y-64921428D01*
X118657142Y-64964285D01*
X118700000Y-65007142D01*
X118742857Y-64964285D01*
X118657142Y-64964285D01*
X117885714Y-65778571D02*
X117842857Y-65692857D01*
X117842857Y-65521428D01*
X117885714Y-65435714D01*
X117928571Y-65392857D01*
X118014285Y-65350000D01*
X118271428Y-65350000D01*
X118357142Y-65392857D01*
X118400000Y-65435714D01*
X118442857Y-65521428D01*
X118442857Y-65692857D01*
X118400000Y-65778571D01*
X117842857Y-66164285D02*
X118742857Y-66164285D01*
X118185714Y-66250000D02*
X117842857Y-66507142D01*
X118442857Y-66507142D02*
X118100000Y-66164285D01*
%TO.C,J23*%
X147507142Y-92207142D02*
X148150000Y-92207142D01*
X148278571Y-92250000D01*
X148364285Y-92335714D01*
X148407142Y-92464285D01*
X148407142Y-92550000D01*
X148407142Y-91650000D02*
X148364285Y-91735714D01*
X148321428Y-91778571D01*
X148235714Y-91821428D01*
X147978571Y-91821428D01*
X147892857Y-91778571D01*
X147850000Y-91735714D01*
X147807142Y-91650000D01*
X147807142Y-91521428D01*
X147850000Y-91435714D01*
X147892857Y-91392857D01*
X147978571Y-91350000D01*
X148235714Y-91350000D01*
X148321428Y-91392857D01*
X148364285Y-91435714D01*
X148407142Y-91521428D01*
X148407142Y-91650000D01*
X147807142Y-91050000D02*
X148407142Y-90835714D01*
X147807142Y-90621428D02*
X148407142Y-90835714D01*
X148621428Y-90921428D01*
X148664285Y-90964285D01*
X148707142Y-91050000D01*
X148364285Y-90321428D02*
X148407142Y-90235714D01*
X148407142Y-90064285D01*
X148364285Y-89978571D01*
X148278571Y-89935714D01*
X148235714Y-89935714D01*
X148150000Y-89978571D01*
X148107142Y-90064285D01*
X148107142Y-90192857D01*
X148064285Y-90278571D01*
X147978571Y-90321428D01*
X147935714Y-90321428D01*
X147850000Y-90278571D01*
X147807142Y-90192857D01*
X147807142Y-90064285D01*
X147850000Y-89978571D01*
X147807142Y-89678571D02*
X147807142Y-89335714D01*
X147507142Y-89550000D02*
X148278571Y-89550000D01*
X148364285Y-89507142D01*
X148407142Y-89421428D01*
X148407142Y-89335714D01*
X148407142Y-89035714D02*
X147807142Y-89035714D01*
X147507142Y-89035714D02*
X147550000Y-89078571D01*
X147592857Y-89035714D01*
X147550000Y-88992857D01*
X147507142Y-89035714D01*
X147592857Y-89035714D01*
X148364285Y-88221428D02*
X148407142Y-88307142D01*
X148407142Y-88478571D01*
X148364285Y-88564285D01*
X148321428Y-88607142D01*
X148235714Y-88650000D01*
X147978571Y-88650000D01*
X147892857Y-88607142D01*
X147850000Y-88564285D01*
X147807142Y-88478571D01*
X147807142Y-88307142D01*
X147850000Y-88221428D01*
X148407142Y-87835714D02*
X147507142Y-87835714D01*
X148064285Y-87750000D02*
X148407142Y-87492857D01*
X147807142Y-87492857D02*
X148150000Y-87835714D01*
%TO.C,J22*%
X143740357Y-116407142D02*
X143311785Y-116407142D01*
X143311785Y-115507142D01*
X144040357Y-115935714D02*
X144340357Y-115935714D01*
X144468928Y-116407142D02*
X144040357Y-116407142D01*
X144040357Y-115507142D01*
X144468928Y-115507142D01*
X144854642Y-116407142D02*
X144854642Y-115507142D01*
X145068928Y-115507142D01*
X145197500Y-115550000D01*
X145283214Y-115635714D01*
X145326071Y-115721428D01*
X145368928Y-115892857D01*
X145368928Y-116021428D01*
X145326071Y-116192857D01*
X145283214Y-116278571D01*
X145197500Y-116364285D01*
X145068928Y-116407142D01*
X144854642Y-116407142D01*
X146440357Y-116064285D02*
X147126071Y-116064285D01*
%TO.C,J21*%
X144740357Y-85907142D02*
X144311785Y-85907142D01*
X144311785Y-85007142D01*
X145040357Y-85435714D02*
X145340357Y-85435714D01*
X145468928Y-85907142D02*
X145040357Y-85907142D01*
X145040357Y-85007142D01*
X145468928Y-85007142D01*
X145854642Y-85907142D02*
X145854642Y-85007142D01*
X146068928Y-85007142D01*
X146197500Y-85050000D01*
X146283214Y-85135714D01*
X146326071Y-85221428D01*
X146368928Y-85392857D01*
X146368928Y-85521428D01*
X146326071Y-85692857D01*
X146283214Y-85778571D01*
X146197500Y-85864285D01*
X146068928Y-85907142D01*
X145854642Y-85907142D01*
X147440357Y-85564285D02*
X148126071Y-85564285D01*
%TO.C,J20*%
X143740357Y-56407142D02*
X143311785Y-56407142D01*
X143311785Y-55507142D01*
X144040357Y-55935714D02*
X144340357Y-55935714D01*
X144468928Y-56407142D02*
X144040357Y-56407142D01*
X144040357Y-55507142D01*
X144468928Y-55507142D01*
X144854642Y-56407142D02*
X144854642Y-55507142D01*
X145068928Y-55507142D01*
X145197500Y-55550000D01*
X145283214Y-55635714D01*
X145326071Y-55721428D01*
X145368928Y-55892857D01*
X145368928Y-56021428D01*
X145326071Y-56192857D01*
X145283214Y-56278571D01*
X145197500Y-56364285D01*
X145068928Y-56407142D01*
X144854642Y-56407142D01*
X146440357Y-56064285D02*
X147126071Y-56064285D01*
%TO.C,J19*%
X142740357Y-130407142D02*
X142311785Y-130407142D01*
X142311785Y-129507142D01*
X143040357Y-129935714D02*
X143340357Y-129935714D01*
X143468928Y-130407142D02*
X143040357Y-130407142D01*
X143040357Y-129507142D01*
X143468928Y-129507142D01*
X143854642Y-130407142D02*
X143854642Y-129507142D01*
X144068928Y-129507142D01*
X144197500Y-129550000D01*
X144283214Y-129635714D01*
X144326071Y-129721428D01*
X144368928Y-129892857D01*
X144368928Y-130021428D01*
X144326071Y-130192857D01*
X144283214Y-130278571D01*
X144197500Y-130364285D01*
X144068928Y-130407142D01*
X143854642Y-130407142D01*
X145440357Y-130064285D02*
X146126071Y-130064285D01*
X145783214Y-130407142D02*
X145783214Y-129721428D01*
%TO.C,J18*%
X142740357Y-100407142D02*
X142311785Y-100407142D01*
X142311785Y-99507142D01*
X143040357Y-99935714D02*
X143340357Y-99935714D01*
X143468928Y-100407142D02*
X143040357Y-100407142D01*
X143040357Y-99507142D01*
X143468928Y-99507142D01*
X143854642Y-100407142D02*
X143854642Y-99507142D01*
X144068928Y-99507142D01*
X144197500Y-99550000D01*
X144283214Y-99635714D01*
X144326071Y-99721428D01*
X144368928Y-99892857D01*
X144368928Y-100021428D01*
X144326071Y-100192857D01*
X144283214Y-100278571D01*
X144197500Y-100364285D01*
X144068928Y-100407142D01*
X143854642Y-100407142D01*
X145440357Y-100064285D02*
X146126071Y-100064285D01*
X145783214Y-100407142D02*
X145783214Y-99721428D01*
%TO.C,J17*%
X142740357Y-70407142D02*
X142311785Y-70407142D01*
X142311785Y-69507142D01*
X143040357Y-69935714D02*
X143340357Y-69935714D01*
X143468928Y-70407142D02*
X143040357Y-70407142D01*
X143040357Y-69507142D01*
X143468928Y-69507142D01*
X143854642Y-70407142D02*
X143854642Y-69507142D01*
X144068928Y-69507142D01*
X144197500Y-69550000D01*
X144283214Y-69635714D01*
X144326071Y-69721428D01*
X144368928Y-69892857D01*
X144368928Y-70021428D01*
X144326071Y-70192857D01*
X144283214Y-70278571D01*
X144197500Y-70364285D01*
X144068928Y-70407142D01*
X143854642Y-70407142D01*
X145440357Y-70064285D02*
X146126071Y-70064285D01*
X145783214Y-70407142D02*
X145783214Y-69721428D01*
%TO.C,J16*%
X129700000Y-128977142D02*
X130257142Y-128977142D01*
X129957142Y-129320000D01*
X130085714Y-129320000D01*
X130171428Y-129362857D01*
X130214285Y-129405714D01*
X130257142Y-129491428D01*
X130257142Y-129705714D01*
X130214285Y-129791428D01*
X130171428Y-129834285D01*
X130085714Y-129877142D01*
X129828571Y-129877142D01*
X129742857Y-129834285D01*
X129700000Y-129791428D01*
%TO.C,J15*%
X129742857Y-99062857D02*
X129785714Y-99020000D01*
X129871428Y-98977142D01*
X130085714Y-98977142D01*
X130171428Y-99020000D01*
X130214285Y-99062857D01*
X130257142Y-99148571D01*
X130257142Y-99234285D01*
X130214285Y-99362857D01*
X129700000Y-99877142D01*
X130257142Y-99877142D01*
%TO.C,J14*%
X130257142Y-69877142D02*
X129742857Y-69877142D01*
X130000000Y-69877142D02*
X130000000Y-68977142D01*
X129914285Y-69105714D01*
X129828571Y-69191428D01*
X129742857Y-69234285D01*
%TO.C,T1*%
X90064285Y-101757142D02*
X90578571Y-101757142D01*
X90321428Y-102657142D02*
X90321428Y-101757142D01*
X91350000Y-102657142D02*
X90835714Y-102657142D01*
X91092857Y-102657142D02*
X91092857Y-101757142D01*
X91007142Y-101885714D01*
X90921428Y-101971428D01*
X90835714Y-102014285D01*
%TO.C,U2*%
X77470095Y-99020380D02*
X77470095Y-99829904D01*
X77517714Y-99925142D01*
X77565333Y-99972761D01*
X77660571Y-100020380D01*
X77851047Y-100020380D01*
X77946285Y-99972761D01*
X77993904Y-99925142D01*
X78041523Y-99829904D01*
X78041523Y-99020380D01*
X78470095Y-99115619D02*
X78517714Y-99068000D01*
X78612952Y-99020380D01*
X78851047Y-99020380D01*
X78946285Y-99068000D01*
X78993904Y-99115619D01*
X79041523Y-99210857D01*
X79041523Y-99306095D01*
X78993904Y-99448952D01*
X78422476Y-100020380D01*
X79041523Y-100020380D01*
%TO.C,J6*%
X106392380Y-64515333D02*
X107106666Y-64515333D01*
X107249523Y-64562952D01*
X107344761Y-64658190D01*
X107392380Y-64801047D01*
X107392380Y-64896285D01*
X106392380Y-63610571D02*
X106392380Y-63801047D01*
X106440000Y-63896285D01*
X106487619Y-63943904D01*
X106630476Y-64039142D01*
X106820952Y-64086761D01*
X107201904Y-64086761D01*
X107297142Y-64039142D01*
X107344761Y-63991523D01*
X107392380Y-63896285D01*
X107392380Y-63705809D01*
X107344761Y-63610571D01*
X107297142Y-63562952D01*
X107201904Y-63515333D01*
X106963809Y-63515333D01*
X106868571Y-63562952D01*
X106820952Y-63610571D01*
X106773333Y-63705809D01*
X106773333Y-63896285D01*
X106820952Y-63991523D01*
X106868571Y-64039142D01*
X106963809Y-64086761D01*
X114442142Y-66389142D02*
X115085000Y-66389142D01*
X115213571Y-66432000D01*
X115299285Y-66517714D01*
X115342142Y-66646285D01*
X115342142Y-66732000D01*
X115342142Y-65832000D02*
X115299285Y-65917714D01*
X115256428Y-65960571D01*
X115170714Y-66003428D01*
X114913571Y-66003428D01*
X114827857Y-65960571D01*
X114785000Y-65917714D01*
X114742142Y-65832000D01*
X114742142Y-65703428D01*
X114785000Y-65617714D01*
X114827857Y-65574857D01*
X114913571Y-65532000D01*
X115170714Y-65532000D01*
X115256428Y-65574857D01*
X115299285Y-65617714D01*
X115342142Y-65703428D01*
X115342142Y-65832000D01*
X114742142Y-65232000D02*
X115342142Y-65017714D01*
X114742142Y-64803428D02*
X115342142Y-65017714D01*
X115556428Y-65103428D01*
X115599285Y-65146285D01*
X115642142Y-65232000D01*
X115299285Y-64503428D02*
X115342142Y-64417714D01*
X115342142Y-64246285D01*
X115299285Y-64160571D01*
X115213571Y-64117714D01*
X115170714Y-64117714D01*
X115085000Y-64160571D01*
X115042142Y-64246285D01*
X115042142Y-64374857D01*
X114999285Y-64460571D01*
X114913571Y-64503428D01*
X114870714Y-64503428D01*
X114785000Y-64460571D01*
X114742142Y-64374857D01*
X114742142Y-64246285D01*
X114785000Y-64160571D01*
X114742142Y-63860571D02*
X114742142Y-63517714D01*
X114442142Y-63732000D02*
X115213571Y-63732000D01*
X115299285Y-63689142D01*
X115342142Y-63603428D01*
X115342142Y-63517714D01*
X115342142Y-63217714D02*
X114742142Y-63217714D01*
X114442142Y-63217714D02*
X114485000Y-63260571D01*
X114527857Y-63217714D01*
X114485000Y-63174857D01*
X114442142Y-63217714D01*
X114527857Y-63217714D01*
X115299285Y-62403428D02*
X115342142Y-62489142D01*
X115342142Y-62660571D01*
X115299285Y-62746285D01*
X115256428Y-62789142D01*
X115170714Y-62832000D01*
X114913571Y-62832000D01*
X114827857Y-62789142D01*
X114785000Y-62746285D01*
X114742142Y-62660571D01*
X114742142Y-62489142D01*
X114785000Y-62403428D01*
X115342142Y-62017714D02*
X114442142Y-62017714D01*
X114999285Y-61932000D02*
X115342142Y-61674857D01*
X114742142Y-61674857D02*
X115085000Y-62017714D01*
%TO.C,U1*%
X73158380Y-74929904D02*
X73967904Y-74929904D01*
X74063142Y-74882285D01*
X74110761Y-74834666D01*
X74158380Y-74739428D01*
X74158380Y-74548952D01*
X74110761Y-74453714D01*
X74063142Y-74406095D01*
X73967904Y-74358476D01*
X73158380Y-74358476D01*
X74158380Y-73358476D02*
X74158380Y-73929904D01*
X74158380Y-73644190D02*
X73158380Y-73644190D01*
X73301238Y-73739428D01*
X73396476Y-73834666D01*
X73444095Y-73929904D01*
%TO.C,D1*%
X73350380Y-59158095D02*
X72350380Y-59158095D01*
X72350380Y-58920000D01*
X72398000Y-58777142D01*
X72493238Y-58681904D01*
X72588476Y-58634285D01*
X72778952Y-58586666D01*
X72921809Y-58586666D01*
X73112285Y-58634285D01*
X73207523Y-58681904D01*
X73302761Y-58777142D01*
X73350380Y-58920000D01*
X73350380Y-59158095D01*
X73350380Y-57634285D02*
X73350380Y-58205714D01*
X73350380Y-57920000D02*
X72350380Y-57920000D01*
X72493238Y-58015238D01*
X72588476Y-58110476D01*
X72636095Y-58205714D01*
%TO.C,Q1*%
X104486761Y-77429619D02*
X104391523Y-77382000D01*
X104296285Y-77286761D01*
X104153428Y-77143904D01*
X104058190Y-77096285D01*
X103962952Y-77096285D01*
X104010571Y-77334380D02*
X103915333Y-77286761D01*
X103820095Y-77191523D01*
X103772476Y-77001047D01*
X103772476Y-76667714D01*
X103820095Y-76477238D01*
X103915333Y-76382000D01*
X104010571Y-76334380D01*
X104201047Y-76334380D01*
X104296285Y-76382000D01*
X104391523Y-76477238D01*
X104439142Y-76667714D01*
X104439142Y-77001047D01*
X104391523Y-77191523D01*
X104296285Y-77286761D01*
X104201047Y-77334380D01*
X104010571Y-77334380D01*
X105391523Y-77334380D02*
X104820095Y-77334380D01*
X105105809Y-77334380D02*
X105105809Y-76334380D01*
X105010571Y-76477238D01*
X104915333Y-76572476D01*
X104820095Y-76620095D01*
%TO.C,Q2*%
X104486761Y-81859619D02*
X104391523Y-81812000D01*
X104296285Y-81716761D01*
X104153428Y-81573904D01*
X104058190Y-81526285D01*
X103962952Y-81526285D01*
X104010571Y-81764380D02*
X103915333Y-81716761D01*
X103820095Y-81621523D01*
X103772476Y-81431047D01*
X103772476Y-81097714D01*
X103820095Y-80907238D01*
X103915333Y-80812000D01*
X104010571Y-80764380D01*
X104201047Y-80764380D01*
X104296285Y-80812000D01*
X104391523Y-80907238D01*
X104439142Y-81097714D01*
X104439142Y-81431047D01*
X104391523Y-81621523D01*
X104296285Y-81716761D01*
X104201047Y-81764380D01*
X104010571Y-81764380D01*
X104820095Y-80859619D02*
X104867714Y-80812000D01*
X104962952Y-80764380D01*
X105201047Y-80764380D01*
X105296285Y-80812000D01*
X105343904Y-80859619D01*
X105391523Y-80954857D01*
X105391523Y-81050095D01*
X105343904Y-81192952D01*
X104772476Y-81764380D01*
X105391523Y-81764380D01*
%TO.C,J5*%
X106392380Y-91285333D02*
X107106666Y-91285333D01*
X107249523Y-91332952D01*
X107344761Y-91428190D01*
X107392380Y-91571047D01*
X107392380Y-91666285D01*
X106392380Y-90332952D02*
X106392380Y-90809142D01*
X106868571Y-90856761D01*
X106820952Y-90809142D01*
X106773333Y-90713904D01*
X106773333Y-90475809D01*
X106820952Y-90380571D01*
X106868571Y-90332952D01*
X106963809Y-90285333D01*
X107201904Y-90285333D01*
X107297142Y-90332952D01*
X107344761Y-90380571D01*
X107392380Y-90475809D01*
X107392380Y-90713904D01*
X107344761Y-90809142D01*
X107297142Y-90856761D01*
X115494761Y-94594857D02*
X115542380Y-94452000D01*
X115542380Y-94213904D01*
X115494761Y-94118666D01*
X115447142Y-94071047D01*
X115351904Y-94023428D01*
X115256666Y-94023428D01*
X115161428Y-94071047D01*
X115113809Y-94118666D01*
X115066190Y-94213904D01*
X115018571Y-94404380D01*
X114970952Y-94499619D01*
X114923333Y-94547238D01*
X114828095Y-94594857D01*
X114732857Y-94594857D01*
X114637619Y-94547238D01*
X114590000Y-94499619D01*
X114542380Y-94404380D01*
X114542380Y-94166285D01*
X114590000Y-94023428D01*
X114875714Y-93737714D02*
X114875714Y-93356761D01*
X114542380Y-93594857D02*
X115399523Y-93594857D01*
X115494761Y-93547238D01*
X115542380Y-93452000D01*
X115542380Y-93356761D01*
X115542380Y-93023428D02*
X114875714Y-93023428D01*
X115066190Y-93023428D02*
X114970952Y-92975809D01*
X114923333Y-92928190D01*
X114875714Y-92832952D01*
X114875714Y-92737714D01*
X115542380Y-92404380D02*
X114875714Y-92404380D01*
X114542380Y-92404380D02*
X114590000Y-92452000D01*
X114637619Y-92404380D01*
X114590000Y-92356761D01*
X114542380Y-92404380D01*
X114637619Y-92404380D01*
X114875714Y-91928190D02*
X115875714Y-91928190D01*
X114923333Y-91928190D02*
X114875714Y-91832952D01*
X114875714Y-91642476D01*
X114923333Y-91547238D01*
X114970952Y-91499619D01*
X115066190Y-91452000D01*
X115351904Y-91452000D01*
X115447142Y-91499619D01*
X115494761Y-91547238D01*
X115542380Y-91642476D01*
X115542380Y-91832952D01*
X115494761Y-91928190D01*
X115542380Y-90118666D02*
X115494761Y-90213904D01*
X115399523Y-90261523D01*
X114542380Y-90261523D01*
X115542380Y-89737714D02*
X114875714Y-89737714D01*
X114542380Y-89737714D02*
X114590000Y-89785333D01*
X114637619Y-89737714D01*
X114590000Y-89690095D01*
X114542380Y-89737714D01*
X114637619Y-89737714D01*
X114875714Y-88832952D02*
X115685238Y-88832952D01*
X115780476Y-88880571D01*
X115828095Y-88928190D01*
X115875714Y-89023428D01*
X115875714Y-89166285D01*
X115828095Y-89261523D01*
X115494761Y-88832952D02*
X115542380Y-88928190D01*
X115542380Y-89118666D01*
X115494761Y-89213904D01*
X115447142Y-89261523D01*
X115351904Y-89309142D01*
X115066190Y-89309142D01*
X114970952Y-89261523D01*
X114923333Y-89213904D01*
X114875714Y-89118666D01*
X114875714Y-88928190D01*
X114923333Y-88832952D01*
X115542380Y-88356761D02*
X114542380Y-88356761D01*
X115542380Y-87928190D02*
X115018571Y-87928190D01*
X114923333Y-87975809D01*
X114875714Y-88071047D01*
X114875714Y-88213904D01*
X114923333Y-88309142D01*
X114970952Y-88356761D01*
X114875714Y-87594857D02*
X114875714Y-87213904D01*
X114542380Y-87452000D02*
X115399523Y-87452000D01*
X115494761Y-87404380D01*
X115542380Y-87309142D01*
X115542380Y-87213904D01*
%TO.C,J1*%
X69296380Y-60511333D02*
X70010666Y-60511333D01*
X70153523Y-60558952D01*
X70248761Y-60654190D01*
X70296380Y-60797047D01*
X70296380Y-60892285D01*
X70296380Y-59511333D02*
X70296380Y-60082761D01*
X70296380Y-59797047D02*
X69296380Y-59797047D01*
X69439238Y-59892285D01*
X69534476Y-59987523D01*
X69582095Y-60082761D01*
X61241619Y-62701809D02*
X61194000Y-62654190D01*
X61146380Y-62558952D01*
X61146380Y-62320857D01*
X61194000Y-62225619D01*
X61241619Y-62178000D01*
X61336857Y-62130380D01*
X61432095Y-62130380D01*
X61574952Y-62178000D01*
X62146380Y-62749428D01*
X62146380Y-62130380D01*
X61479714Y-61273238D02*
X62146380Y-61273238D01*
X61098761Y-61511333D02*
X61813047Y-61749428D01*
X61813047Y-61130380D01*
X61479714Y-60844666D02*
X62146380Y-60606571D01*
X61479714Y-60368476D01*
X62146380Y-59225619D02*
X61146380Y-59225619D01*
X61146380Y-58987523D01*
X61194000Y-58844666D01*
X61289238Y-58749428D01*
X61384476Y-58701809D01*
X61574952Y-58654190D01*
X61717809Y-58654190D01*
X61908285Y-58701809D01*
X62003523Y-58749428D01*
X62098761Y-58844666D01*
X62146380Y-58987523D01*
X62146380Y-59225619D01*
X62051142Y-57654190D02*
X62098761Y-57701809D01*
X62146380Y-57844666D01*
X62146380Y-57939904D01*
X62098761Y-58082761D01*
X62003523Y-58178000D01*
X61908285Y-58225619D01*
X61717809Y-58273238D01*
X61574952Y-58273238D01*
X61384476Y-58225619D01*
X61289238Y-58178000D01*
X61194000Y-58082761D01*
X61146380Y-57939904D01*
X61146380Y-57844666D01*
X61194000Y-57701809D01*
X61241619Y-57654190D01*
%TO.C,J2*%
X69313380Y-87983333D02*
X70027666Y-87983333D01*
X70170523Y-88030952D01*
X70265761Y-88126190D01*
X70313380Y-88269047D01*
X70313380Y-88364285D01*
X69408619Y-87554761D02*
X69361000Y-87507142D01*
X69313380Y-87411904D01*
X69313380Y-87173809D01*
X69361000Y-87078571D01*
X69408619Y-87030952D01*
X69503857Y-86983333D01*
X69599095Y-86983333D01*
X69741952Y-87030952D01*
X70313380Y-87602380D01*
X70313380Y-86983333D01*
X61639571Y-90626190D02*
X61639571Y-90292857D01*
X62163380Y-90150000D02*
X62163380Y-90626190D01*
X61163380Y-90626190D01*
X61163380Y-90150000D01*
X62115761Y-89769047D02*
X62163380Y-89626190D01*
X62163380Y-89388095D01*
X62115761Y-89292857D01*
X62068142Y-89245238D01*
X61972904Y-89197619D01*
X61877666Y-89197619D01*
X61782428Y-89245238D01*
X61734809Y-89292857D01*
X61687190Y-89388095D01*
X61639571Y-89578571D01*
X61591952Y-89673809D01*
X61544333Y-89721428D01*
X61449095Y-89769047D01*
X61353857Y-89769047D01*
X61258619Y-89721428D01*
X61211000Y-89673809D01*
X61163380Y-89578571D01*
X61163380Y-89340476D01*
X61211000Y-89197619D01*
X62068142Y-88197619D02*
X62115761Y-88245238D01*
X62163380Y-88388095D01*
X62163380Y-88483333D01*
X62115761Y-88626190D01*
X62020523Y-88721428D01*
X61925285Y-88769047D01*
X61734809Y-88816666D01*
X61591952Y-88816666D01*
X61401476Y-88769047D01*
X61306238Y-88721428D01*
X61211000Y-88626190D01*
X61163380Y-88483333D01*
X61163380Y-88388095D01*
X61211000Y-88245238D01*
X61258619Y-88197619D01*
X62163380Y-86530952D02*
X62163380Y-87007142D01*
X61163380Y-87007142D01*
X62115761Y-85816666D02*
X62163380Y-85911904D01*
X62163380Y-86102380D01*
X62115761Y-86197619D01*
X62020523Y-86245238D01*
X61639571Y-86245238D01*
X61544333Y-86197619D01*
X61496714Y-86102380D01*
X61496714Y-85911904D01*
X61544333Y-85816666D01*
X61639571Y-85769047D01*
X61734809Y-85769047D01*
X61830047Y-86245238D01*
X61496714Y-85483333D02*
X61496714Y-85102380D01*
X62163380Y-85340476D02*
X61306238Y-85340476D01*
X61211000Y-85292857D01*
X61163380Y-85197619D01*
X61163380Y-85102380D01*
X61496714Y-84911904D02*
X61496714Y-84530952D01*
X61163380Y-84769047D02*
X62020523Y-84769047D01*
X62115761Y-84721428D01*
X62163380Y-84626190D01*
X62163380Y-84530952D01*
%TO.C,J7*%
X106392380Y-79688333D02*
X107106666Y-79688333D01*
X107249523Y-79735952D01*
X107344761Y-79831190D01*
X107392380Y-79974047D01*
X107392380Y-80069285D01*
X106392380Y-79307380D02*
X106392380Y-78640714D01*
X107392380Y-79069285D01*
X115342142Y-83403571D02*
X114442142Y-83403571D01*
X114442142Y-83060714D01*
X114485000Y-82975000D01*
X114527857Y-82932142D01*
X114613571Y-82889285D01*
X114742142Y-82889285D01*
X114827857Y-82932142D01*
X114870714Y-82975000D01*
X114913571Y-83060714D01*
X114913571Y-83403571D01*
X115342142Y-82117857D02*
X114870714Y-82117857D01*
X114785000Y-82160714D01*
X114742142Y-82246428D01*
X114742142Y-82417857D01*
X114785000Y-82503571D01*
X115299285Y-82117857D02*
X115342142Y-82203571D01*
X115342142Y-82417857D01*
X115299285Y-82503571D01*
X115213571Y-82546428D01*
X115127857Y-82546428D01*
X115042142Y-82503571D01*
X114999285Y-82417857D01*
X114999285Y-82203571D01*
X114956428Y-82117857D01*
X114742142Y-81689285D02*
X115342142Y-81689285D01*
X114827857Y-81689285D02*
X114785000Y-81646428D01*
X114742142Y-81560714D01*
X114742142Y-81432142D01*
X114785000Y-81346428D01*
X114870714Y-81303571D01*
X115342142Y-81303571D01*
X115299285Y-80532142D02*
X115342142Y-80617857D01*
X115342142Y-80789285D01*
X115299285Y-80875000D01*
X115213571Y-80917857D01*
X114870714Y-80917857D01*
X114785000Y-80875000D01*
X114742142Y-80789285D01*
X114742142Y-80617857D01*
X114785000Y-80532142D01*
X114870714Y-80489285D01*
X114956428Y-80489285D01*
X115042142Y-80917857D01*
X115342142Y-79975000D02*
X115299285Y-80060714D01*
X115213571Y-80103571D01*
X114442142Y-80103571D01*
X115342142Y-78517857D02*
X115342142Y-78946428D01*
X114442142Y-78946428D01*
X115342142Y-78217857D02*
X114742142Y-78217857D01*
X114442142Y-78217857D02*
X114485000Y-78260714D01*
X114527857Y-78217857D01*
X114485000Y-78175000D01*
X114442142Y-78217857D01*
X114527857Y-78217857D01*
X114742142Y-77403571D02*
X115470714Y-77403571D01*
X115556428Y-77446428D01*
X115599285Y-77489285D01*
X115642142Y-77575000D01*
X115642142Y-77703571D01*
X115599285Y-77789285D01*
X115299285Y-77403571D02*
X115342142Y-77489285D01*
X115342142Y-77660714D01*
X115299285Y-77746428D01*
X115256428Y-77789285D01*
X115170714Y-77832142D01*
X114913571Y-77832142D01*
X114827857Y-77789285D01*
X114785000Y-77746428D01*
X114742142Y-77660714D01*
X114742142Y-77489285D01*
X114785000Y-77403571D01*
X115342142Y-76975000D02*
X114442142Y-76975000D01*
X115342142Y-76589285D02*
X114870714Y-76589285D01*
X114785000Y-76632142D01*
X114742142Y-76717857D01*
X114742142Y-76846428D01*
X114785000Y-76932142D01*
X114827857Y-76975000D01*
X114742142Y-76289285D02*
X114742142Y-75946428D01*
X114442142Y-76160714D02*
X115213571Y-76160714D01*
X115299285Y-76117857D01*
X115342142Y-76032142D01*
X115342142Y-75946428D01*
X115299285Y-75689285D02*
X115342142Y-75603571D01*
X115342142Y-75432142D01*
X115299285Y-75346428D01*
X115213571Y-75303571D01*
X115170714Y-75303571D01*
X115085000Y-75346428D01*
X115042142Y-75432142D01*
X115042142Y-75560714D01*
X114999285Y-75646428D01*
X114913571Y-75689285D01*
X114870714Y-75689285D01*
X114785000Y-75646428D01*
X114742142Y-75560714D01*
X114742142Y-75432142D01*
X114785000Y-75346428D01*
%TO.C,J4*%
X98405666Y-100296380D02*
X98405666Y-101010666D01*
X98358047Y-101153523D01*
X98262809Y-101248761D01*
X98119952Y-101296380D01*
X98024714Y-101296380D01*
X99310428Y-100629714D02*
X99310428Y-101296380D01*
X99072333Y-100248761D02*
X98834238Y-100963047D01*
X99453285Y-100963047D01*
X94174714Y-109246142D02*
X94174714Y-108346142D01*
X94517571Y-108346142D01*
X94603285Y-108389000D01*
X94646142Y-108431857D01*
X94689000Y-108517571D01*
X94689000Y-108646142D01*
X94646142Y-108731857D01*
X94603285Y-108774714D01*
X94517571Y-108817571D01*
X94174714Y-108817571D01*
X95460428Y-109246142D02*
X95460428Y-108774714D01*
X95417571Y-108689000D01*
X95331857Y-108646142D01*
X95160428Y-108646142D01*
X95074714Y-108689000D01*
X95460428Y-109203285D02*
X95374714Y-109246142D01*
X95160428Y-109246142D01*
X95074714Y-109203285D01*
X95031857Y-109117571D01*
X95031857Y-109031857D01*
X95074714Y-108946142D01*
X95160428Y-108903285D01*
X95374714Y-108903285D01*
X95460428Y-108860428D01*
X95889000Y-108646142D02*
X95889000Y-109246142D01*
X95889000Y-108731857D02*
X95931857Y-108689000D01*
X96017571Y-108646142D01*
X96146142Y-108646142D01*
X96231857Y-108689000D01*
X96274714Y-108774714D01*
X96274714Y-109246142D01*
X97046142Y-109203285D02*
X96960428Y-109246142D01*
X96789000Y-109246142D01*
X96703285Y-109203285D01*
X96660428Y-109117571D01*
X96660428Y-108774714D01*
X96703285Y-108689000D01*
X96789000Y-108646142D01*
X96960428Y-108646142D01*
X97046142Y-108689000D01*
X97089000Y-108774714D01*
X97089000Y-108860428D01*
X96660428Y-108946142D01*
X97603285Y-109246142D02*
X97517571Y-109203285D01*
X97474714Y-109117571D01*
X97474714Y-108346142D01*
X98931857Y-108774714D02*
X99060428Y-108817571D01*
X99103285Y-108860428D01*
X99146142Y-108946142D01*
X99146142Y-109074714D01*
X99103285Y-109160428D01*
X99060428Y-109203285D01*
X98974714Y-109246142D01*
X98631857Y-109246142D01*
X98631857Y-108346142D01*
X98931857Y-108346142D01*
X99017571Y-108389000D01*
X99060428Y-108431857D01*
X99103285Y-108517571D01*
X99103285Y-108603285D01*
X99060428Y-108689000D01*
X99017571Y-108731857D01*
X98931857Y-108774714D01*
X98631857Y-108774714D01*
X99917571Y-108646142D02*
X99917571Y-109246142D01*
X99531857Y-108646142D02*
X99531857Y-109117571D01*
X99574714Y-109203285D01*
X99660428Y-109246142D01*
X99789000Y-109246142D01*
X99874714Y-109203285D01*
X99917571Y-109160428D01*
X100217571Y-108646142D02*
X100560428Y-108646142D01*
X100346142Y-108346142D02*
X100346142Y-109117571D01*
X100389000Y-109203285D01*
X100474714Y-109246142D01*
X100560428Y-109246142D01*
X100731857Y-108646142D02*
X101074714Y-108646142D01*
X100860428Y-108346142D02*
X100860428Y-109117571D01*
X100903285Y-109203285D01*
X100989000Y-109246142D01*
X101074714Y-109246142D01*
X101503285Y-109246142D02*
X101417571Y-109203285D01*
X101374714Y-109160428D01*
X101331857Y-109074714D01*
X101331857Y-108817571D01*
X101374714Y-108731857D01*
X101417571Y-108689000D01*
X101503285Y-108646142D01*
X101631857Y-108646142D01*
X101717571Y-108689000D01*
X101760428Y-108731857D01*
X101803285Y-108817571D01*
X101803285Y-109074714D01*
X101760428Y-109160428D01*
X101717571Y-109203285D01*
X101631857Y-109246142D01*
X101503285Y-109246142D01*
X102189000Y-108646142D02*
X102189000Y-109246142D01*
X102189000Y-108731857D02*
X102231857Y-108689000D01*
X102317571Y-108646142D01*
X102446142Y-108646142D01*
X102531857Y-108689000D01*
X102574714Y-108774714D01*
X102574714Y-109246142D01*
X102960428Y-109203285D02*
X103046142Y-109246142D01*
X103217571Y-109246142D01*
X103303285Y-109203285D01*
X103346142Y-109117571D01*
X103346142Y-109074714D01*
X103303285Y-108989000D01*
X103217571Y-108946142D01*
X103089000Y-108946142D01*
X103003285Y-108903285D01*
X102960428Y-108817571D01*
X102960428Y-108774714D01*
X103003285Y-108689000D01*
X103089000Y-108646142D01*
X103217571Y-108646142D01*
X103303285Y-108689000D01*
%TO.C,J3*%
X69313380Y-97381333D02*
X70027666Y-97381333D01*
X70170523Y-97428952D01*
X70265761Y-97524190D01*
X70313380Y-97667047D01*
X70313380Y-97762285D01*
X69313380Y-97000380D02*
X69313380Y-96381333D01*
X69694333Y-96714666D01*
X69694333Y-96571809D01*
X69741952Y-96476571D01*
X69789571Y-96428952D01*
X69884809Y-96381333D01*
X70122904Y-96381333D01*
X70218142Y-96428952D01*
X70265761Y-96476571D01*
X70313380Y-96571809D01*
X70313380Y-96857523D01*
X70265761Y-96952761D01*
X70218142Y-97000380D01*
X61639571Y-100548000D02*
X61639571Y-100214666D01*
X62163380Y-100071809D02*
X62163380Y-100548000D01*
X61163380Y-100548000D01*
X61163380Y-100071809D01*
X62115761Y-99690857D02*
X62163380Y-99548000D01*
X62163380Y-99309904D01*
X62115761Y-99214666D01*
X62068142Y-99167047D01*
X61972904Y-99119428D01*
X61877666Y-99119428D01*
X61782428Y-99167047D01*
X61734809Y-99214666D01*
X61687190Y-99309904D01*
X61639571Y-99500380D01*
X61591952Y-99595619D01*
X61544333Y-99643238D01*
X61449095Y-99690857D01*
X61353857Y-99690857D01*
X61258619Y-99643238D01*
X61211000Y-99595619D01*
X61163380Y-99500380D01*
X61163380Y-99262285D01*
X61211000Y-99119428D01*
X62068142Y-98119428D02*
X62115761Y-98167047D01*
X62163380Y-98309904D01*
X62163380Y-98405142D01*
X62115761Y-98548000D01*
X62020523Y-98643238D01*
X61925285Y-98690857D01*
X61734809Y-98738476D01*
X61591952Y-98738476D01*
X61401476Y-98690857D01*
X61306238Y-98643238D01*
X61211000Y-98548000D01*
X61163380Y-98405142D01*
X61163380Y-98309904D01*
X61211000Y-98167047D01*
X61258619Y-98119428D01*
X62163380Y-96357523D02*
X61687190Y-96690857D01*
X62163380Y-96928952D02*
X61163380Y-96928952D01*
X61163380Y-96548000D01*
X61211000Y-96452761D01*
X61258619Y-96405142D01*
X61353857Y-96357523D01*
X61496714Y-96357523D01*
X61591952Y-96405142D01*
X61639571Y-96452761D01*
X61687190Y-96548000D01*
X61687190Y-96928952D01*
X62163380Y-95928952D02*
X61496714Y-95928952D01*
X61163380Y-95928952D02*
X61211000Y-95976571D01*
X61258619Y-95928952D01*
X61211000Y-95881333D01*
X61163380Y-95928952D01*
X61258619Y-95928952D01*
X61496714Y-95024190D02*
X62306238Y-95024190D01*
X62401476Y-95071809D01*
X62449095Y-95119428D01*
X62496714Y-95214666D01*
X62496714Y-95357523D01*
X62449095Y-95452761D01*
X62115761Y-95024190D02*
X62163380Y-95119428D01*
X62163380Y-95309904D01*
X62115761Y-95405142D01*
X62068142Y-95452761D01*
X61972904Y-95500380D01*
X61687190Y-95500380D01*
X61591952Y-95452761D01*
X61544333Y-95405142D01*
X61496714Y-95309904D01*
X61496714Y-95119428D01*
X61544333Y-95024190D01*
X62163380Y-94548000D02*
X61163380Y-94548000D01*
X62163380Y-94119428D02*
X61639571Y-94119428D01*
X61544333Y-94167047D01*
X61496714Y-94262285D01*
X61496714Y-94405142D01*
X61544333Y-94500380D01*
X61591952Y-94548000D01*
X61496714Y-93786095D02*
X61496714Y-93405142D01*
X61163380Y-93643238D02*
X62020523Y-93643238D01*
X62115761Y-93595619D01*
X62163380Y-93500380D01*
X62163380Y-93405142D01*
%TO.C,G2*%
G36*
X130385513Y-74524043D02*
G01*
X130523354Y-74543560D01*
X130617820Y-74571489D01*
X130652693Y-74604340D01*
X130651850Y-74609275D01*
X130630834Y-74639534D01*
X130582861Y-74653859D01*
X130491932Y-74653565D01*
X130342044Y-74639968D01*
X130314727Y-74636999D01*
X130185124Y-74613427D01*
X130105556Y-74581597D01*
X130082270Y-74549503D01*
X130121514Y-74525140D01*
X130220513Y-74516430D01*
X130385513Y-74524043D01*
G37*
D12*
X130385513Y-74524043D02*
X130523354Y-74543560D01*
X130617820Y-74571489D01*
X130652693Y-74604340D01*
X130651850Y-74609275D01*
X130630834Y-74639534D01*
X130582861Y-74653859D01*
X130491932Y-74653565D01*
X130342044Y-74639968D01*
X130314727Y-74636999D01*
X130185124Y-74613427D01*
X130105556Y-74581597D01*
X130082270Y-74549503D01*
X130121514Y-74525140D01*
X130220513Y-74516430D01*
X130385513Y-74524043D01*
G36*
X129917539Y-71204092D02*
G01*
X129936549Y-71247810D01*
X129930487Y-71292154D01*
X129898646Y-71365023D01*
X129825194Y-71389132D01*
X129799137Y-71389847D01*
X129718802Y-71379063D01*
X129686462Y-71353966D01*
X129716379Y-71249231D01*
X129801101Y-71198200D01*
X129841531Y-71194462D01*
X129917539Y-71204092D01*
G37*
X129917539Y-71204092D02*
X129936549Y-71247810D01*
X129930487Y-71292154D01*
X129898646Y-71365023D01*
X129825194Y-71389132D01*
X129799137Y-71389847D01*
X129718802Y-71379063D01*
X129686462Y-71353966D01*
X129716379Y-71249231D01*
X129801101Y-71198200D01*
X129841531Y-71194462D01*
X129917539Y-71204092D01*
G36*
X130223701Y-71240945D02*
G01*
X130319188Y-71254260D01*
X130357705Y-71285992D01*
X130360414Y-71356352D01*
X130359152Y-71370308D01*
X130341028Y-71493918D01*
X130305141Y-71558279D01*
X130233676Y-71582297D01*
X130156611Y-71585231D01*
X130053472Y-71578550D01*
X130007767Y-71552089D01*
X129999077Y-71509621D01*
X130012927Y-71415526D01*
X130038085Y-71331412D01*
X130075097Y-71263689D01*
X130134242Y-71238920D01*
X130223701Y-71240945D01*
G37*
X130223701Y-71240945D02*
X130319188Y-71254260D01*
X130357705Y-71285992D01*
X130360414Y-71356352D01*
X130359152Y-71370308D01*
X130341028Y-71493918D01*
X130305141Y-71558279D01*
X130233676Y-71582297D01*
X130156611Y-71585231D01*
X130053472Y-71578550D01*
X130007767Y-71552089D01*
X129999077Y-71509621D01*
X130012927Y-71415526D01*
X130038085Y-71331412D01*
X130075097Y-71263689D01*
X130134242Y-71238920D01*
X130223701Y-71240945D01*
G36*
X129852315Y-71559483D02*
G01*
X129881227Y-71607432D01*
X129881846Y-71621112D01*
X129864144Y-71741874D01*
X129803352Y-71803800D01*
X129701075Y-71819693D01*
X129612506Y-71814470D01*
X129582787Y-71786024D01*
X129592722Y-71715192D01*
X129593428Y-71712231D01*
X129623025Y-71608528D01*
X129660338Y-71560433D01*
X129727516Y-71546745D01*
X129766922Y-71546154D01*
X129852315Y-71559483D01*
G37*
X129852315Y-71559483D02*
X129881227Y-71607432D01*
X129881846Y-71621112D01*
X129864144Y-71741874D01*
X129803352Y-71803800D01*
X129701075Y-71819693D01*
X129612506Y-71814470D01*
X129582787Y-71786024D01*
X129592722Y-71715192D01*
X129593428Y-71712231D01*
X129623025Y-71608528D01*
X129660338Y-71560433D01*
X129727516Y-71546745D01*
X129766922Y-71546154D01*
X129852315Y-71559483D01*
G36*
X130412075Y-71944448D02*
G01*
X130393294Y-72065422D01*
X130374637Y-72153340D01*
X130365658Y-72178909D01*
X130319169Y-72195651D01*
X130218267Y-72207092D01*
X130110567Y-72210462D01*
X129874977Y-72210462D01*
X129900805Y-72044385D01*
X129925808Y-71893176D01*
X129953138Y-71803123D01*
X129998552Y-71758389D01*
X130077805Y-71743140D01*
X130202129Y-71741539D01*
X130438992Y-71741539D01*
X130412075Y-71944448D01*
G37*
X130412075Y-71944448D02*
X130393294Y-72065422D01*
X130374637Y-72153340D01*
X130365658Y-72178909D01*
X130319169Y-72195651D01*
X130218267Y-72207092D01*
X130110567Y-72210462D01*
X129874977Y-72210462D01*
X129900805Y-72044385D01*
X129925808Y-71893176D01*
X129953138Y-71803123D01*
X129998552Y-71758389D01*
X130077805Y-71743140D01*
X130202129Y-71741539D01*
X130438992Y-71741539D01*
X130412075Y-71944448D01*
G36*
X130865795Y-72377888D02*
G01*
X130976000Y-72405847D01*
X131025521Y-72425256D01*
X131012236Y-72435587D01*
X130929073Y-72440479D01*
X130907616Y-72441028D01*
X130806248Y-72435228D01*
X130747467Y-72416039D01*
X130741539Y-72405847D01*
X130774685Y-72374958D01*
X130865795Y-72377888D01*
G37*
X130865795Y-72377888D02*
X130976000Y-72405847D01*
X131025521Y-72425256D01*
X131012236Y-72435587D01*
X130929073Y-72440479D01*
X130907616Y-72441028D01*
X130806248Y-72435228D01*
X130747467Y-72416039D01*
X130741539Y-72405847D01*
X130774685Y-72374958D01*
X130865795Y-72377888D01*
G36*
X129738024Y-72302874D02*
G01*
X129821805Y-72381466D01*
X129949560Y-72413217D01*
X130050137Y-72431348D01*
X130084736Y-72467024D01*
X130083528Y-72484000D01*
X130053449Y-72611241D01*
X130016937Y-72757359D01*
X129979293Y-72902232D01*
X129945819Y-73025735D01*
X129921814Y-73107748D01*
X129913420Y-73129760D01*
X129877713Y-73115798D01*
X129798373Y-73066343D01*
X129715301Y-73008371D01*
X129614333Y-72923852D01*
X129548287Y-72846720D01*
X129532407Y-72806005D01*
X129543056Y-72735272D01*
X129568814Y-72615151D01*
X129604108Y-72471622D01*
X129604179Y-72471350D01*
X129673698Y-72204700D01*
X129738024Y-72302874D01*
G37*
X129738024Y-72302874D02*
X129821805Y-72381466D01*
X129949560Y-72413217D01*
X130050137Y-72431348D01*
X130084736Y-72467024D01*
X130083528Y-72484000D01*
X130053449Y-72611241D01*
X130016937Y-72757359D01*
X129979293Y-72902232D01*
X129945819Y-73025735D01*
X129921814Y-73107748D01*
X129913420Y-73129760D01*
X129877713Y-73115798D01*
X129798373Y-73066343D01*
X129715301Y-73008371D01*
X129614333Y-72923852D01*
X129548287Y-72846720D01*
X129532407Y-72806005D01*
X129543056Y-72735272D01*
X129568814Y-72615151D01*
X129604108Y-72471622D01*
X129604179Y-72471350D01*
X129673698Y-72204700D01*
X129738024Y-72302874D01*
G36*
X129109907Y-72061677D02*
G01*
X129166141Y-72068188D01*
X129157179Y-72079409D01*
X129110318Y-72092247D01*
X128959316Y-72149025D01*
X128880926Y-72233060D01*
X128873003Y-72348808D01*
X128923151Y-72481467D01*
X129027219Y-72622518D01*
X129201579Y-72782942D01*
X129441664Y-72959656D01*
X129742908Y-73149574D01*
X130100745Y-73349614D01*
X130510609Y-73556693D01*
X130526901Y-73564540D01*
X130695709Y-73646897D01*
X130835552Y-73717378D01*
X130933166Y-73769131D01*
X130975287Y-73795303D01*
X130976000Y-73796554D01*
X130976360Y-73805467D01*
X130968623Y-73808250D01*
X130939566Y-73800712D01*
X130875968Y-73778660D01*
X130764605Y-73737904D01*
X130604769Y-73678871D01*
X130424473Y-73610837D01*
X130247495Y-73541580D01*
X130103441Y-73482763D01*
X130064222Y-73465899D01*
X129942972Y-73413259D01*
X129876750Y-73389959D01*
X129848917Y-73394157D01*
X129842837Y-73424011D01*
X129842769Y-73441385D01*
X129831549Y-73485834D01*
X129789311Y-73494617D01*
X129703186Y-73466344D01*
X129589815Y-73414060D01*
X129478151Y-73350792D01*
X129424539Y-73291363D01*
X129411846Y-73228445D01*
X129395831Y-73163052D01*
X129340718Y-73095758D01*
X129233667Y-73012735D01*
X129174089Y-72972462D01*
X128989973Y-72836989D01*
X128824338Y-72689375D01*
X128688756Y-72542384D01*
X128594800Y-72408781D01*
X128554042Y-72301330D01*
X128553231Y-72287683D01*
X128579084Y-72177163D01*
X128660618Y-72104322D01*
X128803792Y-72065969D01*
X128982003Y-72058154D01*
X129109907Y-72061677D01*
G37*
X129109907Y-72061677D02*
X129166141Y-72068188D01*
X129157179Y-72079409D01*
X129110318Y-72092247D01*
X128959316Y-72149025D01*
X128880926Y-72233060D01*
X128873003Y-72348808D01*
X128923151Y-72481467D01*
X129027219Y-72622518D01*
X129201579Y-72782942D01*
X129441664Y-72959656D01*
X129742908Y-73149574D01*
X130100745Y-73349614D01*
X130510609Y-73556693D01*
X130526901Y-73564540D01*
X130695709Y-73646897D01*
X130835552Y-73717378D01*
X130933166Y-73769131D01*
X130975287Y-73795303D01*
X130976000Y-73796554D01*
X130976360Y-73805467D01*
X130968623Y-73808250D01*
X130939566Y-73800712D01*
X130875968Y-73778660D01*
X130764605Y-73737904D01*
X130604769Y-73678871D01*
X130424473Y-73610837D01*
X130247495Y-73541580D01*
X130103441Y-73482763D01*
X130064222Y-73465899D01*
X129942972Y-73413259D01*
X129876750Y-73389959D01*
X129848917Y-73394157D01*
X129842837Y-73424011D01*
X129842769Y-73441385D01*
X129831549Y-73485834D01*
X129789311Y-73494617D01*
X129703186Y-73466344D01*
X129589815Y-73414060D01*
X129478151Y-73350792D01*
X129424539Y-73291363D01*
X129411846Y-73228445D01*
X129395831Y-73163052D01*
X129340718Y-73095758D01*
X129233667Y-73012735D01*
X129174089Y-72972462D01*
X128989973Y-72836989D01*
X128824338Y-72689375D01*
X128688756Y-72542384D01*
X128594800Y-72408781D01*
X128554042Y-72301330D01*
X128553231Y-72287683D01*
X128579084Y-72177163D01*
X128660618Y-72104322D01*
X128803792Y-72065969D01*
X128982003Y-72058154D01*
X129109907Y-72061677D01*
G36*
X130930738Y-71683820D02*
G01*
X131128490Y-71708380D01*
X131244432Y-71722937D01*
X131503184Y-71758614D01*
X131697761Y-71795471D01*
X131842072Y-71837986D01*
X131950026Y-71890638D01*
X132035532Y-71957905D01*
X132063648Y-71986726D01*
X132125668Y-72067862D01*
X132168300Y-72161642D01*
X132190906Y-72276392D01*
X132192849Y-72420440D01*
X132173490Y-72602112D01*
X132132190Y-72829734D01*
X132068313Y-73111632D01*
X131981220Y-73456134D01*
X131938700Y-73617231D01*
X131884050Y-73818306D01*
X131842621Y-73955755D01*
X131808885Y-74041821D01*
X131777312Y-74088749D01*
X131742371Y-74108784D01*
X131714696Y-74113228D01*
X131625558Y-74113801D01*
X131581693Y-74106877D01*
X131516263Y-74088507D01*
X131439674Y-74070424D01*
X131336732Y-74047857D01*
X131507888Y-73392929D01*
X131581060Y-73106066D01*
X131632507Y-72883677D01*
X131663017Y-72715396D01*
X131673376Y-72590854D01*
X131664368Y-72499685D01*
X131636781Y-72431520D01*
X131591401Y-72375993D01*
X131585424Y-72370275D01*
X131526714Y-72327706D01*
X131443282Y-72294055D01*
X131319464Y-72265057D01*
X131139594Y-72236447D01*
X131048894Y-72224216D01*
X130873120Y-72200715D01*
X130729006Y-72180406D01*
X130632270Y-72165574D01*
X130598634Y-72158737D01*
X130597875Y-72119083D01*
X130603526Y-72023328D01*
X130613053Y-71907215D01*
X130620787Y-71808853D01*
X130631082Y-71739474D01*
X130655581Y-71695680D01*
X130705927Y-71674072D01*
X130793765Y-71671251D01*
X130930738Y-71683820D01*
G37*
X130930738Y-71683820D02*
X131128490Y-71708380D01*
X131244432Y-71722937D01*
X131503184Y-71758614D01*
X131697761Y-71795471D01*
X131842072Y-71837986D01*
X131950026Y-71890638D01*
X132035532Y-71957905D01*
X132063648Y-71986726D01*
X132125668Y-72067862D01*
X132168300Y-72161642D01*
X132190906Y-72276392D01*
X132192849Y-72420440D01*
X132173490Y-72602112D01*
X132132190Y-72829734D01*
X132068313Y-73111632D01*
X131981220Y-73456134D01*
X131938700Y-73617231D01*
X131884050Y-73818306D01*
X131842621Y-73955755D01*
X131808885Y-74041821D01*
X131777312Y-74088749D01*
X131742371Y-74108784D01*
X131714696Y-74113228D01*
X131625558Y-74113801D01*
X131581693Y-74106877D01*
X131516263Y-74088507D01*
X131439674Y-74070424D01*
X131336732Y-74047857D01*
X131507888Y-73392929D01*
X131581060Y-73106066D01*
X131632507Y-72883677D01*
X131663017Y-72715396D01*
X131673376Y-72590854D01*
X131664368Y-72499685D01*
X131636781Y-72431520D01*
X131591401Y-72375993D01*
X131585424Y-72370275D01*
X131526714Y-72327706D01*
X131443282Y-72294055D01*
X131319464Y-72265057D01*
X131139594Y-72236447D01*
X131048894Y-72224216D01*
X130873120Y-72200715D01*
X130729006Y-72180406D01*
X130632270Y-72165574D01*
X130598634Y-72158737D01*
X130597875Y-72119083D01*
X130603526Y-72023328D01*
X130613053Y-71907215D01*
X130620787Y-71808853D01*
X130631082Y-71739474D01*
X130655581Y-71695680D01*
X130705927Y-71674072D01*
X130793765Y-71671251D01*
X130930738Y-71683820D01*
G36*
X134490328Y-72748597D02*
G01*
X134547275Y-72574775D01*
X134602835Y-72444255D01*
X134661327Y-72345860D01*
X134727074Y-72268416D01*
X134751612Y-72245087D01*
X134845449Y-72172298D01*
X134951340Y-72119969D01*
X135083594Y-72085069D01*
X135256525Y-72064568D01*
X135484442Y-72055436D01*
X135653464Y-72054154D01*
X135916275Y-72058341D01*
X136112767Y-72072769D01*
X136254420Y-72100237D01*
X136352714Y-72143546D01*
X136419128Y-72205497D01*
X136445611Y-72247374D01*
X136477084Y-72362390D01*
X136483412Y-72525310D01*
X136464726Y-72710085D01*
X136442761Y-72815886D01*
X136431726Y-72865737D01*
X136421576Y-72905599D01*
X136404315Y-72939423D01*
X136371948Y-72971161D01*
X136316481Y-73004766D01*
X136229917Y-73044188D01*
X136104263Y-73093379D01*
X135931523Y-73156292D01*
X135703702Y-73236878D01*
X135412805Y-73339089D01*
X135313539Y-73374032D01*
X135106852Y-73447427D01*
X134962709Y-73501582D01*
X134869845Y-73542958D01*
X134816994Y-73578012D01*
X134792893Y-73613204D01*
X134786275Y-73654990D01*
X134786000Y-73676493D01*
X134786000Y-73793077D01*
X135479616Y-73803748D01*
X135702657Y-73809057D01*
X135895914Y-73817244D01*
X136046968Y-73827486D01*
X136143402Y-73838964D01*
X136173231Y-73849613D01*
X136165010Y-73905286D01*
X136143988Y-74009106D01*
X136127443Y-74083173D01*
X136081654Y-74281539D01*
X135316596Y-74280963D01*
X135002809Y-74278498D01*
X134762597Y-74271465D01*
X134591503Y-74259610D01*
X134485068Y-74242678D01*
X134453846Y-74231808D01*
X134374365Y-74165841D01*
X134298386Y-74062358D01*
X134282417Y-74032534D01*
X134208681Y-73881837D01*
X134354988Y-73270842D01*
X134404546Y-73070420D01*
X134914022Y-73070420D01*
X135447366Y-72884672D01*
X135658461Y-72809827D01*
X135805667Y-72753475D01*
X135899529Y-72710286D01*
X135950592Y-72674931D01*
X135969400Y-72642080D01*
X135969509Y-72620770D01*
X135957052Y-72583398D01*
X135922504Y-72559282D01*
X135850648Y-72544713D01*
X135726269Y-72535983D01*
X135603032Y-72531462D01*
X135374631Y-72529522D01*
X135210645Y-72545577D01*
X135097993Y-72587480D01*
X135023596Y-72663086D01*
X134974376Y-72780251D01*
X134940487Y-72929346D01*
X134914022Y-73070420D01*
X134404546Y-73070420D01*
X134427673Y-72976894D01*
X134490328Y-72748597D01*
G37*
X134490328Y-72748597D02*
X134547275Y-72574775D01*
X134602835Y-72444255D01*
X134661327Y-72345860D01*
X134727074Y-72268416D01*
X134751612Y-72245087D01*
X134845449Y-72172298D01*
X134951340Y-72119969D01*
X135083594Y-72085069D01*
X135256525Y-72064568D01*
X135484442Y-72055436D01*
X135653464Y-72054154D01*
X135916275Y-72058341D01*
X136112767Y-72072769D01*
X136254420Y-72100237D01*
X136352714Y-72143546D01*
X136419128Y-72205497D01*
X136445611Y-72247374D01*
X136477084Y-72362390D01*
X136483412Y-72525310D01*
X136464726Y-72710085D01*
X136442761Y-72815886D01*
X136431726Y-72865737D01*
X136421576Y-72905599D01*
X136404315Y-72939423D01*
X136371948Y-72971161D01*
X136316481Y-73004766D01*
X136229917Y-73044188D01*
X136104263Y-73093379D01*
X135931523Y-73156292D01*
X135703702Y-73236878D01*
X135412805Y-73339089D01*
X135313539Y-73374032D01*
X135106852Y-73447427D01*
X134962709Y-73501582D01*
X134869845Y-73542958D01*
X134816994Y-73578012D01*
X134792893Y-73613204D01*
X134786275Y-73654990D01*
X134786000Y-73676493D01*
X134786000Y-73793077D01*
X135479616Y-73803748D01*
X135702657Y-73809057D01*
X135895914Y-73817244D01*
X136046968Y-73827486D01*
X136143402Y-73838964D01*
X136173231Y-73849613D01*
X136165010Y-73905286D01*
X136143988Y-74009106D01*
X136127443Y-74083173D01*
X136081654Y-74281539D01*
X135316596Y-74280963D01*
X135002809Y-74278498D01*
X134762597Y-74271465D01*
X134591503Y-74259610D01*
X134485068Y-74242678D01*
X134453846Y-74231808D01*
X134374365Y-74165841D01*
X134298386Y-74062358D01*
X134282417Y-74032534D01*
X134208681Y-73881837D01*
X134354988Y-73270842D01*
X134404546Y-73070420D01*
X134914022Y-73070420D01*
X135447366Y-72884672D01*
X135658461Y-72809827D01*
X135805667Y-72753475D01*
X135899529Y-72710286D01*
X135950592Y-72674931D01*
X135969400Y-72642080D01*
X135969509Y-72620770D01*
X135957052Y-72583398D01*
X135922504Y-72559282D01*
X135850648Y-72544713D01*
X135726269Y-72535983D01*
X135603032Y-72531462D01*
X135374631Y-72529522D01*
X135210645Y-72545577D01*
X135097993Y-72587480D01*
X135023596Y-72663086D01*
X134974376Y-72780251D01*
X134940487Y-72929346D01*
X134914022Y-73070420D01*
X134404546Y-73070420D01*
X134427673Y-72976894D01*
X134490328Y-72748597D01*
G36*
X133753283Y-72057243D02*
G01*
X133955514Y-72071209D01*
X134110811Y-72103104D01*
X134222341Y-72159979D01*
X134293273Y-72248884D01*
X134326776Y-72376871D01*
X134326020Y-72550991D01*
X134294173Y-72778294D01*
X134234404Y-73065831D01*
X134149882Y-73420654D01*
X134137585Y-73470693D01*
X133937956Y-74281539D01*
X133685268Y-74281539D01*
X133549181Y-74279137D01*
X133475744Y-74268899D01*
X133449518Y-74246281D01*
X133453048Y-74213154D01*
X133486584Y-74093316D01*
X133529745Y-73927808D01*
X133578923Y-73731782D01*
X133630511Y-73520389D01*
X133680901Y-73308779D01*
X133726486Y-73112104D01*
X133763659Y-72945514D01*
X133788813Y-72824161D01*
X133798340Y-72763196D01*
X133798345Y-72762864D01*
X133787519Y-72691335D01*
X133744981Y-72644171D01*
X133658303Y-72616683D01*
X133515060Y-72604181D01*
X133371641Y-72601830D01*
X133203901Y-72604852D01*
X133076756Y-72621352D01*
X132980985Y-72661408D01*
X132907369Y-72735099D01*
X132846688Y-72852501D01*
X132789721Y-73023694D01*
X132727249Y-73258755D01*
X132710822Y-73324154D01*
X132658271Y-73533802D01*
X132609219Y-73728551D01*
X132568361Y-73889825D01*
X132540392Y-73999044D01*
X132535509Y-74017770D01*
X132496988Y-74164308D01*
X132264032Y-74164308D01*
X132129238Y-74159970D01*
X132056932Y-74144317D01*
X132031798Y-74113391D01*
X132031077Y-74104116D01*
X132041376Y-74030631D01*
X132069606Y-73897235D01*
X132111766Y-73719029D01*
X132163855Y-73511117D01*
X132221873Y-73288602D01*
X132281819Y-73066584D01*
X132339691Y-72860167D01*
X132391490Y-72684453D01*
X132433214Y-72554544D01*
X132458894Y-72489176D01*
X132574926Y-72317605D01*
X132722376Y-72176995D01*
X132864006Y-72095717D01*
X132943555Y-72080178D01*
X133082756Y-72067282D01*
X133263122Y-72058235D01*
X133466163Y-72054243D01*
X133500946Y-72054154D01*
X133753283Y-72057243D01*
G37*
X133753283Y-72057243D02*
X133955514Y-72071209D01*
X134110811Y-72103104D01*
X134222341Y-72159979D01*
X134293273Y-72248884D01*
X134326776Y-72376871D01*
X134326020Y-72550991D01*
X134294173Y-72778294D01*
X134234404Y-73065831D01*
X134149882Y-73420654D01*
X134137585Y-73470693D01*
X133937956Y-74281539D01*
X133685268Y-74281539D01*
X133549181Y-74279137D01*
X133475744Y-74268899D01*
X133449518Y-74246281D01*
X133453048Y-74213154D01*
X133486584Y-74093316D01*
X133529745Y-73927808D01*
X133578923Y-73731782D01*
X133630511Y-73520389D01*
X133680901Y-73308779D01*
X133726486Y-73112104D01*
X133763659Y-72945514D01*
X133788813Y-72824161D01*
X133798340Y-72763196D01*
X133798345Y-72762864D01*
X133787519Y-72691335D01*
X133744981Y-72644171D01*
X133658303Y-72616683D01*
X133515060Y-72604181D01*
X133371641Y-72601830D01*
X133203901Y-72604852D01*
X133076756Y-72621352D01*
X132980985Y-72661408D01*
X132907369Y-72735099D01*
X132846688Y-72852501D01*
X132789721Y-73023694D01*
X132727249Y-73258755D01*
X132710822Y-73324154D01*
X132658271Y-73533802D01*
X132609219Y-73728551D01*
X132568361Y-73889825D01*
X132540392Y-73999044D01*
X132535509Y-74017770D01*
X132496988Y-74164308D01*
X132264032Y-74164308D01*
X132129238Y-74159970D01*
X132056932Y-74144317D01*
X132031798Y-74113391D01*
X132031077Y-74104116D01*
X132041376Y-74030631D01*
X132069606Y-73897235D01*
X132111766Y-73719029D01*
X132163855Y-73511117D01*
X132221873Y-73288602D01*
X132281819Y-73066584D01*
X132339691Y-72860167D01*
X132391490Y-72684453D01*
X132433214Y-72554544D01*
X132458894Y-72489176D01*
X132574926Y-72317605D01*
X132722376Y-72176995D01*
X132864006Y-72095717D01*
X132943555Y-72080178D01*
X133082756Y-72067282D01*
X133263122Y-72058235D01*
X133466163Y-72054243D01*
X133500946Y-72054154D01*
X133753283Y-72057243D01*
G36*
X135945785Y-74759278D02*
G01*
X135978867Y-74779770D01*
X135970140Y-74828446D01*
X135945937Y-74933791D01*
X135910688Y-75076899D01*
X135892639Y-75147668D01*
X135850036Y-75308610D01*
X135817123Y-75409069D01*
X135784504Y-75464349D01*
X135742784Y-75489754D01*
X135682568Y-75500590D01*
X135675471Y-75501426D01*
X135587874Y-75504231D01*
X135562122Y-75480737D01*
X135566481Y-75462051D01*
X135592204Y-75382215D01*
X135611684Y-75310796D01*
X135621435Y-75248768D01*
X135595588Y-75224073D01*
X135515405Y-75224166D01*
X135485757Y-75226503D01*
X135383319Y-75243640D01*
X135329743Y-75287002D01*
X135299356Y-75365924D01*
X135261564Y-75455336D01*
X135201589Y-75489467D01*
X135151578Y-75492924D01*
X135092595Y-75489841D01*
X135058446Y-75471859D01*
X135048452Y-75425879D01*
X135061931Y-75338799D01*
X135098203Y-75197519D01*
X135130249Y-75082616D01*
X135174935Y-74929256D01*
X135209845Y-74835693D01*
X135245242Y-74786181D01*
X135291390Y-74764975D01*
X135341930Y-74757909D01*
X135424032Y-74753977D01*
X135449766Y-74778817D01*
X135434793Y-74853542D01*
X135428708Y-74874882D01*
X135403882Y-74964048D01*
X135391893Y-75012230D01*
X135391693Y-75013973D01*
X135426381Y-75020285D01*
X135512912Y-75023764D01*
X135546229Y-75024000D01*
X135647126Y-75018367D01*
X135696660Y-74987977D01*
X135721492Y-74912595D01*
X135726425Y-74887231D01*
X135752746Y-74794392D01*
X135799243Y-74756584D01*
X135864964Y-74750462D01*
X135945785Y-74759278D01*
G37*
X135945785Y-74759278D02*
X135978867Y-74779770D01*
X135970140Y-74828446D01*
X135945937Y-74933791D01*
X135910688Y-75076899D01*
X135892639Y-75147668D01*
X135850036Y-75308610D01*
X135817123Y-75409069D01*
X135784504Y-75464349D01*
X135742784Y-75489754D01*
X135682568Y-75500590D01*
X135675471Y-75501426D01*
X135587874Y-75504231D01*
X135562122Y-75480737D01*
X135566481Y-75462051D01*
X135592204Y-75382215D01*
X135611684Y-75310796D01*
X135621435Y-75248768D01*
X135595588Y-75224073D01*
X135515405Y-75224166D01*
X135485757Y-75226503D01*
X135383319Y-75243640D01*
X135329743Y-75287002D01*
X135299356Y-75365924D01*
X135261564Y-75455336D01*
X135201589Y-75489467D01*
X135151578Y-75492924D01*
X135092595Y-75489841D01*
X135058446Y-75471859D01*
X135048452Y-75425879D01*
X135061931Y-75338799D01*
X135098203Y-75197519D01*
X135130249Y-75082616D01*
X135174935Y-74929256D01*
X135209845Y-74835693D01*
X135245242Y-74786181D01*
X135291390Y-74764975D01*
X135341930Y-74757909D01*
X135424032Y-74753977D01*
X135449766Y-74778817D01*
X135434793Y-74853542D01*
X135428708Y-74874882D01*
X135403882Y-74964048D01*
X135391893Y-75012230D01*
X135391693Y-75013973D01*
X135426381Y-75020285D01*
X135512912Y-75023764D01*
X135546229Y-75024000D01*
X135647126Y-75018367D01*
X135696660Y-74987977D01*
X135721492Y-74912595D01*
X135726425Y-74887231D01*
X135752746Y-74794392D01*
X135799243Y-74756584D01*
X135864964Y-74750462D01*
X135945785Y-74759278D01*
G36*
X134931883Y-74752439D02*
G01*
X135022683Y-74760341D01*
X135062811Y-74777119D01*
X135065982Y-74805727D01*
X135063719Y-74812273D01*
X135042672Y-74885503D01*
X135040000Y-74908101D01*
X135004446Y-74927583D01*
X134911852Y-74944379D01*
X134799930Y-74953751D01*
X134559860Y-74965385D01*
X134511521Y-75129617D01*
X134486565Y-75233913D01*
X134480592Y-75303327D01*
X134484565Y-75315232D01*
X134532543Y-75327116D01*
X134633127Y-75334880D01*
X134718540Y-75336616D01*
X134840736Y-75340128D01*
X134900141Y-75353978D01*
X134911935Y-75383131D01*
X134907412Y-75398427D01*
X134886525Y-75466632D01*
X134883693Y-75486350D01*
X134848583Y-75502942D01*
X134758123Y-75511413D01*
X134634615Y-75512467D01*
X134500364Y-75506809D01*
X134377673Y-75495144D01*
X134288844Y-75478176D01*
X134262340Y-75466719D01*
X134231172Y-75435903D01*
X134220533Y-75391005D01*
X134230852Y-75312677D01*
X134262553Y-75181571D01*
X134269188Y-75156124D01*
X134321591Y-74975524D01*
X134376593Y-74858216D01*
X134451130Y-74790662D01*
X134562136Y-74759325D01*
X134726547Y-74750669D01*
X134776699Y-74750462D01*
X134931883Y-74752439D01*
G37*
X134931883Y-74752439D02*
X135022683Y-74760341D01*
X135062811Y-74777119D01*
X135065982Y-74805727D01*
X135063719Y-74812273D01*
X135042672Y-74885503D01*
X135040000Y-74908101D01*
X135004446Y-74927583D01*
X134911852Y-74944379D01*
X134799930Y-74953751D01*
X134559860Y-74965385D01*
X134511521Y-75129617D01*
X134486565Y-75233913D01*
X134480592Y-75303327D01*
X134484565Y-75315232D01*
X134532543Y-75327116D01*
X134633127Y-75334880D01*
X134718540Y-75336616D01*
X134840736Y-75340128D01*
X134900141Y-75353978D01*
X134911935Y-75383131D01*
X134907412Y-75398427D01*
X134886525Y-75466632D01*
X134883693Y-75486350D01*
X134848583Y-75502942D01*
X134758123Y-75511413D01*
X134634615Y-75512467D01*
X134500364Y-75506809D01*
X134377673Y-75495144D01*
X134288844Y-75478176D01*
X134262340Y-75466719D01*
X134231172Y-75435903D01*
X134220533Y-75391005D01*
X134230852Y-75312677D01*
X134262553Y-75181571D01*
X134269188Y-75156124D01*
X134321591Y-74975524D01*
X134376593Y-74858216D01*
X134451130Y-74790662D01*
X134562136Y-74759325D01*
X134726547Y-74750669D01*
X134776699Y-74750462D01*
X134931883Y-74752439D01*
G36*
X134190437Y-74765785D02*
G01*
X134219385Y-74799432D01*
X134207097Y-74881501D01*
X134175405Y-75005953D01*
X134132071Y-75148682D01*
X134084854Y-75285579D01*
X134041515Y-75392538D01*
X134012084Y-75443433D01*
X133942511Y-75474039D01*
X133821774Y-75494858D01*
X133676371Y-75504866D01*
X133532800Y-75503040D01*
X133417558Y-75488357D01*
X133365794Y-75468392D01*
X133337166Y-75439536D01*
X133325883Y-75395827D01*
X133332660Y-75320257D01*
X133358214Y-75195814D01*
X133381457Y-75096494D01*
X133420239Y-74938756D01*
X133450806Y-74841581D01*
X133482536Y-74789385D01*
X133524808Y-74766583D01*
X133585300Y-74757755D01*
X133671204Y-74752748D01*
X133711043Y-74757001D01*
X133711385Y-74757880D01*
X133701441Y-74798670D01*
X133675216Y-74894775D01*
X133638118Y-75026425D01*
X133633231Y-75043539D01*
X133595200Y-75178084D01*
X133567397Y-75279417D01*
X133555230Y-75327781D01*
X133555077Y-75329081D01*
X133589484Y-75334100D01*
X133674824Y-75331209D01*
X133701477Y-75329205D01*
X133776588Y-75320384D01*
X133825289Y-75298205D01*
X133860122Y-75246110D01*
X133893631Y-75147542D01*
X133925271Y-75033770D01*
X133966905Y-74889031D01*
X134000394Y-74804290D01*
X134036174Y-74763631D01*
X134084679Y-74751138D01*
X134111025Y-74750462D01*
X134190437Y-74765785D01*
G37*
X134190437Y-74765785D02*
X134219385Y-74799432D01*
X134207097Y-74881501D01*
X134175405Y-75005953D01*
X134132071Y-75148682D01*
X134084854Y-75285579D01*
X134041515Y-75392538D01*
X134012084Y-75443433D01*
X133942511Y-75474039D01*
X133821774Y-75494858D01*
X133676371Y-75504866D01*
X133532800Y-75503040D01*
X133417558Y-75488357D01*
X133365794Y-75468392D01*
X133337166Y-75439536D01*
X133325883Y-75395827D01*
X133332660Y-75320257D01*
X133358214Y-75195814D01*
X133381457Y-75096494D01*
X133420239Y-74938756D01*
X133450806Y-74841581D01*
X133482536Y-74789385D01*
X133524808Y-74766583D01*
X133585300Y-74757755D01*
X133671204Y-74752748D01*
X133711043Y-74757001D01*
X133711385Y-74757880D01*
X133701441Y-74798670D01*
X133675216Y-74894775D01*
X133638118Y-75026425D01*
X133633231Y-75043539D01*
X133595200Y-75178084D01*
X133567397Y-75279417D01*
X133555230Y-75327781D01*
X133555077Y-75329081D01*
X133589484Y-75334100D01*
X133674824Y-75331209D01*
X133701477Y-75329205D01*
X133776588Y-75320384D01*
X133825289Y-75298205D01*
X133860122Y-75246110D01*
X133893631Y-75147542D01*
X133925271Y-75033770D01*
X133966905Y-74889031D01*
X134000394Y-74804290D01*
X134036174Y-74763631D01*
X134084679Y-74751138D01*
X134111025Y-74750462D01*
X134190437Y-74765785D01*
G36*
X132534933Y-74959775D02*
G01*
X132603489Y-74844132D01*
X132700868Y-74779848D01*
X132843178Y-74753563D01*
X132948929Y-74750462D01*
X133117446Y-74757897D01*
X133219236Y-74788871D01*
X133265016Y-74856386D01*
X133265499Y-74973447D01*
X133241697Y-75105756D01*
X133194104Y-75288632D01*
X133134944Y-75407851D01*
X133049896Y-75477862D01*
X132924634Y-75513115D01*
X132827726Y-75523341D01*
X132681146Y-75527754D01*
X132584493Y-75511757D01*
X132511134Y-75470650D01*
X132505981Y-75466547D01*
X132415210Y-75393045D01*
X132461915Y-75208134D01*
X132698870Y-75208134D01*
X132702049Y-75291320D01*
X132751050Y-75329946D01*
X132813583Y-75336616D01*
X132912256Y-75317069D01*
X132963882Y-75249466D01*
X132964169Y-75248693D01*
X132998931Y-75140658D01*
X133022561Y-75053308D01*
X133033634Y-74980984D01*
X133005634Y-74951530D01*
X132919425Y-74945849D01*
X132914875Y-74945847D01*
X132817854Y-74957068D01*
X132764787Y-75005960D01*
X132738284Y-75068909D01*
X132698870Y-75208134D01*
X132461915Y-75208134D01*
X132479090Y-75140138D01*
X132534933Y-74959775D01*
G37*
X132534933Y-74959775D02*
X132603489Y-74844132D01*
X132700868Y-74779848D01*
X132843178Y-74753563D01*
X132948929Y-74750462D01*
X133117446Y-74757897D01*
X133219236Y-74788871D01*
X133265016Y-74856386D01*
X133265499Y-74973447D01*
X133241697Y-75105756D01*
X133194104Y-75288632D01*
X133134944Y-75407851D01*
X133049896Y-75477862D01*
X132924634Y-75513115D01*
X132827726Y-75523341D01*
X132681146Y-75527754D01*
X132584493Y-75511757D01*
X132511134Y-75470650D01*
X132505981Y-75466547D01*
X132415210Y-75393045D01*
X132461915Y-75208134D01*
X132698870Y-75208134D01*
X132702049Y-75291320D01*
X132751050Y-75329946D01*
X132813583Y-75336616D01*
X132912256Y-75317069D01*
X132963882Y-75249466D01*
X132964169Y-75248693D01*
X132998931Y-75140658D01*
X133022561Y-75053308D01*
X133033634Y-74980984D01*
X133005634Y-74951530D01*
X132919425Y-74945849D01*
X132914875Y-74945847D01*
X132817854Y-74957068D01*
X132764787Y-75005960D01*
X132738284Y-75068909D01*
X132698870Y-75208134D01*
X132461915Y-75208134D01*
X132479090Y-75140138D01*
X132534933Y-74959775D01*
G36*
X132318157Y-74751346D02*
G01*
X132421554Y-74756469D01*
X132475634Y-74769539D01*
X132494815Y-74794262D01*
X132493514Y-74834347D01*
X132492949Y-74838385D01*
X132461978Y-74905637D01*
X132380702Y-74935474D01*
X132357031Y-74938287D01*
X132292599Y-74949016D01*
X132249166Y-74977108D01*
X132215361Y-75039340D01*
X132179813Y-75152487D01*
X132158376Y-75231364D01*
X132118042Y-75375296D01*
X132085072Y-75460231D01*
X132047786Y-75502967D01*
X131994503Y-75520304D01*
X131954140Y-75525101D01*
X131867715Y-75526567D01*
X131842178Y-75502732D01*
X131847785Y-75478699D01*
X131871302Y-75405472D01*
X131902939Y-75293123D01*
X131914008Y-75251137D01*
X131945526Y-75131061D01*
X131971647Y-75034628D01*
X131977421Y-75014231D01*
X131974294Y-74962722D01*
X131912697Y-74946101D01*
X131896941Y-74945847D01*
X131821249Y-74930670D01*
X131797247Y-74870183D01*
X131796616Y-74848154D01*
X131799384Y-74802050D01*
X131817675Y-74773359D01*
X131866472Y-74757952D01*
X131960757Y-74751698D01*
X132115511Y-74750468D01*
X132151026Y-74750462D01*
X132318157Y-74751346D01*
G37*
X132318157Y-74751346D02*
X132421554Y-74756469D01*
X132475634Y-74769539D01*
X132494815Y-74794262D01*
X132493514Y-74834347D01*
X132492949Y-74838385D01*
X132461978Y-74905637D01*
X132380702Y-74935474D01*
X132357031Y-74938287D01*
X132292599Y-74949016D01*
X132249166Y-74977108D01*
X132215361Y-75039340D01*
X132179813Y-75152487D01*
X132158376Y-75231364D01*
X132118042Y-75375296D01*
X132085072Y-75460231D01*
X132047786Y-75502967D01*
X131994503Y-75520304D01*
X131954140Y-75525101D01*
X131867715Y-75526567D01*
X131842178Y-75502732D01*
X131847785Y-75478699D01*
X131871302Y-75405472D01*
X131902939Y-75293123D01*
X131914008Y-75251137D01*
X131945526Y-75131061D01*
X131971647Y-75034628D01*
X131977421Y-75014231D01*
X131974294Y-74962722D01*
X131912697Y-74946101D01*
X131896941Y-74945847D01*
X131821249Y-74930670D01*
X131797247Y-74870183D01*
X131796616Y-74848154D01*
X131799384Y-74802050D01*
X131817675Y-74773359D01*
X131866472Y-74757952D01*
X131960757Y-74751698D01*
X132115511Y-74750468D01*
X132151026Y-74750462D01*
X132318157Y-74751346D01*
G36*
X129142011Y-74299947D02*
G01*
X129206031Y-74032612D01*
X129351820Y-73451532D01*
X129235833Y-73357432D01*
X129231800Y-73343670D01*
X129289346Y-73361142D01*
X129400024Y-73406376D01*
X129555387Y-73475901D01*
X129746988Y-73566245D01*
X129764616Y-73574744D01*
X130155221Y-73754012D01*
X130554933Y-73920240D01*
X130946377Y-74067044D01*
X131312180Y-74188037D01*
X131634968Y-74276835D01*
X131736860Y-74299601D01*
X132065775Y-74349507D01*
X132341918Y-74353205D01*
X132562231Y-74311202D01*
X132723651Y-74224004D01*
X132808262Y-74122169D01*
X132841273Y-74044460D01*
X132835623Y-73972413D01*
X132800052Y-73887707D01*
X132735996Y-73754000D01*
X132871998Y-73907049D01*
X132980199Y-74067850D01*
X133013694Y-74219718D01*
X132972336Y-74358085D01*
X132889619Y-74452356D01*
X132760346Y-74534328D01*
X132603336Y-74578888D01*
X132402352Y-74588988D01*
X132211834Y-74575606D01*
X132006348Y-74554060D01*
X131864810Y-74542822D01*
X131773249Y-74546164D01*
X131717694Y-74568355D01*
X131684173Y-74613668D01*
X131658715Y-74686373D01*
X131639836Y-74750462D01*
X131563591Y-74970636D01*
X131480041Y-75135242D01*
X131376458Y-75266681D01*
X131311218Y-75328683D01*
X131211300Y-75407453D01*
X131108531Y-75464731D01*
X130991206Y-75501678D01*
X130847624Y-75519457D01*
X130666079Y-75519228D01*
X130434869Y-75502155D01*
X130142289Y-75469398D01*
X130032440Y-75455621D01*
X129749631Y-75414345D01*
X129533715Y-75369237D01*
X129373433Y-75315856D01*
X129257527Y-75249759D01*
X129174738Y-75166502D01*
X129133196Y-75100791D01*
X129090125Y-74996640D01*
X129068668Y-74876258D01*
X129069628Y-74727866D01*
X129088712Y-74579341D01*
X129587635Y-74579341D01*
X129605766Y-74715788D01*
X129669373Y-74810708D01*
X129784417Y-74874630D01*
X129956859Y-74918087D01*
X130118291Y-74942407D01*
X130431510Y-74974661D01*
X130675653Y-74980893D01*
X130855414Y-74960891D01*
X130975486Y-74914447D01*
X130991050Y-74903319D01*
X131130959Y-74743995D01*
X131216909Y-74530011D01*
X131228440Y-74475573D01*
X131253118Y-74340154D01*
X130948482Y-74227574D01*
X130783538Y-74161730D01*
X130579023Y-74072953D01*
X130364674Y-73974430D01*
X130221603Y-73905190D01*
X130057520Y-73824184D01*
X129920866Y-73757709D01*
X129825681Y-73712527D01*
X129786004Y-73695395D01*
X129785848Y-73695385D01*
X129771899Y-73730926D01*
X129744002Y-73827621D01*
X129706240Y-73970579D01*
X129663960Y-74139741D01*
X129609020Y-74390836D01*
X129587635Y-74579341D01*
X129088712Y-74579341D01*
X129093808Y-74539689D01*
X129142011Y-74299947D01*
G37*
X129142011Y-74299947D02*
X129206031Y-74032612D01*
X129351820Y-73451532D01*
X129235833Y-73357432D01*
X129231800Y-73343670D01*
X129289346Y-73361142D01*
X129400024Y-73406376D01*
X129555387Y-73475901D01*
X129746988Y-73566245D01*
X129764616Y-73574744D01*
X130155221Y-73754012D01*
X130554933Y-73920240D01*
X130946377Y-74067044D01*
X131312180Y-74188037D01*
X131634968Y-74276835D01*
X131736860Y-74299601D01*
X132065775Y-74349507D01*
X132341918Y-74353205D01*
X132562231Y-74311202D01*
X132723651Y-74224004D01*
X132808262Y-74122169D01*
X132841273Y-74044460D01*
X132835623Y-73972413D01*
X132800052Y-73887707D01*
X132735996Y-73754000D01*
X132871998Y-73907049D01*
X132980199Y-74067850D01*
X133013694Y-74219718D01*
X132972336Y-74358085D01*
X132889619Y-74452356D01*
X132760346Y-74534328D01*
X132603336Y-74578888D01*
X132402352Y-74588988D01*
X132211834Y-74575606D01*
X132006348Y-74554060D01*
X131864810Y-74542822D01*
X131773249Y-74546164D01*
X131717694Y-74568355D01*
X131684173Y-74613668D01*
X131658715Y-74686373D01*
X131639836Y-74750462D01*
X131563591Y-74970636D01*
X131480041Y-75135242D01*
X131376458Y-75266681D01*
X131311218Y-75328683D01*
X131211300Y-75407453D01*
X131108531Y-75464731D01*
X130991206Y-75501678D01*
X130847624Y-75519457D01*
X130666079Y-75519228D01*
X130434869Y-75502155D01*
X130142289Y-75469398D01*
X130032440Y-75455621D01*
X129749631Y-75414345D01*
X129533715Y-75369237D01*
X129373433Y-75315856D01*
X129257527Y-75249759D01*
X129174738Y-75166502D01*
X129133196Y-75100791D01*
X129090125Y-74996640D01*
X129068668Y-74876258D01*
X129069628Y-74727866D01*
X129088712Y-74579341D01*
X129587635Y-74579341D01*
X129605766Y-74715788D01*
X129669373Y-74810708D01*
X129784417Y-74874630D01*
X129956859Y-74918087D01*
X130118291Y-74942407D01*
X130431510Y-74974661D01*
X130675653Y-74980893D01*
X130855414Y-74960891D01*
X130975486Y-74914447D01*
X130991050Y-74903319D01*
X131130959Y-74743995D01*
X131216909Y-74530011D01*
X131228440Y-74475573D01*
X131253118Y-74340154D01*
X130948482Y-74227574D01*
X130783538Y-74161730D01*
X130579023Y-74072953D01*
X130364674Y-73974430D01*
X130221603Y-73905190D01*
X130057520Y-73824184D01*
X129920866Y-73757709D01*
X129825681Y-73712527D01*
X129786004Y-73695395D01*
X129785848Y-73695385D01*
X129771899Y-73730926D01*
X129744002Y-73827621D01*
X129706240Y-73970579D01*
X129663960Y-74139741D01*
X129609020Y-74390836D01*
X129587635Y-74579341D01*
X129088712Y-74579341D01*
X129093808Y-74539689D01*
X129142011Y-74299947D01*
D13*
%TO.C,J26*%
X124750000Y-111200000D02*
X124750000Y-116750000D01*
X121800000Y-122300000D02*
X123140000Y-122300000D01*
X120300000Y-110450000D02*
X119550000Y-110450000D01*
X121800000Y-123050000D02*
X121800000Y-122300000D01*
X124750000Y-116750000D02*
X124750000Y-121240000D01*
X125510000Y-110440000D02*
X119540000Y-110440000D01*
X121800000Y-111200000D02*
X124750000Y-111200000D01*
X119250000Y-123350000D02*
X120500000Y-123350000D01*
X120300000Y-112250000D02*
X120300000Y-110450000D01*
X119550000Y-119750000D02*
X120300000Y-119750000D01*
X119550000Y-110450000D02*
X119550000Y-112250000D01*
X125510000Y-123060000D02*
X125510000Y-110440000D01*
X119550000Y-113750000D02*
X119550000Y-119750000D01*
X121800000Y-110450000D02*
X121800000Y-111200000D01*
X119550000Y-123050000D02*
X120300000Y-123050000D01*
X119550000Y-121250000D02*
X119550000Y-123050000D01*
X120300000Y-113750000D02*
X119550000Y-113750000D01*
X120300000Y-121250000D02*
X119550000Y-121250000D01*
X119540000Y-123060000D02*
X125510000Y-123060000D01*
X120300000Y-119750000D02*
X120300000Y-113750000D01*
X119250000Y-122100000D02*
X119250000Y-123350000D01*
X119550000Y-112250000D02*
X120300000Y-112250000D01*
X120300000Y-123050000D02*
X120300000Y-121250000D01*
X119540000Y-110440000D02*
X119540000Y-123060000D01*
%TO.C,J25*%
X124750000Y-84700000D02*
X124750000Y-90250000D01*
X121800000Y-95800000D02*
X123140000Y-95800000D01*
X120300000Y-83950000D02*
X119550000Y-83950000D01*
X121800000Y-96550000D02*
X121800000Y-95800000D01*
X124750000Y-90250000D02*
X124750000Y-94740000D01*
X125510000Y-83940000D02*
X119540000Y-83940000D01*
X121800000Y-84700000D02*
X124750000Y-84700000D01*
X119250000Y-96850000D02*
X120500000Y-96850000D01*
X120300000Y-85750000D02*
X120300000Y-83950000D01*
X119550000Y-93250000D02*
X120300000Y-93250000D01*
X119550000Y-83950000D02*
X119550000Y-85750000D01*
X125510000Y-96560000D02*
X125510000Y-83940000D01*
X119550000Y-87250000D02*
X119550000Y-93250000D01*
X121800000Y-83950000D02*
X121800000Y-84700000D01*
X119550000Y-96550000D02*
X120300000Y-96550000D01*
X119550000Y-94750000D02*
X119550000Y-96550000D01*
X120300000Y-87250000D02*
X119550000Y-87250000D01*
X120300000Y-94750000D02*
X119550000Y-94750000D01*
X119540000Y-96560000D02*
X125510000Y-96560000D01*
X120300000Y-93250000D02*
X120300000Y-87250000D01*
X119250000Y-95600000D02*
X119250000Y-96850000D01*
X119550000Y-85750000D02*
X120300000Y-85750000D01*
X120300000Y-96550000D02*
X120300000Y-94750000D01*
X119540000Y-83940000D02*
X119540000Y-96560000D01*
%TO.C,J24*%
X120300000Y-68250000D02*
X120300000Y-59750000D01*
X119540000Y-71560000D02*
X125510000Y-71560000D01*
X119540000Y-56440000D02*
X119540000Y-71560000D01*
X119550000Y-56450000D02*
X119550000Y-58250000D01*
X121800000Y-57200000D02*
X124750000Y-57200000D01*
X119550000Y-68250000D02*
X120300000Y-68250000D01*
X120300000Y-59750000D02*
X119550000Y-59750000D01*
X119250000Y-70600000D02*
X119250000Y-71850000D01*
X120300000Y-69750000D02*
X119550000Y-69750000D01*
X120300000Y-71550000D02*
X120300000Y-69750000D01*
X121800000Y-56450000D02*
X121800000Y-57200000D01*
X119550000Y-71550000D02*
X120300000Y-71550000D01*
X121800000Y-70800000D02*
X123140000Y-70800000D01*
X119250000Y-71850000D02*
X120500000Y-71850000D01*
X125510000Y-71560000D02*
X125510000Y-56440000D01*
X120300000Y-56450000D02*
X119550000Y-56450000D01*
X121800000Y-71550000D02*
X121800000Y-70800000D01*
X119550000Y-59750000D02*
X119550000Y-68250000D01*
X125510000Y-56440000D02*
X119540000Y-56440000D01*
X119550000Y-69750000D02*
X119550000Y-71550000D01*
X119550000Y-58250000D02*
X120300000Y-58250000D01*
X120300000Y-58250000D02*
X120300000Y-56450000D01*
X124750000Y-64000000D02*
X124750000Y-69740000D01*
X124750000Y-57200000D02*
X124750000Y-64000000D01*
D14*
%TO.C,T1*%
X82355600Y-108959800D02*
X84233600Y-108959800D01*
X82355600Y-101098200D02*
X82355600Y-108959800D01*
X82355600Y-101098200D02*
X84333600Y-101098200D01*
G36*
X82303200Y-108080200D02*
G01*
X79814000Y-108080200D01*
X79814000Y-106657800D01*
X82303200Y-106657800D01*
X82303200Y-108080200D01*
G37*
D12*
X82303200Y-108080200D02*
X79814000Y-108080200D01*
X79814000Y-106657800D01*
X82303200Y-106657800D01*
X82303200Y-108080200D01*
G36*
X82303200Y-103400200D02*
G01*
X79814000Y-103400200D01*
X79814000Y-101977800D01*
X82303200Y-101977800D01*
X82303200Y-103400200D01*
G37*
X82303200Y-103400200D02*
X79814000Y-103400200D01*
X79814000Y-101977800D01*
X82303200Y-101977800D01*
X82303200Y-103400200D01*
D13*
%TO.C,U2*%
X77892000Y-74690000D02*
X77892000Y-75090000D01*
X84692000Y-97890000D02*
X77892000Y-97890000D01*
X77892000Y-67090000D02*
X77892000Y-67490000D01*
X77892000Y-54390000D02*
X77892000Y-54790000D01*
X77892000Y-49557000D02*
X80899000Y-49557000D01*
X80899000Y-49557000D02*
X80899000Y-46890000D01*
X98892000Y-59490000D02*
X98892000Y-59890000D01*
X98892000Y-79790000D02*
X98892000Y-80190000D01*
X98892000Y-69690000D02*
X98892000Y-70090000D01*
X98892000Y-97890000D02*
X92092000Y-97890000D01*
X98892000Y-51890000D02*
X98892000Y-52290000D01*
X77892000Y-84890000D02*
X77892000Y-85290000D01*
X77892000Y-46890000D02*
X77892000Y-47190000D01*
X98892000Y-89990000D02*
X98892000Y-90390000D01*
X77892000Y-92490000D02*
X77892000Y-92890000D01*
X77892000Y-51890000D02*
X77892000Y-52290000D01*
X98892000Y-46890000D02*
X98892000Y-47190000D01*
X77892000Y-77290000D02*
X77892000Y-77690000D01*
X98892000Y-82390000D02*
X98892000Y-82790000D01*
X98892000Y-92490000D02*
X98892000Y-92890000D01*
X89492000Y-97890000D02*
X89892000Y-97890000D01*
X86892000Y-97890000D02*
X87292000Y-97890000D01*
X77892000Y-56990000D02*
X77892000Y-57390000D01*
X98892000Y-84890000D02*
X98892000Y-85290000D01*
X77892000Y-95090000D02*
X77892000Y-95490000D01*
X77892000Y-59490000D02*
X77892000Y-59890000D01*
X77892000Y-49290000D02*
X77892000Y-49690000D01*
X77892000Y-46890000D02*
X98892000Y-46890000D01*
X98892000Y-74690000D02*
X98892000Y-75090000D01*
X98892000Y-67090000D02*
X98892000Y-67490000D01*
X98892000Y-64590000D02*
X98892000Y-64990000D01*
X77892000Y-89990000D02*
X77892000Y-90390000D01*
X98892000Y-49290000D02*
X98892000Y-49690000D01*
X77892000Y-72190000D02*
X77892000Y-72590000D01*
X77892000Y-82390000D02*
X77892000Y-82790000D01*
X77892000Y-61990000D02*
X77892000Y-62390000D01*
X98892000Y-87490000D02*
X98892000Y-87890000D01*
X98892000Y-54390000D02*
X98892000Y-54790000D01*
X98892000Y-72190000D02*
X98892000Y-72590000D01*
X77892000Y-69690000D02*
X77892000Y-70090000D01*
X98892000Y-56990000D02*
X98892000Y-57390000D01*
X77892000Y-79790000D02*
X77892000Y-80190000D01*
X98892000Y-95090000D02*
X98892000Y-95490000D01*
X77892000Y-64590000D02*
X77892000Y-64990000D01*
X77892000Y-87490000D02*
X77892000Y-87890000D01*
X98892000Y-77290000D02*
X98892000Y-77690000D01*
X98892000Y-61990000D02*
X98892000Y-62390000D01*
%TO.C,J6*%
X110290000Y-70982000D02*
X111630000Y-70982000D01*
X110290000Y-56632000D02*
X110290000Y-57382000D01*
X108030000Y-56622000D02*
X108030000Y-71742000D01*
X108790000Y-71732000D02*
X108790000Y-69932000D01*
X114000000Y-71742000D02*
X114000000Y-56622000D01*
X108040000Y-58432000D02*
X108790000Y-58432000D01*
X108040000Y-68432000D02*
X108790000Y-68432000D01*
X114000000Y-56622000D02*
X108030000Y-56622000D01*
X108040000Y-71732000D02*
X108790000Y-71732000D01*
X110290000Y-57382000D02*
X113240000Y-57382000D01*
X107740000Y-72032000D02*
X108990000Y-72032000D01*
X108040000Y-69932000D02*
X108040000Y-71732000D01*
X107740000Y-70782000D02*
X107740000Y-72032000D01*
X108040000Y-56632000D02*
X108040000Y-58432000D01*
X113240000Y-57382000D02*
X113240000Y-64182000D01*
X108790000Y-69932000D02*
X108040000Y-69932000D01*
X108790000Y-59932000D02*
X108040000Y-59932000D01*
X108040000Y-59932000D02*
X108040000Y-68432000D01*
X110290000Y-71732000D02*
X110290000Y-70982000D01*
X108790000Y-56632000D02*
X108040000Y-56632000D01*
X108030000Y-71742000D02*
X114000000Y-71742000D01*
X108790000Y-58432000D02*
X108790000Y-56632000D01*
X113240000Y-64182000D02*
X113240000Y-69922000D01*
X108790000Y-68432000D02*
X108790000Y-59932000D01*
%TO.C,U1*%
X61856000Y-72718000D02*
X61856000Y-71218000D01*
X70446000Y-71218000D02*
X70446000Y-66093000D01*
X63666000Y-71218000D02*
X63666000Y-70118000D01*
X72256000Y-71218000D02*
X70446000Y-71218000D01*
X61856000Y-71218000D02*
X63666000Y-71218000D01*
X72256000Y-72718000D02*
X72256000Y-71218000D01*
%TO.C,D1*%
X71036000Y-63522000D02*
X71036000Y-62972000D01*
X73236000Y-63522000D02*
X73186000Y-63522000D01*
X71086000Y-63522000D02*
X71036000Y-63522000D01*
X73186000Y-63522000D02*
X73186000Y-64122000D01*
X71086000Y-64122000D02*
X71086000Y-63522000D01*
X73236000Y-62972000D02*
X73236000Y-63522000D01*
%TO.C,G1*%
G36*
X75202883Y-106027439D02*
G01*
X75293683Y-106035341D01*
X75333811Y-106052119D01*
X75336982Y-106080727D01*
X75334719Y-106087273D01*
X75313672Y-106160503D01*
X75311000Y-106183101D01*
X75275446Y-106202583D01*
X75182852Y-106219379D01*
X75070930Y-106228751D01*
X74830860Y-106240385D01*
X74782521Y-106404617D01*
X74757565Y-106508913D01*
X74751592Y-106578327D01*
X74755565Y-106590232D01*
X74803543Y-106602116D01*
X74904127Y-106609880D01*
X74989540Y-106611616D01*
X75111736Y-106615128D01*
X75171141Y-106628978D01*
X75182935Y-106658131D01*
X75178412Y-106673427D01*
X75157525Y-106741632D01*
X75154693Y-106761350D01*
X75119583Y-106777942D01*
X75029123Y-106786413D01*
X74905615Y-106787467D01*
X74771364Y-106781809D01*
X74648673Y-106770144D01*
X74559844Y-106753176D01*
X74533340Y-106741719D01*
X74502172Y-106710903D01*
X74491533Y-106666005D01*
X74501852Y-106587677D01*
X74533553Y-106456571D01*
X74540188Y-106431124D01*
X74592591Y-106250524D01*
X74647593Y-106133216D01*
X74722130Y-106065662D01*
X74833136Y-106034325D01*
X74997547Y-106025669D01*
X75047699Y-106025462D01*
X75202883Y-106027439D01*
G37*
D12*
X75202883Y-106027439D02*
X75293683Y-106035341D01*
X75333811Y-106052119D01*
X75336982Y-106080727D01*
X75334719Y-106087273D01*
X75313672Y-106160503D01*
X75311000Y-106183101D01*
X75275446Y-106202583D01*
X75182852Y-106219379D01*
X75070930Y-106228751D01*
X74830860Y-106240385D01*
X74782521Y-106404617D01*
X74757565Y-106508913D01*
X74751592Y-106578327D01*
X74755565Y-106590232D01*
X74803543Y-106602116D01*
X74904127Y-106609880D01*
X74989540Y-106611616D01*
X75111736Y-106615128D01*
X75171141Y-106628978D01*
X75182935Y-106658131D01*
X75178412Y-106673427D01*
X75157525Y-106741632D01*
X75154693Y-106761350D01*
X75119583Y-106777942D01*
X75029123Y-106786413D01*
X74905615Y-106787467D01*
X74771364Y-106781809D01*
X74648673Y-106770144D01*
X74559844Y-106753176D01*
X74533340Y-106741719D01*
X74502172Y-106710903D01*
X74491533Y-106666005D01*
X74501852Y-106587677D01*
X74533553Y-106456571D01*
X74540188Y-106431124D01*
X74592591Y-106250524D01*
X74647593Y-106133216D01*
X74722130Y-106065662D01*
X74833136Y-106034325D01*
X74997547Y-106025669D01*
X75047699Y-106025462D01*
X75202883Y-106027439D01*
G36*
X69380907Y-103336677D02*
G01*
X69437141Y-103343188D01*
X69428179Y-103354409D01*
X69381318Y-103367247D01*
X69230316Y-103424025D01*
X69151926Y-103508060D01*
X69144003Y-103623808D01*
X69194151Y-103756467D01*
X69298219Y-103897518D01*
X69472579Y-104057942D01*
X69712664Y-104234656D01*
X70013908Y-104424574D01*
X70371745Y-104624614D01*
X70781609Y-104831693D01*
X70797901Y-104839540D01*
X70966709Y-104921897D01*
X71106552Y-104992378D01*
X71204166Y-105044131D01*
X71246287Y-105070303D01*
X71247000Y-105071554D01*
X71247360Y-105080467D01*
X71239623Y-105083250D01*
X71210566Y-105075712D01*
X71146968Y-105053660D01*
X71035605Y-105012904D01*
X70875769Y-104953871D01*
X70695473Y-104885837D01*
X70518495Y-104816580D01*
X70374441Y-104757763D01*
X70335222Y-104740899D01*
X70213972Y-104688259D01*
X70147750Y-104664959D01*
X70119917Y-104669157D01*
X70113837Y-104699011D01*
X70113769Y-104716385D01*
X70102549Y-104760834D01*
X70060311Y-104769617D01*
X69974186Y-104741344D01*
X69860815Y-104689060D01*
X69749151Y-104625792D01*
X69695539Y-104566363D01*
X69682846Y-104503445D01*
X69666831Y-104438052D01*
X69611718Y-104370758D01*
X69504667Y-104287735D01*
X69445089Y-104247462D01*
X69260973Y-104111989D01*
X69095338Y-103964375D01*
X68959756Y-103817384D01*
X68865800Y-103683781D01*
X68825042Y-103576330D01*
X68824231Y-103562683D01*
X68850084Y-103452163D01*
X68931618Y-103379322D01*
X69074792Y-103340969D01*
X69253003Y-103333154D01*
X69380907Y-103336677D01*
G37*
X69380907Y-103336677D02*
X69437141Y-103343188D01*
X69428179Y-103354409D01*
X69381318Y-103367247D01*
X69230316Y-103424025D01*
X69151926Y-103508060D01*
X69144003Y-103623808D01*
X69194151Y-103756467D01*
X69298219Y-103897518D01*
X69472579Y-104057942D01*
X69712664Y-104234656D01*
X70013908Y-104424574D01*
X70371745Y-104624614D01*
X70781609Y-104831693D01*
X70797901Y-104839540D01*
X70966709Y-104921897D01*
X71106552Y-104992378D01*
X71204166Y-105044131D01*
X71246287Y-105070303D01*
X71247000Y-105071554D01*
X71247360Y-105080467D01*
X71239623Y-105083250D01*
X71210566Y-105075712D01*
X71146968Y-105053660D01*
X71035605Y-105012904D01*
X70875769Y-104953871D01*
X70695473Y-104885837D01*
X70518495Y-104816580D01*
X70374441Y-104757763D01*
X70335222Y-104740899D01*
X70213972Y-104688259D01*
X70147750Y-104664959D01*
X70119917Y-104669157D01*
X70113837Y-104699011D01*
X70113769Y-104716385D01*
X70102549Y-104760834D01*
X70060311Y-104769617D01*
X69974186Y-104741344D01*
X69860815Y-104689060D01*
X69749151Y-104625792D01*
X69695539Y-104566363D01*
X69682846Y-104503445D01*
X69666831Y-104438052D01*
X69611718Y-104370758D01*
X69504667Y-104287735D01*
X69445089Y-104247462D01*
X69260973Y-104111989D01*
X69095338Y-103964375D01*
X68959756Y-103817384D01*
X68865800Y-103683781D01*
X68825042Y-103576330D01*
X68824231Y-103562683D01*
X68850084Y-103452163D01*
X68931618Y-103379322D01*
X69074792Y-103340969D01*
X69253003Y-103333154D01*
X69380907Y-103336677D01*
G36*
X74761328Y-104023597D02*
G01*
X74818275Y-103849775D01*
X74873835Y-103719255D01*
X74932327Y-103620860D01*
X74998074Y-103543416D01*
X75022612Y-103520087D01*
X75116449Y-103447298D01*
X75222340Y-103394969D01*
X75354594Y-103360069D01*
X75527525Y-103339568D01*
X75755442Y-103330436D01*
X75924464Y-103329154D01*
X76187275Y-103333341D01*
X76383767Y-103347769D01*
X76525420Y-103375237D01*
X76623714Y-103418546D01*
X76690128Y-103480497D01*
X76716611Y-103522374D01*
X76748084Y-103637390D01*
X76754412Y-103800310D01*
X76735726Y-103985085D01*
X76713761Y-104090886D01*
X76702726Y-104140737D01*
X76692576Y-104180599D01*
X76675315Y-104214423D01*
X76642948Y-104246161D01*
X76587481Y-104279766D01*
X76500917Y-104319188D01*
X76375263Y-104368379D01*
X76202523Y-104431292D01*
X75974702Y-104511878D01*
X75683805Y-104614089D01*
X75584539Y-104649032D01*
X75377852Y-104722427D01*
X75233709Y-104776582D01*
X75140845Y-104817958D01*
X75087994Y-104853012D01*
X75063893Y-104888204D01*
X75057275Y-104929990D01*
X75057000Y-104951493D01*
X75057000Y-105068077D01*
X75750616Y-105078748D01*
X75973657Y-105084057D01*
X76166914Y-105092244D01*
X76317968Y-105102486D01*
X76414402Y-105113964D01*
X76444231Y-105124613D01*
X76436010Y-105180286D01*
X76414988Y-105284106D01*
X76398443Y-105358173D01*
X76352654Y-105556539D01*
X75587596Y-105555963D01*
X75273809Y-105553498D01*
X75033597Y-105546465D01*
X74862503Y-105534610D01*
X74756068Y-105517678D01*
X74724846Y-105506808D01*
X74645365Y-105440841D01*
X74569386Y-105337358D01*
X74553417Y-105307534D01*
X74479681Y-105156837D01*
X74625988Y-104545842D01*
X74675546Y-104345420D01*
X75185022Y-104345420D01*
X75718366Y-104159672D01*
X75929461Y-104084827D01*
X76076667Y-104028475D01*
X76170529Y-103985286D01*
X76221592Y-103949931D01*
X76240400Y-103917080D01*
X76240509Y-103895770D01*
X76228052Y-103858398D01*
X76193504Y-103834282D01*
X76121648Y-103819713D01*
X75997269Y-103810983D01*
X75874032Y-103806462D01*
X75645631Y-103804522D01*
X75481645Y-103820577D01*
X75368993Y-103862480D01*
X75294596Y-103938086D01*
X75245376Y-104055251D01*
X75211487Y-104204346D01*
X75185022Y-104345420D01*
X74675546Y-104345420D01*
X74698673Y-104251894D01*
X74761328Y-104023597D01*
G37*
X74761328Y-104023597D02*
X74818275Y-103849775D01*
X74873835Y-103719255D01*
X74932327Y-103620860D01*
X74998074Y-103543416D01*
X75022612Y-103520087D01*
X75116449Y-103447298D01*
X75222340Y-103394969D01*
X75354594Y-103360069D01*
X75527525Y-103339568D01*
X75755442Y-103330436D01*
X75924464Y-103329154D01*
X76187275Y-103333341D01*
X76383767Y-103347769D01*
X76525420Y-103375237D01*
X76623714Y-103418546D01*
X76690128Y-103480497D01*
X76716611Y-103522374D01*
X76748084Y-103637390D01*
X76754412Y-103800310D01*
X76735726Y-103985085D01*
X76713761Y-104090886D01*
X76702726Y-104140737D01*
X76692576Y-104180599D01*
X76675315Y-104214423D01*
X76642948Y-104246161D01*
X76587481Y-104279766D01*
X76500917Y-104319188D01*
X76375263Y-104368379D01*
X76202523Y-104431292D01*
X75974702Y-104511878D01*
X75683805Y-104614089D01*
X75584539Y-104649032D01*
X75377852Y-104722427D01*
X75233709Y-104776582D01*
X75140845Y-104817958D01*
X75087994Y-104853012D01*
X75063893Y-104888204D01*
X75057275Y-104929990D01*
X75057000Y-104951493D01*
X75057000Y-105068077D01*
X75750616Y-105078748D01*
X75973657Y-105084057D01*
X76166914Y-105092244D01*
X76317968Y-105102486D01*
X76414402Y-105113964D01*
X76444231Y-105124613D01*
X76436010Y-105180286D01*
X76414988Y-105284106D01*
X76398443Y-105358173D01*
X76352654Y-105556539D01*
X75587596Y-105555963D01*
X75273809Y-105553498D01*
X75033597Y-105546465D01*
X74862503Y-105534610D01*
X74756068Y-105517678D01*
X74724846Y-105506808D01*
X74645365Y-105440841D01*
X74569386Y-105337358D01*
X74553417Y-105307534D01*
X74479681Y-105156837D01*
X74625988Y-104545842D01*
X74675546Y-104345420D01*
X75185022Y-104345420D01*
X75718366Y-104159672D01*
X75929461Y-104084827D01*
X76076667Y-104028475D01*
X76170529Y-103985286D01*
X76221592Y-103949931D01*
X76240400Y-103917080D01*
X76240509Y-103895770D01*
X76228052Y-103858398D01*
X76193504Y-103834282D01*
X76121648Y-103819713D01*
X75997269Y-103810983D01*
X75874032Y-103806462D01*
X75645631Y-103804522D01*
X75481645Y-103820577D01*
X75368993Y-103862480D01*
X75294596Y-103938086D01*
X75245376Y-104055251D01*
X75211487Y-104204346D01*
X75185022Y-104345420D01*
X74675546Y-104345420D01*
X74698673Y-104251894D01*
X74761328Y-104023597D01*
G36*
X71201738Y-102958820D02*
G01*
X71399490Y-102983380D01*
X71515432Y-102997937D01*
X71774184Y-103033614D01*
X71968761Y-103070471D01*
X72113072Y-103112986D01*
X72221026Y-103165638D01*
X72306532Y-103232905D01*
X72334648Y-103261726D01*
X72396668Y-103342862D01*
X72439300Y-103436642D01*
X72461906Y-103551392D01*
X72463849Y-103695440D01*
X72444490Y-103877112D01*
X72403190Y-104104734D01*
X72339313Y-104386632D01*
X72252220Y-104731134D01*
X72209700Y-104892231D01*
X72155050Y-105093306D01*
X72113621Y-105230755D01*
X72079885Y-105316821D01*
X72048312Y-105363749D01*
X72013371Y-105383784D01*
X71985696Y-105388228D01*
X71896558Y-105388801D01*
X71852693Y-105381877D01*
X71787263Y-105363507D01*
X71710674Y-105345424D01*
X71607732Y-105322857D01*
X71778888Y-104667929D01*
X71852060Y-104381066D01*
X71903507Y-104158677D01*
X71934017Y-103990396D01*
X71944376Y-103865854D01*
X71935368Y-103774685D01*
X71907781Y-103706520D01*
X71862401Y-103650993D01*
X71856424Y-103645275D01*
X71797714Y-103602706D01*
X71714282Y-103569055D01*
X71590464Y-103540057D01*
X71410594Y-103511447D01*
X71319894Y-103499216D01*
X71144120Y-103475715D01*
X71000006Y-103455406D01*
X70903270Y-103440574D01*
X70869634Y-103433737D01*
X70868875Y-103394083D01*
X70874526Y-103298328D01*
X70884053Y-103182215D01*
X70891787Y-103083853D01*
X70902082Y-103014474D01*
X70926581Y-102970680D01*
X70976927Y-102949072D01*
X71064765Y-102946251D01*
X71201738Y-102958820D01*
G37*
X71201738Y-102958820D02*
X71399490Y-102983380D01*
X71515432Y-102997937D01*
X71774184Y-103033614D01*
X71968761Y-103070471D01*
X72113072Y-103112986D01*
X72221026Y-103165638D01*
X72306532Y-103232905D01*
X72334648Y-103261726D01*
X72396668Y-103342862D01*
X72439300Y-103436642D01*
X72461906Y-103551392D01*
X72463849Y-103695440D01*
X72444490Y-103877112D01*
X72403190Y-104104734D01*
X72339313Y-104386632D01*
X72252220Y-104731134D01*
X72209700Y-104892231D01*
X72155050Y-105093306D01*
X72113621Y-105230755D01*
X72079885Y-105316821D01*
X72048312Y-105363749D01*
X72013371Y-105383784D01*
X71985696Y-105388228D01*
X71896558Y-105388801D01*
X71852693Y-105381877D01*
X71787263Y-105363507D01*
X71710674Y-105345424D01*
X71607732Y-105322857D01*
X71778888Y-104667929D01*
X71852060Y-104381066D01*
X71903507Y-104158677D01*
X71934017Y-103990396D01*
X71944376Y-103865854D01*
X71935368Y-103774685D01*
X71907781Y-103706520D01*
X71862401Y-103650993D01*
X71856424Y-103645275D01*
X71797714Y-103602706D01*
X71714282Y-103569055D01*
X71590464Y-103540057D01*
X71410594Y-103511447D01*
X71319894Y-103499216D01*
X71144120Y-103475715D01*
X71000006Y-103455406D01*
X70903270Y-103440574D01*
X70869634Y-103433737D01*
X70868875Y-103394083D01*
X70874526Y-103298328D01*
X70884053Y-103182215D01*
X70891787Y-103083853D01*
X70902082Y-103014474D01*
X70926581Y-102970680D01*
X70976927Y-102949072D01*
X71064765Y-102946251D01*
X71201738Y-102958820D01*
G36*
X71136795Y-103652888D02*
G01*
X71247000Y-103680847D01*
X71296521Y-103700256D01*
X71283236Y-103710587D01*
X71200073Y-103715479D01*
X71178616Y-103716028D01*
X71077248Y-103710228D01*
X71018467Y-103691039D01*
X71012539Y-103680847D01*
X71045685Y-103649958D01*
X71136795Y-103652888D01*
G37*
X71136795Y-103652888D02*
X71247000Y-103680847D01*
X71296521Y-103700256D01*
X71283236Y-103710587D01*
X71200073Y-103715479D01*
X71178616Y-103716028D01*
X71077248Y-103710228D01*
X71018467Y-103691039D01*
X71012539Y-103680847D01*
X71045685Y-103649958D01*
X71136795Y-103652888D01*
G36*
X72805933Y-106234775D02*
G01*
X72874489Y-106119132D01*
X72971868Y-106054848D01*
X73114178Y-106028563D01*
X73219929Y-106025462D01*
X73388446Y-106032897D01*
X73490236Y-106063871D01*
X73536016Y-106131386D01*
X73536499Y-106248447D01*
X73512697Y-106380756D01*
X73465104Y-106563632D01*
X73405944Y-106682851D01*
X73320896Y-106752862D01*
X73195634Y-106788115D01*
X73098726Y-106798341D01*
X72952146Y-106802754D01*
X72855493Y-106786757D01*
X72782134Y-106745650D01*
X72776981Y-106741547D01*
X72686210Y-106668045D01*
X72732915Y-106483134D01*
X72969870Y-106483134D01*
X72973049Y-106566320D01*
X73022050Y-106604946D01*
X73084583Y-106611616D01*
X73183256Y-106592069D01*
X73234882Y-106524466D01*
X73235169Y-106523693D01*
X73269931Y-106415658D01*
X73293561Y-106328308D01*
X73304634Y-106255984D01*
X73276634Y-106226530D01*
X73190425Y-106220849D01*
X73185875Y-106220847D01*
X73088854Y-106232068D01*
X73035787Y-106280960D01*
X73009284Y-106343909D01*
X72969870Y-106483134D01*
X72732915Y-106483134D01*
X72750090Y-106415138D01*
X72805933Y-106234775D01*
G37*
X72805933Y-106234775D02*
X72874489Y-106119132D01*
X72971868Y-106054848D01*
X73114178Y-106028563D01*
X73219929Y-106025462D01*
X73388446Y-106032897D01*
X73490236Y-106063871D01*
X73536016Y-106131386D01*
X73536499Y-106248447D01*
X73512697Y-106380756D01*
X73465104Y-106563632D01*
X73405944Y-106682851D01*
X73320896Y-106752862D01*
X73195634Y-106788115D01*
X73098726Y-106798341D01*
X72952146Y-106802754D01*
X72855493Y-106786757D01*
X72782134Y-106745650D01*
X72776981Y-106741547D01*
X72686210Y-106668045D01*
X72732915Y-106483134D01*
X72969870Y-106483134D01*
X72973049Y-106566320D01*
X73022050Y-106604946D01*
X73084583Y-106611616D01*
X73183256Y-106592069D01*
X73234882Y-106524466D01*
X73235169Y-106523693D01*
X73269931Y-106415658D01*
X73293561Y-106328308D01*
X73304634Y-106255984D01*
X73276634Y-106226530D01*
X73190425Y-106220849D01*
X73185875Y-106220847D01*
X73088854Y-106232068D01*
X73035787Y-106280960D01*
X73009284Y-106343909D01*
X72969870Y-106483134D01*
X72732915Y-106483134D01*
X72750090Y-106415138D01*
X72805933Y-106234775D01*
G36*
X70123315Y-102834483D02*
G01*
X70152227Y-102882432D01*
X70152846Y-102896112D01*
X70135144Y-103016874D01*
X70074352Y-103078800D01*
X69972075Y-103094693D01*
X69883506Y-103089470D01*
X69853787Y-103061024D01*
X69863722Y-102990192D01*
X69864428Y-102987231D01*
X69894025Y-102883528D01*
X69931338Y-102835433D01*
X69998516Y-102821745D01*
X70037922Y-102821154D01*
X70123315Y-102834483D01*
G37*
X70123315Y-102834483D02*
X70152227Y-102882432D01*
X70152846Y-102896112D01*
X70135144Y-103016874D01*
X70074352Y-103078800D01*
X69972075Y-103094693D01*
X69883506Y-103089470D01*
X69853787Y-103061024D01*
X69863722Y-102990192D01*
X69864428Y-102987231D01*
X69894025Y-102883528D01*
X69931338Y-102835433D01*
X69998516Y-102821745D01*
X70037922Y-102821154D01*
X70123315Y-102834483D01*
G36*
X70494701Y-102515945D02*
G01*
X70590188Y-102529260D01*
X70628705Y-102560992D01*
X70631414Y-102631352D01*
X70630152Y-102645308D01*
X70612028Y-102768918D01*
X70576141Y-102833279D01*
X70504676Y-102857297D01*
X70427611Y-102860231D01*
X70324472Y-102853550D01*
X70278767Y-102827089D01*
X70270077Y-102784621D01*
X70283927Y-102690526D01*
X70309085Y-102606412D01*
X70346097Y-102538689D01*
X70405242Y-102513920D01*
X70494701Y-102515945D01*
G37*
X70494701Y-102515945D02*
X70590188Y-102529260D01*
X70628705Y-102560992D01*
X70631414Y-102631352D01*
X70630152Y-102645308D01*
X70612028Y-102768918D01*
X70576141Y-102833279D01*
X70504676Y-102857297D01*
X70427611Y-102860231D01*
X70324472Y-102853550D01*
X70278767Y-102827089D01*
X70270077Y-102784621D01*
X70283927Y-102690526D01*
X70309085Y-102606412D01*
X70346097Y-102538689D01*
X70405242Y-102513920D01*
X70494701Y-102515945D01*
G36*
X70683075Y-103219448D02*
G01*
X70664294Y-103340422D01*
X70645637Y-103428340D01*
X70636658Y-103453909D01*
X70590169Y-103470651D01*
X70489267Y-103482092D01*
X70381567Y-103485462D01*
X70145977Y-103485462D01*
X70171805Y-103319385D01*
X70196808Y-103168176D01*
X70224138Y-103078123D01*
X70269552Y-103033389D01*
X70348805Y-103018140D01*
X70473129Y-103016539D01*
X70709992Y-103016539D01*
X70683075Y-103219448D01*
G37*
X70683075Y-103219448D02*
X70664294Y-103340422D01*
X70645637Y-103428340D01*
X70636658Y-103453909D01*
X70590169Y-103470651D01*
X70489267Y-103482092D01*
X70381567Y-103485462D01*
X70145977Y-103485462D01*
X70171805Y-103319385D01*
X70196808Y-103168176D01*
X70224138Y-103078123D01*
X70269552Y-103033389D01*
X70348805Y-103018140D01*
X70473129Y-103016539D01*
X70709992Y-103016539D01*
X70683075Y-103219448D01*
G36*
X70009024Y-103577874D02*
G01*
X70092805Y-103656466D01*
X70220560Y-103688217D01*
X70321137Y-103706348D01*
X70355736Y-103742024D01*
X70354528Y-103759000D01*
X70324449Y-103886241D01*
X70287937Y-104032359D01*
X70250293Y-104177232D01*
X70216819Y-104300735D01*
X70192814Y-104382748D01*
X70184420Y-104404760D01*
X70148713Y-104390798D01*
X70069373Y-104341343D01*
X69986301Y-104283371D01*
X69885333Y-104198852D01*
X69819287Y-104121720D01*
X69803407Y-104081005D01*
X69814056Y-104010272D01*
X69839814Y-103890151D01*
X69875108Y-103746622D01*
X69875179Y-103746350D01*
X69944698Y-103479700D01*
X70009024Y-103577874D01*
G37*
X70009024Y-103577874D02*
X70092805Y-103656466D01*
X70220560Y-103688217D01*
X70321137Y-103706348D01*
X70355736Y-103742024D01*
X70354528Y-103759000D01*
X70324449Y-103886241D01*
X70287937Y-104032359D01*
X70250293Y-104177232D01*
X70216819Y-104300735D01*
X70192814Y-104382748D01*
X70184420Y-104404760D01*
X70148713Y-104390798D01*
X70069373Y-104341343D01*
X69986301Y-104283371D01*
X69885333Y-104198852D01*
X69819287Y-104121720D01*
X69803407Y-104081005D01*
X69814056Y-104010272D01*
X69839814Y-103890151D01*
X69875108Y-103746622D01*
X69875179Y-103746350D01*
X69944698Y-103479700D01*
X70009024Y-103577874D01*
G36*
X74461437Y-106040785D02*
G01*
X74490385Y-106074432D01*
X74478097Y-106156501D01*
X74446405Y-106280953D01*
X74403071Y-106423682D01*
X74355854Y-106560579D01*
X74312515Y-106667538D01*
X74283084Y-106718433D01*
X74213511Y-106749039D01*
X74092774Y-106769858D01*
X73947371Y-106779866D01*
X73803800Y-106778040D01*
X73688558Y-106763357D01*
X73636794Y-106743392D01*
X73608166Y-106714536D01*
X73596883Y-106670827D01*
X73603660Y-106595257D01*
X73629214Y-106470814D01*
X73652457Y-106371494D01*
X73691239Y-106213756D01*
X73721806Y-106116581D01*
X73753536Y-106064385D01*
X73795808Y-106041583D01*
X73856300Y-106032755D01*
X73942204Y-106027748D01*
X73982043Y-106032001D01*
X73982385Y-106032880D01*
X73972441Y-106073670D01*
X73946216Y-106169775D01*
X73909118Y-106301425D01*
X73904231Y-106318539D01*
X73866200Y-106453084D01*
X73838397Y-106554417D01*
X73826230Y-106602781D01*
X73826077Y-106604081D01*
X73860484Y-106609100D01*
X73945824Y-106606209D01*
X73972477Y-106604205D01*
X74047588Y-106595384D01*
X74096289Y-106573205D01*
X74131122Y-106521110D01*
X74164631Y-106422542D01*
X74196271Y-106308770D01*
X74237905Y-106164031D01*
X74271394Y-106079290D01*
X74307174Y-106038631D01*
X74355679Y-106026138D01*
X74382025Y-106025462D01*
X74461437Y-106040785D01*
G37*
X74461437Y-106040785D02*
X74490385Y-106074432D01*
X74478097Y-106156501D01*
X74446405Y-106280953D01*
X74403071Y-106423682D01*
X74355854Y-106560579D01*
X74312515Y-106667538D01*
X74283084Y-106718433D01*
X74213511Y-106749039D01*
X74092774Y-106769858D01*
X73947371Y-106779866D01*
X73803800Y-106778040D01*
X73688558Y-106763357D01*
X73636794Y-106743392D01*
X73608166Y-106714536D01*
X73596883Y-106670827D01*
X73603660Y-106595257D01*
X73629214Y-106470814D01*
X73652457Y-106371494D01*
X73691239Y-106213756D01*
X73721806Y-106116581D01*
X73753536Y-106064385D01*
X73795808Y-106041583D01*
X73856300Y-106032755D01*
X73942204Y-106027748D01*
X73982043Y-106032001D01*
X73982385Y-106032880D01*
X73972441Y-106073670D01*
X73946216Y-106169775D01*
X73909118Y-106301425D01*
X73904231Y-106318539D01*
X73866200Y-106453084D01*
X73838397Y-106554417D01*
X73826230Y-106602781D01*
X73826077Y-106604081D01*
X73860484Y-106609100D01*
X73945824Y-106606209D01*
X73972477Y-106604205D01*
X74047588Y-106595384D01*
X74096289Y-106573205D01*
X74131122Y-106521110D01*
X74164631Y-106422542D01*
X74196271Y-106308770D01*
X74237905Y-106164031D01*
X74271394Y-106079290D01*
X74307174Y-106038631D01*
X74355679Y-106026138D01*
X74382025Y-106025462D01*
X74461437Y-106040785D01*
G36*
X70188539Y-102479092D02*
G01*
X70207549Y-102522810D01*
X70201487Y-102567154D01*
X70169646Y-102640023D01*
X70096194Y-102664132D01*
X70070137Y-102664847D01*
X69989802Y-102654063D01*
X69957462Y-102628966D01*
X69987379Y-102524231D01*
X70072101Y-102473200D01*
X70112531Y-102469462D01*
X70188539Y-102479092D01*
G37*
X70188539Y-102479092D02*
X70207549Y-102522810D01*
X70201487Y-102567154D01*
X70169646Y-102640023D01*
X70096194Y-102664132D01*
X70070137Y-102664847D01*
X69989802Y-102654063D01*
X69957462Y-102628966D01*
X69987379Y-102524231D01*
X70072101Y-102473200D01*
X70112531Y-102469462D01*
X70188539Y-102479092D01*
G36*
X72589157Y-106026346D02*
G01*
X72692554Y-106031469D01*
X72746634Y-106044539D01*
X72765815Y-106069262D01*
X72764514Y-106109347D01*
X72763949Y-106113385D01*
X72732978Y-106180637D01*
X72651702Y-106210474D01*
X72628031Y-106213287D01*
X72563599Y-106224016D01*
X72520166Y-106252108D01*
X72486361Y-106314340D01*
X72450813Y-106427487D01*
X72429376Y-106506364D01*
X72389042Y-106650296D01*
X72356072Y-106735231D01*
X72318786Y-106777967D01*
X72265503Y-106795304D01*
X72225140Y-106800101D01*
X72138715Y-106801567D01*
X72113178Y-106777732D01*
X72118785Y-106753699D01*
X72142302Y-106680472D01*
X72173939Y-106568123D01*
X72185008Y-106526137D01*
X72216526Y-106406061D01*
X72242647Y-106309628D01*
X72248421Y-106289231D01*
X72245294Y-106237722D01*
X72183697Y-106221101D01*
X72167941Y-106220847D01*
X72092249Y-106205670D01*
X72068247Y-106145183D01*
X72067616Y-106123154D01*
X72070384Y-106077050D01*
X72088675Y-106048359D01*
X72137472Y-106032952D01*
X72231757Y-106026698D01*
X72386511Y-106025468D01*
X72422026Y-106025462D01*
X72589157Y-106026346D01*
G37*
X72589157Y-106026346D02*
X72692554Y-106031469D01*
X72746634Y-106044539D01*
X72765815Y-106069262D01*
X72764514Y-106109347D01*
X72763949Y-106113385D01*
X72732978Y-106180637D01*
X72651702Y-106210474D01*
X72628031Y-106213287D01*
X72563599Y-106224016D01*
X72520166Y-106252108D01*
X72486361Y-106314340D01*
X72450813Y-106427487D01*
X72429376Y-106506364D01*
X72389042Y-106650296D01*
X72356072Y-106735231D01*
X72318786Y-106777967D01*
X72265503Y-106795304D01*
X72225140Y-106800101D01*
X72138715Y-106801567D01*
X72113178Y-106777732D01*
X72118785Y-106753699D01*
X72142302Y-106680472D01*
X72173939Y-106568123D01*
X72185008Y-106526137D01*
X72216526Y-106406061D01*
X72242647Y-106309628D01*
X72248421Y-106289231D01*
X72245294Y-106237722D01*
X72183697Y-106221101D01*
X72167941Y-106220847D01*
X72092249Y-106205670D01*
X72068247Y-106145183D01*
X72067616Y-106123154D01*
X72070384Y-106077050D01*
X72088675Y-106048359D01*
X72137472Y-106032952D01*
X72231757Y-106026698D01*
X72386511Y-106025468D01*
X72422026Y-106025462D01*
X72589157Y-106026346D01*
G36*
X70656513Y-105799043D02*
G01*
X70794354Y-105818560D01*
X70888820Y-105846489D01*
X70923693Y-105879340D01*
X70922850Y-105884275D01*
X70901834Y-105914534D01*
X70853861Y-105928859D01*
X70762932Y-105928565D01*
X70613044Y-105914968D01*
X70585727Y-105911999D01*
X70456124Y-105888427D01*
X70376556Y-105856597D01*
X70353270Y-105824503D01*
X70392514Y-105800140D01*
X70491513Y-105791430D01*
X70656513Y-105799043D01*
G37*
X70656513Y-105799043D02*
X70794354Y-105818560D01*
X70888820Y-105846489D01*
X70923693Y-105879340D01*
X70922850Y-105884275D01*
X70901834Y-105914534D01*
X70853861Y-105928859D01*
X70762932Y-105928565D01*
X70613044Y-105914968D01*
X70585727Y-105911999D01*
X70456124Y-105888427D01*
X70376556Y-105856597D01*
X70353270Y-105824503D01*
X70392514Y-105800140D01*
X70491513Y-105791430D01*
X70656513Y-105799043D01*
G36*
X69413011Y-105574947D02*
G01*
X69477031Y-105307612D01*
X69622820Y-104726532D01*
X69506833Y-104632432D01*
X69502800Y-104618670D01*
X69560346Y-104636142D01*
X69671024Y-104681376D01*
X69826387Y-104750901D01*
X70017988Y-104841245D01*
X70035616Y-104849744D01*
X70426221Y-105029012D01*
X70825933Y-105195240D01*
X71217377Y-105342044D01*
X71583180Y-105463037D01*
X71905968Y-105551835D01*
X72007860Y-105574601D01*
X72336775Y-105624507D01*
X72612918Y-105628205D01*
X72833231Y-105586202D01*
X72994651Y-105499004D01*
X73079262Y-105397169D01*
X73112273Y-105319460D01*
X73106623Y-105247413D01*
X73071052Y-105162707D01*
X73006996Y-105029000D01*
X73142998Y-105182049D01*
X73251199Y-105342850D01*
X73284694Y-105494718D01*
X73243336Y-105633085D01*
X73160619Y-105727356D01*
X73031346Y-105809328D01*
X72874336Y-105853888D01*
X72673352Y-105863988D01*
X72482834Y-105850606D01*
X72277348Y-105829060D01*
X72135810Y-105817822D01*
X72044249Y-105821164D01*
X71988694Y-105843355D01*
X71955173Y-105888668D01*
X71929715Y-105961373D01*
X71910836Y-106025462D01*
X71834591Y-106245636D01*
X71751041Y-106410242D01*
X71647458Y-106541681D01*
X71582218Y-106603683D01*
X71482300Y-106682453D01*
X71379531Y-106739731D01*
X71262206Y-106776678D01*
X71118624Y-106794457D01*
X70937079Y-106794228D01*
X70705869Y-106777155D01*
X70413289Y-106744398D01*
X70303440Y-106730621D01*
X70020631Y-106689345D01*
X69804715Y-106644237D01*
X69644433Y-106590856D01*
X69528527Y-106524759D01*
X69445738Y-106441502D01*
X69404196Y-106375791D01*
X69361125Y-106271640D01*
X69339668Y-106151258D01*
X69340628Y-106002866D01*
X69359712Y-105854341D01*
X69858635Y-105854341D01*
X69876766Y-105990788D01*
X69940373Y-106085708D01*
X70055417Y-106149630D01*
X70227859Y-106193087D01*
X70389291Y-106217407D01*
X70702510Y-106249661D01*
X70946653Y-106255893D01*
X71126414Y-106235891D01*
X71246486Y-106189447D01*
X71262050Y-106178319D01*
X71401959Y-106018995D01*
X71487909Y-105805011D01*
X71499440Y-105750573D01*
X71524118Y-105615154D01*
X71219482Y-105502574D01*
X71054538Y-105436730D01*
X70850023Y-105347953D01*
X70635674Y-105249430D01*
X70492603Y-105180190D01*
X70328520Y-105099184D01*
X70191866Y-105032709D01*
X70096681Y-104987527D01*
X70057004Y-104970395D01*
X70056848Y-104970385D01*
X70042899Y-105005926D01*
X70015002Y-105102621D01*
X69977240Y-105245579D01*
X69934960Y-105414741D01*
X69880020Y-105665836D01*
X69858635Y-105854341D01*
X69359712Y-105854341D01*
X69364808Y-105814689D01*
X69413011Y-105574947D01*
G37*
X69413011Y-105574947D02*
X69477031Y-105307612D01*
X69622820Y-104726532D01*
X69506833Y-104632432D01*
X69502800Y-104618670D01*
X69560346Y-104636142D01*
X69671024Y-104681376D01*
X69826387Y-104750901D01*
X70017988Y-104841245D01*
X70035616Y-104849744D01*
X70426221Y-105029012D01*
X70825933Y-105195240D01*
X71217377Y-105342044D01*
X71583180Y-105463037D01*
X71905968Y-105551835D01*
X72007860Y-105574601D01*
X72336775Y-105624507D01*
X72612918Y-105628205D01*
X72833231Y-105586202D01*
X72994651Y-105499004D01*
X73079262Y-105397169D01*
X73112273Y-105319460D01*
X73106623Y-105247413D01*
X73071052Y-105162707D01*
X73006996Y-105029000D01*
X73142998Y-105182049D01*
X73251199Y-105342850D01*
X73284694Y-105494718D01*
X73243336Y-105633085D01*
X73160619Y-105727356D01*
X73031346Y-105809328D01*
X72874336Y-105853888D01*
X72673352Y-105863988D01*
X72482834Y-105850606D01*
X72277348Y-105829060D01*
X72135810Y-105817822D01*
X72044249Y-105821164D01*
X71988694Y-105843355D01*
X71955173Y-105888668D01*
X71929715Y-105961373D01*
X71910836Y-106025462D01*
X71834591Y-106245636D01*
X71751041Y-106410242D01*
X71647458Y-106541681D01*
X71582218Y-106603683D01*
X71482300Y-106682453D01*
X71379531Y-106739731D01*
X71262206Y-106776678D01*
X71118624Y-106794457D01*
X70937079Y-106794228D01*
X70705869Y-106777155D01*
X70413289Y-106744398D01*
X70303440Y-106730621D01*
X70020631Y-106689345D01*
X69804715Y-106644237D01*
X69644433Y-106590856D01*
X69528527Y-106524759D01*
X69445738Y-106441502D01*
X69404196Y-106375791D01*
X69361125Y-106271640D01*
X69339668Y-106151258D01*
X69340628Y-106002866D01*
X69359712Y-105854341D01*
X69858635Y-105854341D01*
X69876766Y-105990788D01*
X69940373Y-106085708D01*
X70055417Y-106149630D01*
X70227859Y-106193087D01*
X70389291Y-106217407D01*
X70702510Y-106249661D01*
X70946653Y-106255893D01*
X71126414Y-106235891D01*
X71246486Y-106189447D01*
X71262050Y-106178319D01*
X71401959Y-106018995D01*
X71487909Y-105805011D01*
X71499440Y-105750573D01*
X71524118Y-105615154D01*
X71219482Y-105502574D01*
X71054538Y-105436730D01*
X70850023Y-105347953D01*
X70635674Y-105249430D01*
X70492603Y-105180190D01*
X70328520Y-105099184D01*
X70191866Y-105032709D01*
X70096681Y-104987527D01*
X70057004Y-104970395D01*
X70056848Y-104970385D01*
X70042899Y-105005926D01*
X70015002Y-105102621D01*
X69977240Y-105245579D01*
X69934960Y-105414741D01*
X69880020Y-105665836D01*
X69858635Y-105854341D01*
X69359712Y-105854341D01*
X69364808Y-105814689D01*
X69413011Y-105574947D01*
G36*
X74024283Y-103332243D02*
G01*
X74226514Y-103346209D01*
X74381811Y-103378104D01*
X74493341Y-103434979D01*
X74564273Y-103523884D01*
X74597776Y-103651871D01*
X74597020Y-103825991D01*
X74565173Y-104053294D01*
X74505404Y-104340831D01*
X74420882Y-104695654D01*
X74408585Y-104745693D01*
X74208956Y-105556539D01*
X73956268Y-105556539D01*
X73820181Y-105554137D01*
X73746744Y-105543899D01*
X73720518Y-105521281D01*
X73724048Y-105488154D01*
X73757584Y-105368316D01*
X73800745Y-105202808D01*
X73849923Y-105006782D01*
X73901511Y-104795389D01*
X73951901Y-104583779D01*
X73997486Y-104387104D01*
X74034659Y-104220514D01*
X74059813Y-104099161D01*
X74069340Y-104038196D01*
X74069345Y-104037864D01*
X74058519Y-103966335D01*
X74015981Y-103919171D01*
X73929303Y-103891683D01*
X73786060Y-103879181D01*
X73642641Y-103876830D01*
X73474901Y-103879852D01*
X73347756Y-103896352D01*
X73251985Y-103936408D01*
X73178369Y-104010099D01*
X73117688Y-104127501D01*
X73060721Y-104298694D01*
X72998249Y-104533755D01*
X72981822Y-104599154D01*
X72929271Y-104808802D01*
X72880219Y-105003551D01*
X72839361Y-105164825D01*
X72811392Y-105274044D01*
X72806509Y-105292770D01*
X72767988Y-105439308D01*
X72535032Y-105439308D01*
X72400238Y-105434970D01*
X72327932Y-105419317D01*
X72302798Y-105388391D01*
X72302077Y-105379116D01*
X72312376Y-105305631D01*
X72340606Y-105172235D01*
X72382766Y-104994029D01*
X72434855Y-104786117D01*
X72492873Y-104563602D01*
X72552819Y-104341584D01*
X72610691Y-104135167D01*
X72662490Y-103959453D01*
X72704214Y-103829544D01*
X72729894Y-103764176D01*
X72845926Y-103592605D01*
X72993376Y-103451995D01*
X73135006Y-103370717D01*
X73214555Y-103355178D01*
X73353756Y-103342282D01*
X73534122Y-103333235D01*
X73737163Y-103329243D01*
X73771946Y-103329154D01*
X74024283Y-103332243D01*
G37*
X74024283Y-103332243D02*
X74226514Y-103346209D01*
X74381811Y-103378104D01*
X74493341Y-103434979D01*
X74564273Y-103523884D01*
X74597776Y-103651871D01*
X74597020Y-103825991D01*
X74565173Y-104053294D01*
X74505404Y-104340831D01*
X74420882Y-104695654D01*
X74408585Y-104745693D01*
X74208956Y-105556539D01*
X73956268Y-105556539D01*
X73820181Y-105554137D01*
X73746744Y-105543899D01*
X73720518Y-105521281D01*
X73724048Y-105488154D01*
X73757584Y-105368316D01*
X73800745Y-105202808D01*
X73849923Y-105006782D01*
X73901511Y-104795389D01*
X73951901Y-104583779D01*
X73997486Y-104387104D01*
X74034659Y-104220514D01*
X74059813Y-104099161D01*
X74069340Y-104038196D01*
X74069345Y-104037864D01*
X74058519Y-103966335D01*
X74015981Y-103919171D01*
X73929303Y-103891683D01*
X73786060Y-103879181D01*
X73642641Y-103876830D01*
X73474901Y-103879852D01*
X73347756Y-103896352D01*
X73251985Y-103936408D01*
X73178369Y-104010099D01*
X73117688Y-104127501D01*
X73060721Y-104298694D01*
X72998249Y-104533755D01*
X72981822Y-104599154D01*
X72929271Y-104808802D01*
X72880219Y-105003551D01*
X72839361Y-105164825D01*
X72811392Y-105274044D01*
X72806509Y-105292770D01*
X72767988Y-105439308D01*
X72535032Y-105439308D01*
X72400238Y-105434970D01*
X72327932Y-105419317D01*
X72302798Y-105388391D01*
X72302077Y-105379116D01*
X72312376Y-105305631D01*
X72340606Y-105172235D01*
X72382766Y-104994029D01*
X72434855Y-104786117D01*
X72492873Y-104563602D01*
X72552819Y-104341584D01*
X72610691Y-104135167D01*
X72662490Y-103959453D01*
X72704214Y-103829544D01*
X72729894Y-103764176D01*
X72845926Y-103592605D01*
X72993376Y-103451995D01*
X73135006Y-103370717D01*
X73214555Y-103355178D01*
X73353756Y-103342282D01*
X73534122Y-103333235D01*
X73737163Y-103329243D01*
X73771946Y-103329154D01*
X74024283Y-103332243D01*
G36*
X76216785Y-106034278D02*
G01*
X76249867Y-106054770D01*
X76241140Y-106103446D01*
X76216937Y-106208791D01*
X76181688Y-106351899D01*
X76163639Y-106422668D01*
X76121036Y-106583610D01*
X76088123Y-106684069D01*
X76055504Y-106739349D01*
X76013784Y-106764754D01*
X75953568Y-106775590D01*
X75946471Y-106776426D01*
X75858874Y-106779231D01*
X75833122Y-106755737D01*
X75837481Y-106737051D01*
X75863204Y-106657215D01*
X75882684Y-106585796D01*
X75892435Y-106523768D01*
X75866588Y-106499073D01*
X75786405Y-106499166D01*
X75756757Y-106501503D01*
X75654319Y-106518640D01*
X75600743Y-106562002D01*
X75570356Y-106640924D01*
X75532564Y-106730336D01*
X75472589Y-106764467D01*
X75422578Y-106767924D01*
X75363595Y-106764841D01*
X75329446Y-106746859D01*
X75319452Y-106700879D01*
X75332931Y-106613799D01*
X75369203Y-106472519D01*
X75401249Y-106357616D01*
X75445935Y-106204256D01*
X75480845Y-106110693D01*
X75516242Y-106061181D01*
X75562390Y-106039975D01*
X75612930Y-106032909D01*
X75695032Y-106028977D01*
X75720766Y-106053817D01*
X75705793Y-106128542D01*
X75699708Y-106149882D01*
X75674882Y-106239048D01*
X75662893Y-106287230D01*
X75662693Y-106288973D01*
X75697381Y-106295285D01*
X75783912Y-106298764D01*
X75817229Y-106299000D01*
X75918126Y-106293367D01*
X75967660Y-106262977D01*
X75992492Y-106187595D01*
X75997425Y-106162231D01*
X76023746Y-106069392D01*
X76070243Y-106031584D01*
X76135964Y-106025462D01*
X76216785Y-106034278D01*
G37*
X76216785Y-106034278D02*
X76249867Y-106054770D01*
X76241140Y-106103446D01*
X76216937Y-106208791D01*
X76181688Y-106351899D01*
X76163639Y-106422668D01*
X76121036Y-106583610D01*
X76088123Y-106684069D01*
X76055504Y-106739349D01*
X76013784Y-106764754D01*
X75953568Y-106775590D01*
X75946471Y-106776426D01*
X75858874Y-106779231D01*
X75833122Y-106755737D01*
X75837481Y-106737051D01*
X75863204Y-106657215D01*
X75882684Y-106585796D01*
X75892435Y-106523768D01*
X75866588Y-106499073D01*
X75786405Y-106499166D01*
X75756757Y-106501503D01*
X75654319Y-106518640D01*
X75600743Y-106562002D01*
X75570356Y-106640924D01*
X75532564Y-106730336D01*
X75472589Y-106764467D01*
X75422578Y-106767924D01*
X75363595Y-106764841D01*
X75329446Y-106746859D01*
X75319452Y-106700879D01*
X75332931Y-106613799D01*
X75369203Y-106472519D01*
X75401249Y-106357616D01*
X75445935Y-106204256D01*
X75480845Y-106110693D01*
X75516242Y-106061181D01*
X75562390Y-106039975D01*
X75612930Y-106032909D01*
X75695032Y-106028977D01*
X75720766Y-106053817D01*
X75705793Y-106128542D01*
X75699708Y-106149882D01*
X75674882Y-106239048D01*
X75662893Y-106287230D01*
X75662693Y-106288973D01*
X75697381Y-106295285D01*
X75783912Y-106298764D01*
X75817229Y-106299000D01*
X75918126Y-106293367D01*
X75967660Y-106262977D01*
X75992492Y-106187595D01*
X75997425Y-106162231D01*
X76023746Y-106069392D01*
X76070243Y-106031584D01*
X76135964Y-106025462D01*
X76216785Y-106034278D01*
D13*
%TO.C,Q1*%
X103882000Y-80042000D02*
X105282000Y-80042000D01*
X105282000Y-77722000D02*
X103382000Y-77722000D01*
%TO.C,Q2*%
X103882000Y-84472000D02*
X105282000Y-84472000D01*
X105282000Y-82152000D02*
X103382000Y-82152000D01*
%TO.C,J5*%
X107740000Y-93802000D02*
X107740000Y-95052000D01*
X108790000Y-94752000D02*
X108790000Y-92952000D01*
X108030000Y-94762000D02*
X114000000Y-94762000D01*
X110290000Y-87152000D02*
X110290000Y-87902000D01*
X108040000Y-94752000D02*
X108790000Y-94752000D01*
X108040000Y-87152000D02*
X108040000Y-88952000D01*
X108040000Y-90452000D02*
X108040000Y-91452000D01*
X108790000Y-91452000D02*
X108790000Y-90452000D01*
X108790000Y-88952000D02*
X108790000Y-87152000D01*
X107740000Y-95052000D02*
X108990000Y-95052000D01*
X108040000Y-88952000D02*
X108790000Y-88952000D01*
X113240000Y-94002000D02*
X113240000Y-90952000D01*
X110290000Y-87902000D02*
X113240000Y-87902000D01*
X108790000Y-90452000D02*
X108040000Y-90452000D01*
X114000000Y-94762000D02*
X114000000Y-87142000D01*
X114000000Y-87142000D02*
X108030000Y-87142000D01*
X113240000Y-87902000D02*
X113240000Y-90952000D01*
X108040000Y-91452000D02*
X108790000Y-91452000D01*
X108790000Y-92952000D02*
X108040000Y-92952000D01*
X108790000Y-87152000D02*
X108040000Y-87152000D01*
X110290000Y-94002000D02*
X113240000Y-94002000D01*
X108030000Y-87142000D02*
X108030000Y-94762000D01*
X110290000Y-94752000D02*
X110290000Y-94002000D01*
X108040000Y-92952000D02*
X108040000Y-94752000D01*
%TO.C,J1*%
X68744000Y-63978000D02*
X68744000Y-62178000D01*
X67994000Y-60678000D02*
X68744000Y-60678000D01*
X66494000Y-63978000D02*
X66494000Y-63228000D01*
X68744000Y-62178000D02*
X67994000Y-62178000D01*
X62784000Y-56368000D02*
X62784000Y-63988000D01*
X68744000Y-58178000D02*
X68744000Y-56378000D01*
X68744000Y-60678000D02*
X68744000Y-59678000D01*
X67994000Y-58178000D02*
X68744000Y-58178000D01*
X66494000Y-57128000D02*
X65154000Y-57128000D01*
X68754000Y-63988000D02*
X68754000Y-56368000D01*
X62784000Y-63988000D02*
X68754000Y-63988000D01*
X67994000Y-62178000D02*
X67994000Y-63978000D01*
X63544000Y-60178000D02*
X63544000Y-58188000D01*
X66494000Y-56378000D02*
X66494000Y-57128000D01*
X68754000Y-56368000D02*
X62784000Y-56368000D01*
X67994000Y-59678000D02*
X67994000Y-60678000D01*
X69044000Y-56078000D02*
X67794000Y-56078000D01*
X68744000Y-56378000D02*
X67994000Y-56378000D01*
X68744000Y-59678000D02*
X67994000Y-59678000D01*
X66494000Y-63228000D02*
X63544000Y-63228000D01*
X67994000Y-63978000D02*
X68744000Y-63978000D01*
X69044000Y-57328000D02*
X69044000Y-56078000D01*
X63544000Y-63228000D02*
X63544000Y-60178000D01*
X67994000Y-56378000D02*
X67994000Y-58178000D01*
%TO.C,J2*%
X69061000Y-84800000D02*
X69061000Y-83550000D01*
X63561000Y-90700000D02*
X63561000Y-87650000D01*
X68771000Y-83840000D02*
X62801000Y-83840000D01*
X68761000Y-83850000D02*
X68011000Y-83850000D01*
X69061000Y-83550000D02*
X67811000Y-83550000D01*
X68011000Y-91450000D02*
X68761000Y-91450000D01*
X68011000Y-85650000D02*
X68761000Y-85650000D01*
X68761000Y-91450000D02*
X68761000Y-89650000D01*
X68761000Y-87150000D02*
X68011000Y-87150000D01*
X66511000Y-91450000D02*
X66511000Y-90700000D01*
X68771000Y-91460000D02*
X68771000Y-83840000D01*
X68011000Y-89650000D02*
X68011000Y-91450000D01*
X68761000Y-89650000D02*
X68011000Y-89650000D01*
X63561000Y-87650000D02*
X63561000Y-85660000D01*
X66511000Y-90700000D02*
X63561000Y-90700000D01*
X62801000Y-83840000D02*
X62801000Y-91460000D01*
X68011000Y-88150000D02*
X68761000Y-88150000D01*
X68761000Y-88150000D02*
X68761000Y-87150000D01*
X68761000Y-85650000D02*
X68761000Y-83850000D01*
X62801000Y-91460000D02*
X68771000Y-91460000D01*
X66511000Y-84600000D02*
X65171000Y-84600000D01*
X68011000Y-83850000D02*
X68011000Y-85650000D01*
X68011000Y-87150000D02*
X68011000Y-88150000D01*
X66511000Y-83850000D02*
X66511000Y-84600000D01*
%TO.C,J7*%
X110290000Y-85655000D02*
X110290000Y-84905000D01*
X108040000Y-82355000D02*
X108790000Y-82355000D01*
X108790000Y-83855000D02*
X108040000Y-83855000D01*
X108790000Y-82355000D02*
X108790000Y-76355000D01*
X108040000Y-83855000D02*
X108040000Y-85655000D01*
X108790000Y-76355000D02*
X108040000Y-76355000D01*
X108040000Y-73055000D02*
X108040000Y-74855000D01*
X108040000Y-74855000D02*
X108790000Y-74855000D01*
X108790000Y-74855000D02*
X108790000Y-73055000D01*
X107740000Y-85955000D02*
X108990000Y-85955000D01*
X108790000Y-73055000D02*
X108040000Y-73055000D01*
X110290000Y-73805000D02*
X113240000Y-73805000D01*
X113240000Y-79355000D02*
X113240000Y-83845000D01*
X110290000Y-84905000D02*
X111630000Y-84905000D01*
X113240000Y-73805000D02*
X113240000Y-79355000D01*
X110290000Y-73055000D02*
X110290000Y-73805000D01*
X114000000Y-85665000D02*
X114000000Y-73045000D01*
X108030000Y-85665000D02*
X114000000Y-85665000D01*
X108040000Y-85655000D02*
X108790000Y-85655000D01*
X107740000Y-84705000D02*
X107740000Y-85955000D01*
X108040000Y-76355000D02*
X108040000Y-82355000D01*
X108790000Y-85655000D02*
X108790000Y-83855000D01*
X108030000Y-73045000D02*
X108030000Y-85665000D01*
X114000000Y-73045000D02*
X108030000Y-73045000D01*
%TO.C,J4*%
X105039000Y-102694000D02*
X105039000Y-101944000D01*
X94239000Y-102694000D02*
X94239000Y-101944000D01*
X98739000Y-107144000D02*
X94249000Y-107144000D01*
X95739000Y-102694000D02*
X101739000Y-102694000D01*
X92429000Y-101934000D02*
X92429000Y-107904000D01*
X92439000Y-102694000D02*
X94239000Y-102694000D01*
X92429000Y-107904000D02*
X105049000Y-107904000D01*
X92439000Y-101944000D02*
X92439000Y-102694000D01*
X92139000Y-101644000D02*
X92139000Y-102894000D01*
X105039000Y-104194000D02*
X104289000Y-104194000D01*
X105049000Y-101934000D02*
X92429000Y-101934000D01*
X105049000Y-107904000D02*
X105049000Y-101934000D01*
X93389000Y-101644000D02*
X92139000Y-101644000D01*
X103239000Y-102694000D02*
X105039000Y-102694000D01*
X101739000Y-102694000D02*
X101739000Y-101944000D01*
X92439000Y-104194000D02*
X93189000Y-104194000D01*
X94239000Y-101944000D02*
X92439000Y-101944000D01*
X93189000Y-104194000D02*
X93189000Y-105534000D01*
X104289000Y-104194000D02*
X104289000Y-107144000D01*
X104289000Y-107144000D02*
X98739000Y-107144000D01*
X95739000Y-101944000D02*
X95739000Y-102694000D01*
X101739000Y-101944000D02*
X95739000Y-101944000D01*
X103239000Y-101944000D02*
X103239000Y-102694000D01*
X105039000Y-101944000D02*
X103239000Y-101944000D01*
%TO.C,J3*%
X68011000Y-95048000D02*
X68761000Y-95048000D01*
X68761000Y-100848000D02*
X68761000Y-99048000D01*
X69061000Y-94198000D02*
X69061000Y-92948000D01*
X68771000Y-93238000D02*
X62801000Y-93238000D01*
X68761000Y-93248000D02*
X68011000Y-93248000D01*
X68011000Y-99048000D02*
X68011000Y-100848000D01*
X68761000Y-95048000D02*
X68761000Y-93248000D01*
X66511000Y-93998000D02*
X65171000Y-93998000D01*
X69061000Y-92948000D02*
X67811000Y-92948000D01*
X68011000Y-100848000D02*
X68761000Y-100848000D01*
X68771000Y-100858000D02*
X68771000Y-93238000D01*
X66511000Y-93248000D02*
X66511000Y-93998000D01*
X68761000Y-96548000D02*
X68011000Y-96548000D01*
X68011000Y-97548000D02*
X68761000Y-97548000D01*
X68761000Y-99048000D02*
X68011000Y-99048000D01*
X62801000Y-100858000D02*
X68771000Y-100858000D01*
X68761000Y-97548000D02*
X68761000Y-96548000D01*
X63561000Y-100098000D02*
X63561000Y-97048000D01*
X63561000Y-97048000D02*
X63561000Y-95058000D01*
X68011000Y-93248000D02*
X68011000Y-95048000D01*
X66511000Y-100848000D02*
X66511000Y-100098000D01*
X66511000Y-100098000D02*
X63561000Y-100098000D01*
X62801000Y-93238000D02*
X62801000Y-100858000D01*
X68011000Y-96548000D02*
X68011000Y-97548000D01*
%TD*%
M02*
