%TF.GenerationSoftware,KiCad,Pcbnew,(6.0.5-0)*%
%TF.CreationDate,2023-05-23T22:47:04+01:00*%
%TF.ProjectId,control,636f6e74-726f-46c2-9e6b-696361645f70,rev?*%
%TF.SameCoordinates,Original*%
%TF.FileFunction,Paste,Top*%
%TF.FilePolarity,Positive*%
%FSLAX46Y46*%
G04 Gerber Fmt 4.6, Leading zero omitted, Abs format (unit mm)*
G04 Created by KiCad (PCBNEW (6.0.5-0)) date 2023-05-23 22:47:04*
%MOMM*%
%LPD*%
G01*
G04 APERTURE LIST*
G04 Aperture macros list*
%AMRoundRect*
0 Rectangle with rounded corners*
0 $1 Rounding radius*
0 $2 $3 $4 $5 $6 $7 $8 $9 X,Y pos of 4 corners*
0 Add a 4 corners polygon primitive as box body*
4,1,4,$2,$3,$4,$5,$6,$7,$8,$9,$2,$3,0*
0 Add four circle primitives for the rounded corners*
1,1,$1+$1,$2,$3*
1,1,$1+$1,$4,$5*
1,1,$1+$1,$6,$7*
1,1,$1+$1,$8,$9*
0 Add four rect primitives between the rounded corners*
20,1,$1+$1,$2,$3,$4,$5,0*
20,1,$1+$1,$4,$5,$6,$7,0*
20,1,$1+$1,$6,$7,$8,$9,0*
20,1,$1+$1,$8,$9,$2,$3,0*%
G04 Aperture macros list end*
%ADD10R,1.800000X0.450000*%
%ADD11R,4.550000X5.250000*%
%ADD12R,4.600000X1.100000*%
%ADD13RoundRect,0.237500X0.250000X0.237500X-0.250000X0.237500X-0.250000X-0.237500X0.250000X-0.237500X0*%
%ADD14R,1.560000X0.650000*%
%ADD15R,2.900000X2.600000*%
%ADD16R,0.800000X1.500000*%
%ADD17RoundRect,0.225000X0.225000X0.250000X-0.225000X0.250000X-0.225000X-0.250000X0.225000X-0.250000X0*%
%ADD18RoundRect,0.237500X-0.250000X-0.237500X0.250000X-0.237500X0.250000X0.237500X-0.250000X0.237500X0*%
%ADD19RoundRect,0.250000X0.312500X0.625000X-0.312500X0.625000X-0.312500X-0.625000X0.312500X-0.625000X0*%
%ADD20R,0.650000X0.400000*%
%ADD21RoundRect,0.225000X-0.225000X-0.250000X0.225000X-0.250000X0.225000X0.250000X-0.225000X0.250000X0*%
%ADD22RoundRect,0.250000X-0.312500X-0.625000X0.312500X-0.625000X0.312500X0.625000X-0.312500X0.625000X0*%
G04 APERTURE END LIST*
D10*
%TO.C,U5*%
X68700000Y-90325000D03*
X68700000Y-90975000D03*
X68700000Y-91625000D03*
X68700000Y-92275000D03*
X68700000Y-92925000D03*
X68700000Y-93575000D03*
X68700000Y-94225000D03*
X68700000Y-94875000D03*
X68700000Y-95525000D03*
X68700000Y-96175000D03*
X75800000Y-96175000D03*
X75800000Y-95525000D03*
X75800000Y-94875000D03*
X75800000Y-94225000D03*
X75800000Y-93575000D03*
X75800000Y-92925000D03*
X75800000Y-92275000D03*
X75800000Y-91625000D03*
X75800000Y-90975000D03*
X75800000Y-90325000D03*
%TD*%
D11*
%TO.C,U2*%
X75700000Y-49725000D03*
X80550000Y-49725000D03*
X75700000Y-55275000D03*
X80550000Y-55275000D03*
D12*
X87275000Y-55040000D03*
X87275000Y-49960000D03*
%TD*%
D13*
%TO.C,F1*%
X94412500Y-55000000D03*
X92587500Y-55000000D03*
%TD*%
D14*
%TO.C,U3*%
X84604511Y-94810000D03*
X84604511Y-93860000D03*
X84604511Y-92910000D03*
X81904511Y-92910000D03*
X81904511Y-94810000D03*
%TD*%
D13*
%TO.C,R1*%
X70412500Y-57500000D03*
X68587500Y-57500000D03*
%TD*%
D15*
%TO.C,D1*%
X68500000Y-49725000D03*
D16*
X71000000Y-49725000D03*
%TD*%
D17*
%TO.C,C1*%
X84029511Y-96610000D03*
X82479511Y-96610000D03*
%TD*%
D18*
%TO.C,R2*%
X68587500Y-54500000D03*
X70412500Y-54500000D03*
%TD*%
D19*
%TO.C,R4*%
X73712500Y-88000000D03*
X70787500Y-88000000D03*
%TD*%
D20*
%TO.C,Q1*%
X63050000Y-89100000D03*
X63050000Y-89750000D03*
X63050000Y-90400000D03*
X64950000Y-90400000D03*
X64950000Y-89750000D03*
X64950000Y-89100000D03*
%TD*%
D14*
%TO.C,U4*%
X84604511Y-90060000D03*
X84604511Y-89110000D03*
X84604511Y-88160000D03*
X81904511Y-88160000D03*
X81904511Y-90060000D03*
%TD*%
D21*
%TO.C,C2*%
X82479511Y-86360000D03*
X84029511Y-86360000D03*
%TD*%
D22*
%TO.C,R3*%
X70787500Y-85750000D03*
X73712500Y-85750000D03*
%TD*%
M02*
